%TF.GenerationSoftware,KiCad,Pcbnew,10.0.6*%
%TF.CreationDate,2026-08-31T18:58:46+02:00*%
%TF.ProjectId,env-station,656e762d-7374-4617-9469-6f6e2e6b6963,rev?*%
%TF.SameCoordinates,Original*%
%TF.FileFunction,Copper,L1,Top*%
%TF.FilePolarity,Positive*%
%FSLAX46Y46*%
G04 Gerber Fmt 4.6, Leading zero omitted, Abs format (unit mm)*
G04 Created by KiCad (PCBNEW 10.0.6) date 2026-08-31 18:58:46*
%MOMM*%
%LPD*%
G01*
G04 APERTURE LIST*
G04 Aperture macros list*
%AMRoundRect*
0 Rectangle with rounded corners*
0 $1 Rounding radius*
0 $2 $3 $4 $5 $6 $7 $8 $9 X,Y pos of 4 corners*
0 Add a 4 corners polygon primitive as box body*
4,1,4,$2,$3,$4,$5,$6,$7,$8,$9,$2,$3,0*
0 Add four circle primitives for the rounded corners*
1,1,$1+$1,$2,$3*
1,1,$1+$1,$4,$5*
1,1,$1+$1,$6,$7*
1,1,$1+$1,$8,$9*
0 Add four rect primitives between the rounded corners*
20,1,$1+$1,$2,$3,$4,$5,0*
20,1,$1+$1,$4,$5,$6,$7,0*
20,1,$1+$1,$6,$7,$8,$9,0*
20,1,$1+$1,$8,$9,$2,$3,0*%
G04 Aperture macros list end*
%TA.AperFunction,HeatsinkPad*%
%ADD10C,0.600000*%
%TD*%
%TA.AperFunction,HeatsinkPad*%
%ADD11R,2.900000X2.900000*%
%TD*%
%TA.AperFunction,SMDPad,CuDef*%
%ADD12R,1.500000X0.900000*%
%TD*%
%TA.AperFunction,SMDPad,CuDef*%
%ADD13RoundRect,0.250000X-0.262500X-0.450000X0.262500X-0.450000X0.262500X0.450000X-0.262500X0.450000X0*%
%TD*%
%TA.AperFunction,SMDPad,CuDef*%
%ADD14R,1.700000X1.000000*%
%TD*%
%TA.AperFunction,SMDPad,CuDef*%
%ADD15RoundRect,0.150000X-0.512500X-0.150000X0.512500X-0.150000X0.512500X0.150000X-0.512500X0.150000X0*%
%TD*%
%TA.AperFunction,ComponentPad*%
%ADD16R,1.700000X1.700000*%
%TD*%
%TA.AperFunction,ComponentPad*%
%ADD17C,1.700000*%
%TD*%
%TA.AperFunction,SMDPad,CuDef*%
%ADD18RoundRect,0.150000X-0.150000X-0.575000X0.150000X-0.575000X0.150000X0.575000X-0.150000X0.575000X0*%
%TD*%
%TA.AperFunction,SMDPad,CuDef*%
%ADD19RoundRect,0.075000X-0.075000X-0.650000X0.075000X-0.650000X0.075000X0.650000X-0.075000X0.650000X0*%
%TD*%
%TA.AperFunction,ComponentPad*%
%ADD20O,1.000000X2.100000*%
%TD*%
%TA.AperFunction,ComponentPad*%
%ADD21O,1.000000X1.600000*%
%TD*%
%TA.AperFunction,SMDPad,CuDef*%
%ADD22RoundRect,0.250000X-0.250000X-0.475000X0.250000X-0.475000X0.250000X0.475000X-0.250000X0.475000X0*%
%TD*%
%TA.AperFunction,ViaPad*%
%ADD23C,0.600000*%
%TD*%
%TA.AperFunction,Conductor*%
%ADD24C,0.200000*%
%TD*%
G04 APERTURE END LIST*
D10*
%TO.P,U2,19,GND_19*%
%TO.N,GND*%
X226550000Y-58550000D03*
X226550000Y-57450000D03*
X226000000Y-59100000D03*
X226000000Y-58000000D03*
X226000000Y-56900000D03*
X225450000Y-58550000D03*
D11*
X225450000Y-58000000D03*
D10*
X225450000Y-57450000D03*
X224900000Y-59100000D03*
X224900000Y-58000000D03*
X224900000Y-56900000D03*
X224350000Y-58550000D03*
X224350000Y-57450000D03*
D12*
%TO.P,U2,18,IO0_18*%
%TO.N,unconnected-(U2-IO0-Pad18)*%
X233240000Y-51800000D03*
%TO.P,U2,17,IO1_17*%
%TO.N,unconnected-(U2-IO1-Pad17)*%
X233240000Y-53300000D03*
%TO.P,U2,16,IO2_16*%
%TO.N,Net-(U2-IO2)*%
X233240000Y-54800000D03*
%TO.P,U2,15,IO3_15*%
%TO.N,unconnected-(U2-IO3-Pad15)*%
X233240000Y-56300000D03*
%TO.P,U2,14,IO19_14*%
%TO.N,/USB_D+*%
X233240000Y-57800000D03*
%TO.P,U2,13,IO18_13*%
%TO.N,/USB_D-*%
X233240000Y-59300000D03*
%TO.P,U2,12,IO21/TXD_12*%
%TO.N,/UART_TX*%
X233240000Y-60800000D03*
%TO.P,U2,11,IO20/RXD_11*%
%TO.N,/UART_RX*%
X233240000Y-62300000D03*
%TO.P,U2,10,IO10_10*%
%TO.N,unconnected-(U2-IO10-Pad10)*%
X233240000Y-63800000D03*
%TO.P,U2,9,GND_9*%
%TO.N,GND*%
X215740000Y-63800000D03*
%TO.P,U2,8,IO9_8*%
%TO.N,Net-(U2-IO9)*%
X215740000Y-62300000D03*
%TO.P,U2,7,IO8_7*%
%TO.N,Net-(U2-IO8)*%
X215740000Y-60800000D03*
%TO.P,U2,6,IO7_6*%
%TO.N,unconnected-(U2-IO7-Pad6)*%
X215740000Y-59300000D03*
%TO.P,U2,5,IO6_5*%
%TO.N,unconnected-(U2-IO6-Pad5)*%
X215740000Y-57800000D03*
%TO.P,U2,4,IO5_4*%
%TO.N,/SCL*%
X215740000Y-56300000D03*
%TO.P,U2,3,IO4_3*%
%TO.N,/SDA*%
X215740000Y-54800000D03*
%TO.P,U2,2,EN_2*%
%TO.N,Net-(U2-EN)*%
X215740000Y-53300000D03*
%TO.P,U2,1,3V3_1*%
%TO.N,+3V3*%
X215740000Y-51800000D03*
%TD*%
D13*
%TO.P,R6,2*%
%TO.N,Net-(U2-IO2)*%
X237412500Y-52750000D03*
%TO.P,R6,1*%
%TO.N,+3V3*%
X235587500Y-52750000D03*
%TD*%
D14*
%TO.P,SW1,2,2_2*%
%TO.N,Net-(U2-IO9)*%
X211650000Y-72400000D03*
X205350000Y-72400000D03*
%TO.P,SW1,1,1_1*%
%TO.N,GND*%
X211650000Y-68600000D03*
X205350000Y-68600000D03*
%TD*%
%TO.P,SW2,2,2_2*%
%TO.N,Net-(U2-EN)*%
X204650000Y-64400000D03*
X198350000Y-64400000D03*
%TO.P,SW2,1,1_1*%
%TO.N,GND*%
X204650000Y-60600000D03*
X198350000Y-60600000D03*
%TD*%
D15*
%TO.P,U1,1,VIN_1*%
%TO.N,Net-(U1-EN)*%
X220500000Y-78500000D03*
%TO.P,U1,2,GND_2*%
%TO.N,GND*%
X220500000Y-79450000D03*
%TO.P,U1,3,EN_3*%
%TO.N,Net-(U1-EN)*%
X220500000Y-80400000D03*
%TO.P,U1,4,NC_4*%
%TO.N,unconnected-(U1-NC-Pad4)*%
X222775000Y-80400000D03*
%TO.P,U1,5,VOUT_5*%
%TO.N,+3V3*%
X222775000Y-78500000D03*
%TD*%
D13*
%TO.P,R8,1*%
%TO.N,+3V3*%
X239087500Y-86000000D03*
%TO.P,R8,2*%
%TO.N,/SCL*%
X240912500Y-86000000D03*
%TD*%
%TO.P,R7,1*%
%TO.N,+3V3*%
X239087500Y-92000000D03*
%TO.P,R7,2*%
%TO.N,/SDA*%
X240912500Y-92000000D03*
%TD*%
%TO.P,R5,1*%
%TO.N,+3V3*%
X208087500Y-59500000D03*
%TO.P,R5,2*%
%TO.N,Net-(U2-IO8)*%
X209912500Y-59500000D03*
%TD*%
%TO.P,R4,1*%
%TO.N,+3V3*%
X207675000Y-63500000D03*
%TO.P,R4,2*%
%TO.N,Net-(U2-IO9)*%
X209500000Y-63500000D03*
%TD*%
%TO.P,R3,1*%
%TO.N,+3V3*%
X204175000Y-56000000D03*
%TO.P,R3,2*%
%TO.N,Net-(U2-EN)*%
X206000000Y-56000000D03*
%TD*%
%TO.P,R2,1*%
%TO.N,Net-(J1-CC2)*%
X223087500Y-84000000D03*
%TO.P,R2,2*%
%TO.N,GND*%
X224912500Y-84000000D03*
%TD*%
%TO.P,R1,1*%
%TO.N,Net-(J1-CC1)*%
X217587500Y-84000000D03*
%TO.P,R1,2*%
%TO.N,GND*%
X219412500Y-84000000D03*
%TD*%
D16*
%TO.P,J3,1,Pin_1_1*%
%TO.N,+3V3*%
X198500000Y-85460000D03*
D17*
%TO.P,J3,2,Pin_2_2*%
%TO.N,GND*%
X198500000Y-88000000D03*
%TO.P,J3,3,Pin_3_3*%
%TO.N,/UART_TX*%
X198500000Y-90540000D03*
%TO.P,J3,4,Pin_4_4*%
%TO.N,/UART_RX*%
X198500000Y-93080000D03*
%TD*%
D16*
%TO.P,J2,1,Pin_1_1*%
%TO.N,+3V3*%
X244500000Y-86000000D03*
D17*
%TO.P,J2,2,Pin_2_2*%
%TO.N,GND*%
X244500000Y-88540000D03*
%TO.P,J2,3,Pin_3_3*%
%TO.N,/SDA*%
X244500000Y-91080000D03*
%TO.P,J2,4,Pin_4_4*%
%TO.N,/SCL*%
X244500000Y-93620000D03*
%TD*%
D18*
%TO.P,J1,A1,GND_A1*%
%TO.N,GND*%
X218430000Y-87455000D03*
%TO.P,J1,A4,VBUS_A4*%
%TO.N,Net-(U1-EN)*%
X219230000Y-87455000D03*
D19*
%TO.P,J1,A5,CC1_A5*%
%TO.N,Net-(J1-CC1)*%
X220430000Y-87455000D03*
%TO.P,J1,A6,D+_A6*%
%TO.N,/USB_D+*%
X221430000Y-87455000D03*
%TO.P,J1,A7,D-_A7*%
%TO.N,/USB_D-*%
X221930000Y-87455000D03*
%TO.P,J1,A8,SBU1_A8*%
%TO.N,unconnected-(J1-SBU1-PadA8)*%
X222930000Y-87455000D03*
D18*
%TO.P,J1,A9,VBUS_A9*%
%TO.N,Net-(U1-EN)*%
X224130000Y-87455000D03*
%TO.P,J1,A12,GND_A12*%
%TO.N,GND*%
X224930000Y-87455000D03*
%TO.P,J1,B1,GND_B1*%
X224930000Y-87455000D03*
%TO.P,J1,B4,VBUS_B4*%
%TO.N,Net-(U1-EN)*%
X224130000Y-87455000D03*
D19*
%TO.P,J1,B5,CC2_B5*%
%TO.N,Net-(J1-CC2)*%
X223430000Y-87455000D03*
%TO.P,J1,B6,D+_B6*%
%TO.N,/USB_D+*%
X222430000Y-87455000D03*
%TO.P,J1,B7,D-_B7*%
%TO.N,/USB_D-*%
X220930000Y-87455000D03*
%TO.P,J1,B8,SBU2_B8*%
%TO.N,unconnected-(J1-SBU2-PadB8)*%
X219930000Y-87455000D03*
D18*
%TO.P,J1,B9,VBUS_B9*%
%TO.N,Net-(U1-EN)*%
X219230000Y-87455000D03*
%TO.P,J1,B12,GND_B12*%
%TO.N,GND*%
X218430000Y-87455000D03*
D20*
%TO.P,J1,SH,SHIELD_SH*%
X217360000Y-88370000D03*
D21*
X217360000Y-92550000D03*
D20*
X226000000Y-88370000D03*
D21*
X226000000Y-92550000D03*
%TD*%
D22*
%TO.P,C6,1*%
%TO.N,Net-(U2-EN)*%
X208050000Y-56000000D03*
%TO.P,C6,2*%
%TO.N,GND*%
X209950000Y-56000000D03*
%TD*%
%TO.P,C5,1*%
%TO.N,+3V3*%
X208100000Y-52500000D03*
%TO.P,C5,2*%
%TO.N,GND*%
X210000000Y-52500000D03*
%TD*%
%TO.P,C4,1*%
%TO.N,Net-(U1-EN)*%
X215600000Y-76000000D03*
%TO.P,C4,2*%
%TO.N,GND*%
X217500000Y-76000000D03*
%TD*%
%TO.P,C3,1*%
%TO.N,+3V3*%
X225600000Y-79000000D03*
%TO.P,C3,2*%
%TO.N,GND*%
X227500000Y-79000000D03*
%TD*%
%TO.P,C2,1*%
%TO.N,+3V3*%
X225050000Y-73500000D03*
%TO.P,C2,2*%
%TO.N,GND*%
X226950000Y-73500000D03*
%TD*%
D23*
%TO.N,GND*%
X227500000Y-81000000D03*
X226500000Y-77250000D03*
X225825735Y-84325735D03*
X209250000Y-89250000D03*
X218250000Y-77750000D03*
X217250000Y-80500000D03*
X216500000Y-85250000D03*
X211000000Y-52500000D03*
X209500000Y-54500000D03*
X204750000Y-51500000D03*
X203250000Y-65250000D03*
X224250000Y-68000000D03*
X205250000Y-77750000D03*
X199500000Y-70750000D03*
X200500000Y-76750000D03*
%TO.N,+3V3*%
X239750000Y-88000000D03*
X232500000Y-81250000D03*
X238000000Y-86500000D03*
X241750000Y-82500000D03*
X241512500Y-84250000D03*
X237000000Y-86000000D03*
X234900000Y-86000000D03*
X228500000Y-86000000D03*
X218500000Y-86000000D03*
X207250000Y-86000000D03*
X240312500Y-84250000D03*
X202220735Y-85970735D03*
%TO.N,Net-(U1-EN)*%
X226250000Y-81650000D03*
X226500000Y-83600000D03*
%TO.N,/USB_D+*%
X227750000Y-82250000D03*
X222530000Y-85400000D03*
%TO.N,/UART_RX*%
X236250000Y-62500000D03*
X232500000Y-71550003D03*
%TO.N,/UART_TX*%
X236000000Y-60750000D03*
X237600000Y-60750000D03*
X237750000Y-70500000D03*
X232500000Y-70750000D03*
%TO.N,/USB_D-*%
X236000000Y-59250000D03*
X237600000Y-59250000D03*
X236750000Y-83000000D03*
X234900000Y-83000000D03*
%TO.N,Net-(U2-IO8)*%
X213250000Y-56900000D03*
X210250000Y-57500000D03*
%TO.N,Net-(U2-IO9)*%
X213467893Y-67782107D03*
X214849265Y-66900735D03*
%TO.N,+3V3*%
X214250000Y-52500000D03*
X234750000Y-52750000D03*
%TO.N,Net-(U2-EN)*%
X206049265Y-59200735D03*
X205999999Y-60848528D03*
X212300000Y-53250000D03*
X211100000Y-53500000D03*
%TO.N,/UART_RX*%
X217303190Y-72522340D03*
X219449262Y-71500735D03*
%TO.N,/UART_TX*%
X216750000Y-71500000D03*
X218849265Y-70900735D03*
%TO.N,/SCL*%
X241825735Y-87825735D03*
X240750000Y-66000000D03*
X212300000Y-56250000D03*
%TO.N,/SDA*%
X235500000Y-75250000D03*
X224450000Y-75250000D03*
X212300000Y-55000000D03*
X211100000Y-55000000D03*
%TO.N,Net-(U1-EN)*%
X221250000Y-81500000D03*
X220500000Y-77000000D03*
%TO.N,Net-(J1-CC1)*%
X217000000Y-82750000D03*
X221100000Y-82750000D03*
%TD*%
%TO.N,+3V3*%
D24*
X239750000Y-86662500D02*
X239087500Y-86000000D01*
X239750000Y-88000000D02*
X239750000Y-86662500D01*
X228000000Y-76750000D02*
X232500000Y-81250000D01*
X227850000Y-76750000D02*
X228000000Y-76750000D01*
X225600000Y-79000000D02*
X227850000Y-76750000D01*
X225600000Y-74050000D02*
X225050000Y-73500000D01*
X225600000Y-79000000D02*
X225600000Y-74050000D01*
X238000000Y-91500000D02*
X238500000Y-92000000D01*
X238000000Y-86500000D02*
X238000000Y-91500000D01*
X238500000Y-92000000D02*
X239087500Y-92000000D01*
X244500000Y-82500000D02*
X241750000Y-82500000D01*
X244500000Y-86000000D02*
X244500000Y-82500000D01*
X242500000Y-86000000D02*
X244500000Y-86000000D01*
X242500000Y-84250000D02*
X242500000Y-86000000D01*
X237000000Y-84250000D02*
X240312500Y-84250000D01*
X237000000Y-86000000D02*
X237000000Y-84250000D01*
X228500000Y-86000000D02*
X234900000Y-86000000D01*
X241512500Y-84250000D02*
X242500000Y-84250000D01*
X202191470Y-86000000D02*
X202220735Y-85970735D01*
X200500000Y-86000000D02*
X202191470Y-86000000D01*
X199960000Y-85460000D02*
X200500000Y-86000000D01*
X198500000Y-85460000D02*
X199960000Y-85460000D01*
X207250000Y-86000000D02*
X218500000Y-86000000D01*
X225100000Y-78500000D02*
X225600000Y-79000000D01*
X222775000Y-78500000D02*
X225100000Y-78500000D01*
%TO.N,Net-(U1-EN)*%
X220225000Y-85275000D02*
X219230000Y-86270000D01*
X220225000Y-82525000D02*
X220225000Y-85275000D01*
X220900000Y-81850000D02*
X220225000Y-82525000D01*
X219230000Y-86270000D02*
X219230000Y-87455000D01*
X226050000Y-81850000D02*
X220900000Y-81850000D01*
X226250000Y-81650000D02*
X226050000Y-81850000D01*
X220500000Y-82250000D02*
X220500000Y-81637501D01*
X226500000Y-84500000D02*
X226500000Y-83600000D01*
X224130000Y-86870000D02*
X226500000Y-84500000D01*
X224130000Y-87455000D02*
X224130000Y-86870000D01*
%TO.N,Net-(U2-IO9)*%
X211650000Y-73850000D02*
X211650000Y-72400000D01*
X206000000Y-74000000D02*
X211500000Y-74000000D01*
X205350000Y-73350000D02*
X206000000Y-74000000D01*
X211500000Y-74000000D02*
X211650000Y-73850000D01*
X205350000Y-72400000D02*
X205350000Y-73350000D01*
%TO.N,Net-(U2-EN)*%
X204000000Y-65850000D02*
X204650000Y-65200000D01*
X198750000Y-66000000D02*
X198900000Y-65850000D01*
X204650000Y-65200000D02*
X204650000Y-64400000D01*
X198350000Y-65600000D02*
X198750000Y-66000000D01*
X198900000Y-65850000D02*
X204000000Y-65850000D01*
X198350000Y-64400000D02*
X198350000Y-65600000D01*
%TO.N,/USB_D+*%
X222430000Y-85500000D02*
X222430000Y-87455000D01*
X222530000Y-85400000D02*
X222430000Y-85500000D01*
X222774570Y-82250000D02*
X227750000Y-82250000D01*
X221530000Y-83494570D02*
X222774570Y-82250000D01*
%TO.N,/USB_D-*%
X222000000Y-90250000D02*
X221930000Y-90180000D01*
X221930000Y-90180000D02*
X221930000Y-87455000D01*
X221250000Y-90250000D02*
X222000000Y-90250000D01*
X220930000Y-89930000D02*
X221250000Y-90250000D01*
X220930000Y-87455000D02*
X220930000Y-89930000D01*
%TO.N,/UART_RX*%
X235300000Y-62300000D02*
X233240000Y-62300000D01*
X236250000Y-62500000D02*
X235500000Y-62500000D01*
X232450732Y-71500735D02*
X232500000Y-71550003D01*
X219449262Y-71500735D02*
X232450732Y-71500735D01*
X235500000Y-62500000D02*
X235300000Y-62300000D01*
%TO.N,/UART_TX*%
X236000000Y-60750000D02*
X235500000Y-60750000D01*
X237750000Y-60750000D02*
X237600000Y-60750000D01*
X237750000Y-70500000D02*
X237750000Y-60750000D01*
X235450000Y-60800000D02*
X233240000Y-60800000D01*
X226500000Y-70750000D02*
X232500000Y-70750000D01*
X226349265Y-70900735D02*
X226500000Y-70750000D01*
X218849265Y-70900735D02*
X226349265Y-70900735D01*
X235500000Y-60750000D02*
X235450000Y-60800000D01*
%TO.N,/USB_D-*%
X236000000Y-59250000D02*
X235950000Y-59300000D01*
X235950000Y-59300000D02*
X233240000Y-59300000D01*
X238750000Y-59250000D02*
X237600000Y-59250000D01*
X238750000Y-83000000D02*
X238750000Y-59250000D01*
X236750000Y-83000000D02*
X238750000Y-83000000D01*
X222590256Y-83000000D02*
X234900000Y-83000000D01*
X221930000Y-83660256D02*
X222590256Y-83000000D01*
X221930000Y-87455000D02*
X221930000Y-83660256D01*
%TO.N,/USB_D+*%
X237050000Y-57800000D02*
X233240000Y-57800000D01*
X237250000Y-58000000D02*
X237050000Y-57800000D01*
X237000000Y-58250000D02*
X237250000Y-58000000D01*
X237000000Y-65000000D02*
X237000000Y-58250000D01*
X233250000Y-65000000D02*
X237000000Y-65000000D01*
X233100000Y-82600000D02*
X233100000Y-65150000D01*
X221530000Y-83494570D02*
X222424571Y-82600000D01*
X222424571Y-82600000D02*
X233100000Y-82600000D01*
X221430000Y-86697590D02*
X221530000Y-86597590D01*
X233100000Y-65150000D02*
X233250000Y-65000000D01*
X221530000Y-86597590D02*
X221530000Y-83494570D01*
X221430000Y-87455000D02*
X221430000Y-86697590D01*
%TO.N,Net-(U2-IO2)*%
X235362500Y-54800000D02*
X237412500Y-52750000D01*
X233240000Y-54800000D02*
X235362500Y-54800000D01*
%TO.N,Net-(U2-IO8)*%
X209912500Y-57837500D02*
X209912500Y-59500000D01*
X210250000Y-57500000D02*
X209912500Y-57837500D01*
X213250000Y-58610000D02*
X213250000Y-56900000D01*
X215440000Y-60800000D02*
X213250000Y-58610000D01*
X215740000Y-60800000D02*
X215440000Y-60800000D01*
%TO.N,Net-(U2-IO9)*%
X209250000Y-66500000D02*
X209500000Y-66250000D01*
X209000000Y-66250000D02*
X209250000Y-66500000D01*
X204000000Y-71050000D02*
X204000000Y-66250000D01*
X204000000Y-66250000D02*
X209000000Y-66250000D01*
X205350000Y-72400000D02*
X204000000Y-71050000D01*
X209500000Y-66250000D02*
X209500000Y-63500000D01*
X213467893Y-67782107D02*
X209500000Y-63814214D01*
X209500000Y-63814214D02*
X209500000Y-63500000D01*
X214000000Y-66051470D02*
X214849265Y-66900735D01*
X214050000Y-62300000D02*
X214000000Y-62250000D01*
X215740000Y-62300000D02*
X214050000Y-62300000D01*
X214000000Y-62250000D02*
X214000000Y-66051470D01*
%TO.N,+3V3*%
X215040000Y-52500000D02*
X215740000Y-51800000D01*
X214250000Y-52500000D02*
X215040000Y-52500000D01*
X235587500Y-52750000D02*
X234750000Y-52750000D01*
%TO.N,/SCL*%
X212350000Y-56300000D02*
X215740000Y-56300000D01*
X212300000Y-56250000D02*
X212350000Y-56300000D01*
%TO.N,/SDA*%
X212500000Y-54800000D02*
X215740000Y-54800000D01*
X212300000Y-55000000D02*
X212500000Y-54800000D01*
%TO.N,Net-(U2-EN)*%
X212350000Y-53300000D02*
X215740000Y-53300000D01*
X212300000Y-53250000D02*
X212350000Y-53300000D01*
%TO.N,+3V3*%
X213050000Y-51800000D02*
X215740000Y-51800000D01*
X213000000Y-51850000D02*
X213050000Y-51800000D01*
X212750000Y-51850000D02*
X213000000Y-51850000D01*
%TO.N,Net-(U2-EN)*%
X206000000Y-59151470D02*
X206000000Y-56000000D01*
X206049265Y-59200735D02*
X206000000Y-59151470D01*
X206000000Y-60848529D02*
X205999999Y-60848528D01*
X206000000Y-64500000D02*
X206000000Y-60848529D01*
X205900000Y-64400000D02*
X206000000Y-64500000D01*
X204650000Y-64400000D02*
X205900000Y-64400000D01*
X208050000Y-56000000D02*
X206000000Y-56000000D01*
X206000000Y-55250000D02*
X206000000Y-56000000D01*
X207000000Y-53750000D02*
X207000000Y-54250000D01*
X210850000Y-53750000D02*
X207000000Y-53750000D01*
X211100000Y-53500000D02*
X210850000Y-53750000D01*
X212400000Y-53350000D02*
X212300000Y-53250000D01*
X207000000Y-54250000D02*
X206000000Y-55250000D01*
%TO.N,/UART_RX*%
X206500000Y-85080000D02*
X198500000Y-93080000D01*
X206500000Y-83325530D02*
X206500000Y-85080000D01*
X217303190Y-72522340D02*
X206500000Y-83325530D01*
%TO.N,/UART_TX*%
X216750000Y-72290000D02*
X198500000Y-90540000D01*
X216750000Y-71500000D02*
X216750000Y-72290000D01*
%TO.N,/SCL*%
X240912500Y-86912500D02*
X241825735Y-87825735D01*
X240912500Y-86000000D02*
X240912500Y-86912500D01*
X240912500Y-66662500D02*
X240912500Y-86000000D01*
X240750000Y-66500000D02*
X240912500Y-66662500D01*
X240750000Y-66000000D02*
X240750000Y-66500000D01*
X212400000Y-56350000D02*
X212300000Y-56250000D01*
%TO.N,/SDA*%
X243580000Y-92000000D02*
X244500000Y-91080000D01*
X240912500Y-92000000D02*
X243580000Y-92000000D01*
X238590256Y-93000000D02*
X239912500Y-93000000D01*
X235500000Y-89909744D02*
X238590256Y-93000000D01*
X235500000Y-75250000D02*
X235500000Y-89909744D01*
X239912500Y-93000000D02*
X240912500Y-92000000D01*
X221784315Y-75250000D02*
X224450000Y-75250000D01*
X211100000Y-64565685D02*
X221784315Y-75250000D01*
X212450000Y-54850000D02*
X212300000Y-55000000D01*
X211100000Y-55000000D02*
X211100000Y-64565685D01*
%TO.N,/USB_D-*%
X233500000Y-59500000D02*
X233350000Y-59350000D01*
%TO.N,Net-(J1-CC2)*%
X223430000Y-84342500D02*
X223087500Y-84000000D01*
X223430000Y-87455000D02*
X223430000Y-84342500D01*
%TO.N,Net-(U1-EN)*%
X221250000Y-81150000D02*
X220500000Y-80400000D01*
X221250000Y-81500000D02*
X221250000Y-81150000D01*
X220500000Y-78500000D02*
X220500000Y-77000000D01*
%TO.N,Net-(J1-CC1)*%
X217000000Y-83412500D02*
X217587500Y-84000000D01*
X217000000Y-82750000D02*
X217000000Y-83412500D01*
X220430000Y-85635686D02*
X221100000Y-84965686D01*
X221100000Y-84965686D02*
X221100000Y-82750000D01*
X220430000Y-87455000D02*
X220430000Y-85635686D01*
%TO.N,+3V3*%
X239087500Y-92000000D02*
X239087500Y-86000000D01*
X239087500Y-91412500D02*
X244500000Y-86000000D01*
X239087500Y-92000000D02*
X239087500Y-91412500D01*
%TO.N,Net-(U1-EN)*%
X220500000Y-81637501D02*
X218600000Y-79737501D01*
X220500000Y-85000000D02*
X220500000Y-82250000D01*
X219985256Y-85514744D02*
X220500000Y-85000000D01*
X219230000Y-85514744D02*
X219985256Y-85514744D01*
%TO.N,+3V3*%
X211700000Y-52600000D02*
X211700000Y-64600000D01*
X211700000Y-64600000D02*
X220600000Y-73500000D01*
X220600000Y-73500000D02*
X225050000Y-73500000D01*
X212750000Y-51850000D02*
X212450000Y-51850000D01*
X212450000Y-51850000D02*
X211700000Y-52600000D01*
X208087500Y-61262500D02*
X207675000Y-61675000D01*
X208087500Y-59500000D02*
X208087500Y-61262500D01*
X204175000Y-58175000D02*
X204175000Y-56000000D01*
X207675000Y-61675000D02*
X204175000Y-58175000D01*
X207675000Y-63500000D02*
X207675000Y-61675000D01*
X207675000Y-52500000D02*
X208100000Y-52500000D01*
X204175000Y-56000000D02*
X207675000Y-52500000D01*
X212375000Y-51475000D02*
X212750000Y-51850000D01*
X209125000Y-51475000D02*
X212375000Y-51475000D01*
X208100000Y-52500000D02*
X209125000Y-51475000D01*
X225050000Y-73500000D02*
X225050000Y-77450000D01*
X225050000Y-77450000D02*
X224000000Y-78500000D01*
%TO.N,Net-(U1-EN)*%
X215600000Y-76737501D02*
X218600000Y-79737501D01*
X215600000Y-76000000D02*
X215600000Y-76737501D01*
X221162499Y-80400000D02*
X220500000Y-80400000D01*
X220500000Y-78500000D02*
X220853052Y-78500000D01*
X219837501Y-78500000D02*
X220500000Y-78500000D01*
X218600000Y-79737501D02*
X219837501Y-78500000D01*
X219230000Y-87455000D02*
X219230000Y-85514744D01*
%TD*%
%TA.AperFunction,Conductor*%
%TO.N,GND*%
G36*
X234387273Y-83620185D02*
G01*
X234389125Y-83621398D01*
X234520814Y-83709390D01*
X234520827Y-83709397D01*
X234665885Y-83769481D01*
X234666503Y-83769737D01*
X234728103Y-83781990D01*
X234799691Y-83796230D01*
X234861602Y-83828615D01*
X234896176Y-83889330D01*
X234899500Y-83917847D01*
X234899500Y-85082152D01*
X234879815Y-85149191D01*
X234827011Y-85194946D01*
X234799692Y-85203769D01*
X234666508Y-85230261D01*
X234666498Y-85230264D01*
X234520827Y-85290602D01*
X234520814Y-85290609D01*
X234389125Y-85378602D01*
X234322447Y-85399480D01*
X234320234Y-85399500D01*
X229079766Y-85399500D01*
X229012727Y-85379815D01*
X229010875Y-85378602D01*
X228879185Y-85290609D01*
X228879172Y-85290602D01*
X228733501Y-85230264D01*
X228733489Y-85230261D01*
X228578845Y-85199500D01*
X228578842Y-85199500D01*
X228421158Y-85199500D01*
X228421155Y-85199500D01*
X228266510Y-85230261D01*
X228266498Y-85230264D01*
X228120827Y-85290602D01*
X228120814Y-85290609D01*
X227989711Y-85378210D01*
X227989707Y-85378213D01*
X227878213Y-85489707D01*
X227878210Y-85489711D01*
X227790609Y-85620814D01*
X227790602Y-85620827D01*
X227730264Y-85766498D01*
X227730261Y-85766510D01*
X227699500Y-85921153D01*
X227699500Y-86078846D01*
X227730261Y-86233489D01*
X227730264Y-86233501D01*
X227790602Y-86379172D01*
X227790609Y-86379185D01*
X227878210Y-86510288D01*
X227878213Y-86510292D01*
X227989707Y-86621786D01*
X227989711Y-86621789D01*
X228120814Y-86709390D01*
X228120827Y-86709397D01*
X228228020Y-86753797D01*
X228266503Y-86769737D01*
X228421153Y-86800499D01*
X228421156Y-86800500D01*
X228421158Y-86800500D01*
X228578844Y-86800500D01*
X228578845Y-86800499D01*
X228733497Y-86769737D01*
X228879179Y-86709394D01*
X228933663Y-86672989D01*
X229010875Y-86621398D01*
X229077553Y-86600520D01*
X229079766Y-86600500D01*
X234320234Y-86600500D01*
X234387273Y-86620185D01*
X234389125Y-86621398D01*
X234520814Y-86709390D01*
X234520827Y-86709397D01*
X234628020Y-86753797D01*
X234666503Y-86769737D01*
X234755431Y-86787426D01*
X234799691Y-86796230D01*
X234861602Y-86828615D01*
X234896176Y-86889330D01*
X234899500Y-86917847D01*
X234899500Y-89823074D01*
X234899499Y-89823092D01*
X234899499Y-89988798D01*
X234899498Y-89988798D01*
X234940423Y-90141530D01*
X234940424Y-90141531D01*
X234957602Y-90171284D01*
X235019481Y-90278461D01*
X235138349Y-90397329D01*
X235138355Y-90397334D01*
X238105395Y-93364374D01*
X238105405Y-93364385D01*
X238109735Y-93368715D01*
X238109736Y-93368716D01*
X238221540Y-93480520D01*
X238292449Y-93521459D01*
X238358471Y-93559577D01*
X238511199Y-93600501D01*
X238511202Y-93600501D01*
X238676909Y-93600501D01*
X238676925Y-93600500D01*
X239825831Y-93600500D01*
X239825847Y-93600501D01*
X239833443Y-93600501D01*
X239991554Y-93600501D01*
X239991557Y-93600501D01*
X240144285Y-93559577D01*
X240210307Y-93521459D01*
X240281216Y-93480520D01*
X240393020Y-93368716D01*
X240393020Y-93368714D01*
X240403224Y-93358511D01*
X240403228Y-93358506D01*
X240524917Y-93236816D01*
X240586238Y-93203333D01*
X240612586Y-93200499D01*
X241225008Y-93200499D01*
X241225016Y-93200498D01*
X241225019Y-93200498D01*
X241283079Y-93194567D01*
X241327797Y-93189999D01*
X241494334Y-93134814D01*
X241643656Y-93042712D01*
X241767712Y-92918656D01*
X241859814Y-92769334D01*
X241887595Y-92685495D01*
X241927368Y-92628051D01*
X241991884Y-92601228D01*
X242005301Y-92600500D01*
X243328036Y-92600500D01*
X243395075Y-92620185D01*
X243440830Y-92672989D01*
X243450774Y-92742147D01*
X243428354Y-92797385D01*
X243344951Y-92912180D01*
X243248444Y-93101585D01*
X243248443Y-93101587D01*
X243248443Y-93101588D01*
X243219717Y-93189998D01*
X243182753Y-93303760D01*
X243154758Y-93480518D01*
X243149500Y-93513713D01*
X243149500Y-93726287D01*
X243182754Y-93936243D01*
X243234075Y-94094193D01*
X243248444Y-94138414D01*
X243344951Y-94327820D01*
X243469890Y-94499786D01*
X243507923Y-94537819D01*
X243541408Y-94599142D01*
X243536424Y-94668834D01*
X243494552Y-94724767D01*
X243429088Y-94749184D01*
X243420242Y-94749500D01*
X197124500Y-94749500D01*
X197057461Y-94729815D01*
X197011706Y-94677011D01*
X197000500Y-94625500D01*
X197000500Y-93618226D01*
X197020185Y-93551187D01*
X197072989Y-93505432D01*
X197142147Y-93495488D01*
X197205703Y-93524513D01*
X197242431Y-93579908D01*
X197248444Y-93598414D01*
X197344951Y-93787820D01*
X197469890Y-93959786D01*
X197620213Y-94110109D01*
X197792179Y-94235048D01*
X197792181Y-94235049D01*
X197792184Y-94235051D01*
X197981588Y-94331557D01*
X198183757Y-94397246D01*
X198393713Y-94430500D01*
X198393714Y-94430500D01*
X198606286Y-94430500D01*
X198606287Y-94430500D01*
X198816243Y-94397246D01*
X199018412Y-94331557D01*
X199207816Y-94235051D01*
X199229789Y-94219086D01*
X199379786Y-94110109D01*
X199379788Y-94110106D01*
X199379792Y-94110104D01*
X199530104Y-93959792D01*
X199530106Y-93959788D01*
X199530109Y-93959786D01*
X199655048Y-93787820D01*
X199655047Y-93787820D01*
X199655051Y-93787816D01*
X199751557Y-93598412D01*
X199817246Y-93396243D01*
X199850500Y-93186287D01*
X199850500Y-92973713D01*
X199817246Y-92763757D01*
X199803506Y-92721473D01*
X199801512Y-92651635D01*
X199833755Y-92595478D01*
X206269019Y-86160215D01*
X206330340Y-86126732D01*
X206400032Y-86131716D01*
X206455965Y-86173588D01*
X206478315Y-86223706D01*
X206480261Y-86233491D01*
X206480264Y-86233501D01*
X206540602Y-86379172D01*
X206540609Y-86379185D01*
X206628210Y-86510288D01*
X206628213Y-86510292D01*
X206739707Y-86621786D01*
X206739711Y-86621789D01*
X206870814Y-86709390D01*
X206870827Y-86709397D01*
X206978020Y-86753797D01*
X207016503Y-86769737D01*
X207171153Y-86800499D01*
X207171156Y-86800500D01*
X207171158Y-86800500D01*
X207328844Y-86800500D01*
X207328845Y-86800499D01*
X207483497Y-86769737D01*
X207629179Y-86709394D01*
X207683663Y-86672989D01*
X207760875Y-86621398D01*
X207827553Y-86600520D01*
X207829766Y-86600500D01*
X217920234Y-86600500D01*
X217987273Y-86620185D01*
X217989125Y-86621398D01*
X218120814Y-86709390D01*
X218120827Y-86709397D01*
X218199894Y-86742147D01*
X218266503Y-86769737D01*
X218329693Y-86782306D01*
X218391602Y-86814690D01*
X218426176Y-86875406D01*
X218429500Y-86903923D01*
X218429500Y-88095701D01*
X218432401Y-88132567D01*
X218432402Y-88132573D01*
X218480432Y-88297890D01*
X218478982Y-88298311D01*
X218486468Y-88358930D01*
X218456181Y-88421894D01*
X218439601Y-88437208D01*
X218436638Y-88439481D01*
X218329487Y-88546632D01*
X218329485Y-88546635D01*
X218253719Y-88677863D01*
X218214500Y-88824234D01*
X218214500Y-88975765D01*
X218253719Y-89122136D01*
X218291602Y-89187750D01*
X218329485Y-89253365D01*
X218436635Y-89360515D01*
X218567865Y-89436281D01*
X218714234Y-89475500D01*
X218714236Y-89475500D01*
X218865764Y-89475500D01*
X218865766Y-89475500D01*
X219012135Y-89436281D01*
X219143365Y-89360515D01*
X219250515Y-89253365D01*
X219326281Y-89122135D01*
X219365500Y-88975766D01*
X219365500Y-88824234D01*
X219365499Y-88824231D01*
X219364649Y-88817774D01*
X219375414Y-88748738D01*
X219421793Y-88696481D01*
X219477868Y-88677968D01*
X219479176Y-88677865D01*
X219482569Y-88677598D01*
X219588249Y-88646894D01*
X219658114Y-88647093D01*
X219670286Y-88651405D01*
X219704764Y-88665687D01*
X219811586Y-88679750D01*
X219817264Y-88680498D01*
X219817280Y-88680500D01*
X219817287Y-88680500D01*
X220042713Y-88680500D01*
X220042720Y-88680500D01*
X220155236Y-88665687D01*
X220155236Y-88665686D01*
X220163295Y-88664626D01*
X220163698Y-88667689D01*
X220196299Y-88667689D01*
X220196702Y-88664625D01*
X220204761Y-88665685D01*
X220204764Y-88665687D01*
X220221686Y-88667914D01*
X220285579Y-88696178D01*
X220324052Y-88754502D01*
X220329500Y-88790853D01*
X220329500Y-89843330D01*
X220329499Y-89843348D01*
X220329499Y-90009054D01*
X220329498Y-90009054D01*
X220331953Y-90018215D01*
X220370423Y-90161785D01*
X220388658Y-90193368D01*
X220406203Y-90223757D01*
X220449479Y-90298715D01*
X220568349Y-90417585D01*
X220568355Y-90417590D01*
X220765139Y-90614374D01*
X220765149Y-90614385D01*
X220769479Y-90618715D01*
X220769480Y-90618716D01*
X220881284Y-90730520D01*
X220881286Y-90730521D01*
X220881290Y-90730524D01*
X221000762Y-90799500D01*
X221018216Y-90809577D01*
X221130019Y-90839534D01*
X221170942Y-90850500D01*
X221170943Y-90850500D01*
X221913331Y-90850500D01*
X221913347Y-90850501D01*
X221920943Y-90850501D01*
X222079054Y-90850501D01*
X222079057Y-90850501D01*
X222231785Y-90809577D01*
X222311147Y-90763757D01*
X222368716Y-90730520D01*
X222480520Y-90618716D01*
X222531451Y-90530500D01*
X222559577Y-90481785D01*
X222600501Y-90329057D01*
X222600501Y-90170943D01*
X222559577Y-90018215D01*
X222547111Y-89996624D01*
X222530500Y-89934626D01*
X222530500Y-88790853D01*
X222550185Y-88723814D01*
X222602989Y-88678059D01*
X222638309Y-88667915D01*
X222655236Y-88665687D01*
X222655238Y-88665685D01*
X222663298Y-88664625D01*
X222663701Y-88667689D01*
X222696302Y-88667689D01*
X222696705Y-88664626D01*
X222704763Y-88665686D01*
X222704764Y-88665687D01*
X222817280Y-88680500D01*
X222817287Y-88680500D01*
X223042713Y-88680500D01*
X223042720Y-88680500D01*
X223155236Y-88665687D01*
X223155236Y-88665686D01*
X223163295Y-88664626D01*
X223163698Y-88667689D01*
X223196302Y-88667689D01*
X223196705Y-88664626D01*
X223204763Y-88665686D01*
X223204764Y-88665687D01*
X223317280Y-88680500D01*
X223317287Y-88680500D01*
X223542713Y-88680500D01*
X223542720Y-88680500D01*
X223655236Y-88665687D01*
X223689700Y-88651410D01*
X223759167Y-88643939D01*
X223771745Y-88646892D01*
X223877431Y-88677598D01*
X223880824Y-88677865D01*
X223882132Y-88677968D01*
X223947422Y-88702847D01*
X223988897Y-88759076D01*
X223995351Y-88817765D01*
X223994500Y-88824231D01*
X223994500Y-88975765D01*
X224033719Y-89122136D01*
X224071602Y-89187750D01*
X224109485Y-89253365D01*
X224216635Y-89360515D01*
X224347865Y-89436281D01*
X224494234Y-89475500D01*
X224494236Y-89475500D01*
X224645764Y-89475500D01*
X224645766Y-89475500D01*
X224792135Y-89436281D01*
X224923365Y-89360515D01*
X225030515Y-89253365D01*
X225106281Y-89122135D01*
X225145500Y-88975766D01*
X225145500Y-88824234D01*
X225106281Y-88677865D01*
X225030515Y-88546635D01*
X224923365Y-88439485D01*
X224923364Y-88439484D01*
X224920403Y-88437212D01*
X224918538Y-88434658D01*
X224917618Y-88433738D01*
X224917761Y-88433594D01*
X224879202Y-88380783D01*
X224875050Y-88311037D01*
X224881100Y-88292615D01*
X224927597Y-88132573D01*
X224927598Y-88132567D01*
X224930499Y-88095701D01*
X224930500Y-88095694D01*
X224930500Y-86970096D01*
X224950185Y-86903057D01*
X224966814Y-86882420D01*
X226858506Y-84990727D01*
X226858511Y-84990724D01*
X226868714Y-84980520D01*
X226868716Y-84980520D01*
X226980520Y-84868716D01*
X227058355Y-84733901D01*
X227059577Y-84731785D01*
X227100500Y-84579057D01*
X227100500Y-84420943D01*
X227100500Y-84179765D01*
X227120185Y-84112726D01*
X227121398Y-84110874D01*
X227122316Y-84109501D01*
X227209394Y-83979179D01*
X227269737Y-83833497D01*
X227277150Y-83796230D01*
X227296231Y-83700308D01*
X227328616Y-83638397D01*
X227389332Y-83603823D01*
X227417848Y-83600500D01*
X234320234Y-83600500D01*
X234387273Y-83620185D01*
G37*
%TD.AperFunction*%
%TA.AperFunction,Conductor*%
G36*
X245963182Y-87102421D02*
G01*
X245996666Y-87163745D01*
X245999500Y-87190102D01*
X245999500Y-90541773D01*
X245979815Y-90608812D01*
X245927011Y-90654567D01*
X245857853Y-90664511D01*
X245794297Y-90635486D01*
X245757570Y-90580094D01*
X245751557Y-90561588D01*
X245655051Y-90372184D01*
X245655049Y-90372181D01*
X245655048Y-90372179D01*
X245530109Y-90200213D01*
X245379786Y-90049890D01*
X245207820Y-89924951D01*
X245018414Y-89828444D01*
X245018413Y-89828443D01*
X245018412Y-89828443D01*
X244816243Y-89762754D01*
X244816241Y-89762753D01*
X244816240Y-89762753D01*
X244654957Y-89737208D01*
X244606287Y-89729500D01*
X244393713Y-89729500D01*
X244345042Y-89737208D01*
X244183760Y-89762753D01*
X243981585Y-89828444D01*
X243792179Y-89924951D01*
X243620213Y-90049890D01*
X243469890Y-90200213D01*
X243344951Y-90372179D01*
X243248444Y-90561585D01*
X243248443Y-90561587D01*
X243248443Y-90561588D01*
X243182754Y-90763757D01*
X243149500Y-90973713D01*
X243149500Y-91186287D01*
X243159246Y-91247820D01*
X243160558Y-91256102D01*
X243151604Y-91325395D01*
X243106608Y-91378847D01*
X243039856Y-91399487D01*
X243038085Y-91399500D01*
X242005301Y-91399500D01*
X241938262Y-91379815D01*
X241892507Y-91327011D01*
X241887595Y-91314504D01*
X241859814Y-91230666D01*
X241767712Y-91081344D01*
X241643656Y-90957288D01*
X241494334Y-90865186D01*
X241327797Y-90810001D01*
X241327795Y-90810000D01*
X241225016Y-90799500D01*
X240849095Y-90799500D01*
X240782056Y-90779815D01*
X240736301Y-90727011D01*
X240726357Y-90657853D01*
X240755382Y-90594297D01*
X240761400Y-90587833D01*
X243962416Y-87386818D01*
X244023739Y-87353333D01*
X244050097Y-87350499D01*
X245397871Y-87350499D01*
X245397872Y-87350499D01*
X245457483Y-87344091D01*
X245592331Y-87293796D01*
X245707546Y-87207546D01*
X245776234Y-87115789D01*
X245832167Y-87073920D01*
X245901859Y-87068936D01*
X245963182Y-87102421D01*
G37*
%TD.AperFunction*%
%TA.AperFunction,Conductor*%
G36*
X200013164Y-86369504D02*
G01*
X200041419Y-86390655D01*
X200131285Y-86480521D01*
X200148608Y-86490522D01*
X200197125Y-86518533D01*
X200268215Y-86559577D01*
X200420942Y-86600500D01*
X200420943Y-86600500D01*
X201290903Y-86600500D01*
X201357942Y-86620185D01*
X201403697Y-86672989D01*
X201413641Y-86742147D01*
X201384616Y-86805703D01*
X201378584Y-86812181D01*
X198984522Y-89206241D01*
X198923199Y-89239726D01*
X198858523Y-89236491D01*
X198816245Y-89222754D01*
X198676272Y-89200584D01*
X198606287Y-89189500D01*
X198393713Y-89189500D01*
X198345042Y-89197208D01*
X198183760Y-89222753D01*
X197981585Y-89288444D01*
X197792179Y-89384951D01*
X197620213Y-89509890D01*
X197469890Y-89660213D01*
X197344951Y-89832179D01*
X197248445Y-90021582D01*
X197248443Y-90021587D01*
X197248443Y-90021588D01*
X197242429Y-90040094D01*
X197202992Y-90097768D01*
X197138633Y-90124965D01*
X197069787Y-90113050D01*
X197018312Y-90065805D01*
X197000500Y-90001773D01*
X197000500Y-86650102D01*
X197020185Y-86583063D01*
X197072989Y-86537308D01*
X197142147Y-86527364D01*
X197205703Y-86556389D01*
X197223762Y-86575786D01*
X197292454Y-86667546D01*
X197299725Y-86672989D01*
X197407664Y-86753793D01*
X197407671Y-86753797D01*
X197542517Y-86804091D01*
X197542516Y-86804091D01*
X197549444Y-86804835D01*
X197602127Y-86810500D01*
X199397872Y-86810499D01*
X199457483Y-86804091D01*
X199592331Y-86753796D01*
X199707546Y-86667546D01*
X199793796Y-86552331D01*
X199837556Y-86435003D01*
X199879427Y-86379070D01*
X199944891Y-86354653D01*
X200013164Y-86369504D01*
G37*
%TD.AperFunction*%
%TA.AperFunction,Conductor*%
G36*
X225649191Y-83620185D02*
G01*
X225694946Y-83672989D01*
X225703769Y-83700308D01*
X225730261Y-83833491D01*
X225730264Y-83833501D01*
X225790602Y-83979172D01*
X225790609Y-83979185D01*
X225869595Y-84097395D01*
X225877684Y-84109501D01*
X225878602Y-84110874D01*
X225899480Y-84177551D01*
X225899500Y-84179765D01*
X225899500Y-84199903D01*
X225879815Y-84266942D01*
X225863181Y-84287584D01*
X224242181Y-85908584D01*
X224180858Y-85942069D01*
X224111166Y-85937085D01*
X224055233Y-85895213D01*
X224030816Y-85829749D01*
X224030500Y-85820903D01*
X224030500Y-84802362D01*
X224036794Y-84763358D01*
X224041931Y-84747855D01*
X224089999Y-84602797D01*
X224100500Y-84500009D01*
X224100499Y-83724499D01*
X224120183Y-83657461D01*
X224172987Y-83611706D01*
X224224499Y-83600500D01*
X225582152Y-83600500D01*
X225649191Y-83620185D01*
G37*
%TD.AperFunction*%
%TA.AperFunction,Conductor*%
G36*
X197198810Y-65299734D02*
G01*
X197241861Y-65331962D01*
X197257668Y-65343795D01*
X197257671Y-65343797D01*
X197302618Y-65360561D01*
X197392517Y-65394091D01*
X197452127Y-65400500D01*
X197625499Y-65400499D01*
X197692538Y-65420183D01*
X197738293Y-65472987D01*
X197749499Y-65524499D01*
X197749499Y-65679054D01*
X197749498Y-65679054D01*
X197790423Y-65831785D01*
X197819000Y-65881280D01*
X197819001Y-65881284D01*
X197819002Y-65881284D01*
X197869479Y-65968714D01*
X197869481Y-65968717D01*
X197988349Y-66087585D01*
X197988355Y-66087590D01*
X198269481Y-66368716D01*
X198381284Y-66480519D01*
X198518215Y-66559577D01*
X198670943Y-66600501D01*
X198670946Y-66600501D01*
X198829054Y-66600501D01*
X198829057Y-66600501D01*
X198981785Y-66559577D01*
X199118716Y-66480519D01*
X199118723Y-66480511D01*
X199124440Y-66476126D01*
X199189608Y-66450930D01*
X199199929Y-66450500D01*
X203275500Y-66450500D01*
X203342539Y-66470185D01*
X203388294Y-66522989D01*
X203399500Y-66574500D01*
X203399500Y-70963330D01*
X203399499Y-70963348D01*
X203399499Y-71129054D01*
X203399498Y-71129054D01*
X203437194Y-71269737D01*
X203440423Y-71281785D01*
X203461458Y-71318218D01*
X203512086Y-71405909D01*
X203519479Y-71418714D01*
X203519481Y-71418717D01*
X203638349Y-71537585D01*
X203638355Y-71537590D01*
X203963181Y-71862416D01*
X203996666Y-71923739D01*
X203999500Y-71950097D01*
X203999500Y-72947870D01*
X203999501Y-72947876D01*
X204005908Y-73007483D01*
X204056202Y-73142328D01*
X204056206Y-73142335D01*
X204142452Y-73257544D01*
X204142455Y-73257547D01*
X204257664Y-73343793D01*
X204257671Y-73343797D01*
X204292840Y-73356914D01*
X204392517Y-73394091D01*
X204452127Y-73400500D01*
X204646699Y-73400499D01*
X204713738Y-73420183D01*
X204759493Y-73472987D01*
X204766471Y-73492397D01*
X204775073Y-73524499D01*
X204790424Y-73581789D01*
X204790425Y-73581790D01*
X204811455Y-73618214D01*
X204811456Y-73618216D01*
X204869475Y-73718709D01*
X204869481Y-73718717D01*
X204988349Y-73837585D01*
X204988355Y-73837590D01*
X205515139Y-74364374D01*
X205515149Y-74364385D01*
X205519479Y-74368715D01*
X205519480Y-74368716D01*
X205631284Y-74480520D01*
X205717886Y-74530519D01*
X205717888Y-74530521D01*
X205768211Y-74559575D01*
X205768215Y-74559577D01*
X205920943Y-74600501D01*
X205920946Y-74600501D01*
X206086653Y-74600501D01*
X206086669Y-74600500D01*
X211413331Y-74600500D01*
X211413347Y-74600501D01*
X211420943Y-74600501D01*
X211579054Y-74600501D01*
X211579057Y-74600501D01*
X211731785Y-74559577D01*
X211745420Y-74551704D01*
X211782091Y-74530533D01*
X211782102Y-74530525D01*
X211782114Y-74530519D01*
X211868716Y-74480520D01*
X211980520Y-74368716D01*
X211980520Y-74368714D01*
X211990724Y-74358511D01*
X211990728Y-74358506D01*
X212008506Y-74340728D01*
X212008511Y-74340724D01*
X212018714Y-74330520D01*
X212018716Y-74330520D01*
X212130520Y-74218716D01*
X212198771Y-74100501D01*
X212209577Y-74081785D01*
X212250501Y-73929057D01*
X212250501Y-73770943D01*
X212250501Y-73763348D01*
X212250500Y-73763330D01*
X212250500Y-73524499D01*
X212270185Y-73457460D01*
X212322989Y-73411705D01*
X212374500Y-73400499D01*
X212547871Y-73400499D01*
X212547872Y-73400499D01*
X212607483Y-73394091D01*
X212742331Y-73343796D01*
X212857546Y-73257546D01*
X212943796Y-73142331D01*
X212994091Y-73007483D01*
X213000500Y-72947873D01*
X213000499Y-71852128D01*
X212994091Y-71792517D01*
X212972079Y-71733501D01*
X212943797Y-71657671D01*
X212943793Y-71657664D01*
X212857547Y-71542455D01*
X212857544Y-71542452D01*
X212742335Y-71456206D01*
X212742328Y-71456202D01*
X212607482Y-71405908D01*
X212607483Y-71405908D01*
X212547883Y-71399501D01*
X212547881Y-71399500D01*
X212547873Y-71399500D01*
X212547864Y-71399500D01*
X210752129Y-71399500D01*
X210752123Y-71399501D01*
X210692516Y-71405908D01*
X210557671Y-71456202D01*
X210557664Y-71456206D01*
X210442455Y-71542452D01*
X210442452Y-71542455D01*
X210356206Y-71657664D01*
X210356202Y-71657671D01*
X210305908Y-71792517D01*
X210299501Y-71852116D01*
X210299501Y-71852123D01*
X210299500Y-71852135D01*
X210299500Y-72947870D01*
X210299501Y-72947876D01*
X210305908Y-73007483D01*
X210356202Y-73142328D01*
X210356204Y-73142331D01*
X210400265Y-73201189D01*
X210424683Y-73266652D01*
X210409832Y-73334925D01*
X210360427Y-73384331D01*
X210300999Y-73399500D01*
X206699001Y-73399500D01*
X206631962Y-73379815D01*
X206586207Y-73327011D01*
X206576263Y-73257853D01*
X206599734Y-73201189D01*
X206643796Y-73142331D01*
X206694091Y-73007483D01*
X206700500Y-72947873D01*
X206700499Y-71852128D01*
X206694091Y-71792517D01*
X206672079Y-71733501D01*
X206643797Y-71657671D01*
X206643793Y-71657664D01*
X206557547Y-71542455D01*
X206557544Y-71542452D01*
X206442335Y-71456206D01*
X206442328Y-71456202D01*
X206307482Y-71405908D01*
X206307483Y-71405908D01*
X206247883Y-71399501D01*
X206247881Y-71399500D01*
X206247873Y-71399500D01*
X206247865Y-71399500D01*
X205250097Y-71399500D01*
X205183058Y-71379815D01*
X205162416Y-71363181D01*
X204636819Y-70837584D01*
X204603334Y-70776261D01*
X204600500Y-70749903D01*
X204600500Y-66974500D01*
X204620185Y-66907461D01*
X204672989Y-66861706D01*
X204724500Y-66850500D01*
X208699903Y-66850500D01*
X208766942Y-66870185D01*
X208787584Y-66886819D01*
X208881284Y-66980519D01*
X209018215Y-67059577D01*
X209170943Y-67100501D01*
X209170946Y-67100501D01*
X209329054Y-67100501D01*
X209329057Y-67100501D01*
X209481785Y-67059577D01*
X209618716Y-66980519D01*
X209858509Y-66740724D01*
X209858514Y-66740721D01*
X209868714Y-66730520D01*
X209868716Y-66730520D01*
X209980520Y-66618716D01*
X210059577Y-66481784D01*
X210100108Y-66330520D01*
X210100500Y-66329058D01*
X210100500Y-66170943D01*
X210100500Y-65563311D01*
X210120185Y-65496272D01*
X210172989Y-65450517D01*
X210242147Y-65440573D01*
X210305703Y-65469598D01*
X210312181Y-65475630D01*
X212633318Y-67796767D01*
X212666803Y-67858090D01*
X212667254Y-67860256D01*
X212698154Y-68015598D01*
X212698157Y-68015608D01*
X212758495Y-68161279D01*
X212758502Y-68161292D01*
X212846103Y-68292395D01*
X212846106Y-68292399D01*
X212957600Y-68403893D01*
X212957604Y-68403896D01*
X213088707Y-68491497D01*
X213088720Y-68491504D01*
X213234391Y-68551842D01*
X213234396Y-68551844D01*
X213389046Y-68582606D01*
X213389049Y-68582607D01*
X213389051Y-68582607D01*
X213546737Y-68582607D01*
X213546738Y-68582606D01*
X213701390Y-68551844D01*
X213847072Y-68491501D01*
X213959985Y-68416054D01*
X214026661Y-68395177D01*
X214094041Y-68413661D01*
X214116556Y-68431476D01*
X216326843Y-70641763D01*
X216360328Y-70703086D01*
X216355344Y-70772778D01*
X216313472Y-70828711D01*
X216308053Y-70832546D01*
X216239711Y-70878210D01*
X216239707Y-70878213D01*
X216128213Y-70989707D01*
X216128210Y-70989711D01*
X216040609Y-71120814D01*
X216040602Y-71120827D01*
X215980264Y-71266498D01*
X215980261Y-71266510D01*
X215949500Y-71421153D01*
X215949500Y-71578846D01*
X215980261Y-71733489D01*
X215980264Y-71733501D01*
X216040602Y-71879172D01*
X216040609Y-71879185D01*
X216092607Y-71957005D01*
X216113485Y-72023683D01*
X216095000Y-72091063D01*
X216077186Y-72113577D01*
X202869398Y-85321365D01*
X202808075Y-85354850D01*
X202738383Y-85349866D01*
X202712826Y-85336786D01*
X202599920Y-85261344D01*
X202599907Y-85261337D01*
X202454236Y-85200999D01*
X202454224Y-85200996D01*
X202299580Y-85170235D01*
X202299577Y-85170235D01*
X202141893Y-85170235D01*
X202141890Y-85170235D01*
X201987245Y-85200996D01*
X201987233Y-85200999D01*
X201841562Y-85261337D01*
X201841549Y-85261344D01*
X201710446Y-85348945D01*
X201710442Y-85348948D01*
X201696210Y-85363181D01*
X201634887Y-85396666D01*
X201608529Y-85399500D01*
X200800097Y-85399500D01*
X200733058Y-85379815D01*
X200712416Y-85363181D01*
X200447590Y-85098355D01*
X200447588Y-85098352D01*
X200328717Y-84979481D01*
X200328712Y-84979477D01*
X200201938Y-84906285D01*
X200201937Y-84906284D01*
X200191787Y-84900423D01*
X200130693Y-84884053D01*
X200039057Y-84859499D01*
X199974499Y-84859499D01*
X199907460Y-84839814D01*
X199861705Y-84787010D01*
X199850499Y-84735499D01*
X199850499Y-84562129D01*
X199850498Y-84562123D01*
X199846561Y-84525500D01*
X199844091Y-84502517D01*
X199843159Y-84500019D01*
X199793797Y-84367671D01*
X199793793Y-84367664D01*
X199707547Y-84252455D01*
X199707544Y-84252452D01*
X199592335Y-84166206D01*
X199592328Y-84166202D01*
X199457482Y-84115908D01*
X199457483Y-84115908D01*
X199397883Y-84109501D01*
X199397881Y-84109500D01*
X199397873Y-84109500D01*
X199397864Y-84109500D01*
X197602129Y-84109500D01*
X197602123Y-84109501D01*
X197542516Y-84115908D01*
X197407671Y-84166202D01*
X197407664Y-84166206D01*
X197292455Y-84252452D01*
X197292452Y-84252455D01*
X197223766Y-84344208D01*
X197167832Y-84386079D01*
X197098141Y-84391063D01*
X197036818Y-84357577D01*
X197003334Y-84296254D01*
X197000500Y-84269897D01*
X197000500Y-65399001D01*
X197020185Y-65331962D01*
X197072989Y-65286207D01*
X197142147Y-65276263D01*
X197198810Y-65299734D01*
G37*
%TD.AperFunction*%
%TA.AperFunction,Conductor*%
G36*
X214518834Y-76258443D02*
G01*
X214574767Y-76300315D01*
X214599184Y-76365779D01*
X214599500Y-76374624D01*
X214599500Y-76525000D01*
X214599501Y-76525019D01*
X214610000Y-76627796D01*
X214610001Y-76627799D01*
X214655962Y-76766498D01*
X214665186Y-76794334D01*
X214757288Y-76943656D01*
X214881344Y-77067712D01*
X215030666Y-77159814D01*
X215197203Y-77214999D01*
X215197208Y-77214999D01*
X215200890Y-77215788D01*
X215202949Y-77216903D01*
X215203630Y-77217129D01*
X215203589Y-77217250D01*
X215262327Y-77249064D01*
X215262626Y-77249362D01*
X218238349Y-80225086D01*
X218238355Y-80225091D01*
X219863181Y-81849917D01*
X219896666Y-81911240D01*
X219899500Y-81937598D01*
X219899500Y-81949901D01*
X219879815Y-82016940D01*
X219863181Y-82037582D01*
X219856286Y-82044477D01*
X219856284Y-82044480D01*
X219744481Y-82156282D01*
X219744475Y-82156290D01*
X219701769Y-82230261D01*
X219701769Y-82230262D01*
X219665423Y-82293214D01*
X219665423Y-82293215D01*
X219624499Y-82445943D01*
X219624499Y-82445945D01*
X219624499Y-82614046D01*
X219624500Y-82614059D01*
X219624500Y-84790244D01*
X219604815Y-84857283D01*
X219552011Y-84903038D01*
X219500500Y-84914244D01*
X219150943Y-84914244D01*
X218998216Y-84955167D01*
X218998209Y-84955170D01*
X218861290Y-85034219D01*
X218861282Y-85034225D01*
X218749482Y-85146025D01*
X218749471Y-85146040D01*
X218748630Y-85147497D01*
X218747599Y-85148478D01*
X218744532Y-85152477D01*
X218743908Y-85151998D01*
X218698057Y-85195707D01*
X218629449Y-85208921D01*
X218617061Y-85207102D01*
X218600208Y-85203750D01*
X218578842Y-85199500D01*
X218461230Y-85199500D01*
X218394191Y-85179815D01*
X218348436Y-85127011D01*
X218338492Y-85057853D01*
X218367517Y-84994297D01*
X218373549Y-84987819D01*
X218407200Y-84954168D01*
X218442712Y-84918656D01*
X218534814Y-84769334D01*
X218589999Y-84602797D01*
X218600500Y-84500009D01*
X218600499Y-83499992D01*
X218599637Y-83491557D01*
X218589999Y-83397203D01*
X218589998Y-83397200D01*
X218568871Y-83333443D01*
X218534814Y-83230666D01*
X218442712Y-83081344D01*
X218318656Y-82957288D01*
X218169334Y-82865186D01*
X218002797Y-82810001D01*
X218002794Y-82810000D01*
X217911897Y-82800714D01*
X217847205Y-82774317D01*
X217807054Y-82717136D01*
X217800500Y-82677356D01*
X217800500Y-82671155D01*
X217800499Y-82671153D01*
X217789142Y-82614059D01*
X217769737Y-82516503D01*
X217769735Y-82516498D01*
X217709397Y-82370827D01*
X217709390Y-82370814D01*
X217621789Y-82239711D01*
X217621786Y-82239707D01*
X217510292Y-82128213D01*
X217510288Y-82128210D01*
X217379185Y-82040609D01*
X217379172Y-82040602D01*
X217233501Y-81980264D01*
X217233489Y-81980261D01*
X217078845Y-81949500D01*
X217078842Y-81949500D01*
X216921158Y-81949500D01*
X216921155Y-81949500D01*
X216766510Y-81980261D01*
X216766498Y-81980264D01*
X216620827Y-82040602D01*
X216620814Y-82040609D01*
X216489711Y-82128210D01*
X216489707Y-82128213D01*
X216378213Y-82239707D01*
X216378210Y-82239711D01*
X216290609Y-82370814D01*
X216290602Y-82370827D01*
X216230264Y-82516498D01*
X216230261Y-82516510D01*
X216199500Y-82671153D01*
X216199500Y-82828846D01*
X216230261Y-82983489D01*
X216230264Y-82983501D01*
X216290602Y-83129172D01*
X216290609Y-83129185D01*
X216378601Y-83260873D01*
X216399479Y-83327550D01*
X216399499Y-83329764D01*
X216399499Y-83491554D01*
X216399498Y-83491554D01*
X216438744Y-83638021D01*
X216440423Y-83644285D01*
X216457310Y-83673534D01*
X216457311Y-83673536D01*
X216457312Y-83673536D01*
X216512704Y-83769480D01*
X216519479Y-83781214D01*
X216519481Y-83781217D01*
X216538181Y-83799917D01*
X216571666Y-83861240D01*
X216574500Y-83887598D01*
X216574500Y-84500001D01*
X216574501Y-84500019D01*
X216585000Y-84602796D01*
X216585001Y-84602799D01*
X216640185Y-84769331D01*
X216640187Y-84769336D01*
X216675069Y-84825888D01*
X216732288Y-84918656D01*
X216856344Y-85042712D01*
X217005666Y-85134814D01*
X217075016Y-85157794D01*
X217132461Y-85197567D01*
X217159284Y-85262083D01*
X217146969Y-85330858D01*
X217099426Y-85382058D01*
X217036012Y-85399500D01*
X207829766Y-85399500D01*
X207762727Y-85379815D01*
X207760875Y-85378602D01*
X207629185Y-85290609D01*
X207629172Y-85290602D01*
X207483501Y-85230264D01*
X207483489Y-85230261D01*
X207328845Y-85199500D01*
X207328842Y-85199500D01*
X207224500Y-85199500D01*
X207157461Y-85179815D01*
X207111706Y-85127011D01*
X207100500Y-85075500D01*
X207100500Y-83625626D01*
X207120185Y-83558587D01*
X207136814Y-83537950D01*
X214387821Y-76286942D01*
X214449142Y-76253459D01*
X214518834Y-76258443D01*
G37*
%TD.AperFunction*%
%TA.AperFunction,Conductor*%
G36*
X227968333Y-77583414D02*
G01*
X228012680Y-77611915D01*
X231665425Y-81264660D01*
X231698910Y-81325983D01*
X231699361Y-81328149D01*
X231730261Y-81483491D01*
X231730264Y-81483501D01*
X231790602Y-81629172D01*
X231790609Y-81629185D01*
X231878210Y-81760288D01*
X231878213Y-81760292D01*
X231905740Y-81787819D01*
X231939225Y-81849142D01*
X231934241Y-81918834D01*
X231892369Y-81974767D01*
X231826905Y-81999184D01*
X231818059Y-81999500D01*
X228595548Y-81999500D01*
X228528509Y-81979815D01*
X228482754Y-81927011D01*
X228480987Y-81922952D01*
X228463119Y-81879815D01*
X228459394Y-81870821D01*
X228459392Y-81870819D01*
X228459392Y-81870817D01*
X228371789Y-81739711D01*
X228371786Y-81739707D01*
X228260292Y-81628213D01*
X228260288Y-81628210D01*
X228129185Y-81540609D01*
X228129172Y-81540602D01*
X227983501Y-81480264D01*
X227983489Y-81480261D01*
X227828845Y-81449500D01*
X227828842Y-81449500D01*
X227671158Y-81449500D01*
X227671155Y-81449500D01*
X227516510Y-81480261D01*
X227516498Y-81480264D01*
X227370827Y-81540602D01*
X227370814Y-81540609D01*
X227239125Y-81628602D01*
X227172447Y-81649480D01*
X227170234Y-81649500D01*
X227167848Y-81649500D01*
X227100809Y-81629815D01*
X227055054Y-81577011D01*
X227046231Y-81549692D01*
X227019738Y-81416508D01*
X227019737Y-81416507D01*
X227019737Y-81416503D01*
X226982243Y-81325983D01*
X226959397Y-81270827D01*
X226959390Y-81270814D01*
X226871789Y-81139711D01*
X226871786Y-81139707D01*
X226760292Y-81028213D01*
X226760288Y-81028210D01*
X226629185Y-80940609D01*
X226629172Y-80940602D01*
X226483501Y-80880264D01*
X226483489Y-80880261D01*
X226328845Y-80849500D01*
X226328842Y-80849500D01*
X226171158Y-80849500D01*
X226171155Y-80849500D01*
X226016510Y-80880261D01*
X226016498Y-80880264D01*
X225870827Y-80940602D01*
X225870814Y-80940609D01*
X225739711Y-81028210D01*
X225739707Y-81028213D01*
X225628213Y-81139707D01*
X225628207Y-81139715D01*
X225591675Y-81194390D01*
X225538063Y-81239196D01*
X225488573Y-81249500D01*
X223807309Y-81249500D01*
X223740270Y-81229815D01*
X223694515Y-81177011D01*
X223684571Y-81107853D01*
X223713596Y-81044297D01*
X223719628Y-81037819D01*
X223805576Y-80951870D01*
X223805581Y-80951865D01*
X223889244Y-80810398D01*
X223935098Y-80652569D01*
X223938000Y-80615694D01*
X223938000Y-80184306D01*
X223935098Y-80147431D01*
X223921580Y-80100903D01*
X223889245Y-79989606D01*
X223889244Y-79989603D01*
X223889244Y-79989602D01*
X223805581Y-79848135D01*
X223805579Y-79848133D01*
X223805576Y-79848129D01*
X223689370Y-79731923D01*
X223689362Y-79731917D01*
X223547896Y-79648255D01*
X223547893Y-79648254D01*
X223390073Y-79602402D01*
X223390067Y-79602401D01*
X223353201Y-79599500D01*
X223353194Y-79599500D01*
X222196806Y-79599500D01*
X222196798Y-79599500D01*
X222159932Y-79602401D01*
X222159926Y-79602402D01*
X222002106Y-79648254D01*
X222002103Y-79648255D01*
X221860637Y-79731917D01*
X221860629Y-79731923D01*
X221744423Y-79848129D01*
X221744414Y-79848140D01*
X221744229Y-79848455D01*
X221744019Y-79848650D01*
X221739639Y-79854298D01*
X221738727Y-79853591D01*
X221693157Y-79896136D01*
X221624415Y-79908637D01*
X221559827Y-79881988D01*
X221535643Y-79854078D01*
X221535361Y-79854298D01*
X221531323Y-79849092D01*
X221530771Y-79848455D01*
X221530585Y-79848140D01*
X221530576Y-79848129D01*
X221414370Y-79731923D01*
X221414362Y-79731917D01*
X221272896Y-79648255D01*
X221272893Y-79648254D01*
X221115073Y-79602402D01*
X221115067Y-79602401D01*
X221078201Y-79599500D01*
X221078194Y-79599500D01*
X219921806Y-79599500D01*
X219921797Y-79599500D01*
X219893734Y-79601709D01*
X219825357Y-79587344D01*
X219775600Y-79538292D01*
X219760262Y-79470127D01*
X219784212Y-79404490D01*
X219796325Y-79390410D01*
X219849916Y-79336819D01*
X219911239Y-79303334D01*
X219937597Y-79300500D01*
X221078186Y-79300500D01*
X221078194Y-79300500D01*
X221115069Y-79297598D01*
X221115071Y-79297597D01*
X221115073Y-79297597D01*
X221156691Y-79285505D01*
X221272898Y-79251744D01*
X221414365Y-79168081D01*
X221530581Y-79051865D01*
X221530767Y-79051549D01*
X221530977Y-79051353D01*
X221535361Y-79045702D01*
X221536272Y-79046409D01*
X221581836Y-79003866D01*
X221650577Y-78991362D01*
X221715167Y-79018006D01*
X221739355Y-79045921D01*
X221739639Y-79045702D01*
X221743679Y-79050911D01*
X221744232Y-79051548D01*
X221744419Y-79051865D01*
X221744421Y-79051867D01*
X221744423Y-79051870D01*
X221860629Y-79168076D01*
X221860633Y-79168079D01*
X221860635Y-79168081D01*
X222002102Y-79251744D01*
X222043724Y-79263836D01*
X222159926Y-79297597D01*
X222159929Y-79297597D01*
X222159931Y-79297598D01*
X222196806Y-79300500D01*
X222196814Y-79300500D01*
X223353186Y-79300500D01*
X223353194Y-79300500D01*
X223390069Y-79297598D01*
X223390071Y-79297597D01*
X223390073Y-79297597D01*
X223431691Y-79285505D01*
X223547898Y-79251744D01*
X223689365Y-79168081D01*
X223720626Y-79136820D01*
X223781948Y-79103334D01*
X223808308Y-79100500D01*
X223913331Y-79100500D01*
X223913347Y-79100501D01*
X223920943Y-79100501D01*
X224086653Y-79100501D01*
X224086669Y-79100500D01*
X224475501Y-79100500D01*
X224542540Y-79120185D01*
X224588295Y-79172989D01*
X224599501Y-79224500D01*
X224599501Y-79525018D01*
X224610000Y-79627796D01*
X224610001Y-79627799D01*
X224644505Y-79731923D01*
X224665186Y-79794334D01*
X224757288Y-79943656D01*
X224881344Y-80067712D01*
X225030666Y-80159814D01*
X225197203Y-80214999D01*
X225299991Y-80225500D01*
X225900008Y-80225499D01*
X225900016Y-80225498D01*
X225900019Y-80225498D01*
X225956302Y-80219748D01*
X226002797Y-80214999D01*
X226169334Y-80159814D01*
X226318656Y-80067712D01*
X226442712Y-79943656D01*
X226534814Y-79794334D01*
X226589999Y-79627797D01*
X226600500Y-79525009D01*
X226600499Y-78900095D01*
X226620183Y-78833057D01*
X226636813Y-78812420D01*
X227837322Y-77611912D01*
X227898641Y-77578430D01*
X227968333Y-77583414D01*
G37*
%TD.AperFunction*%
%TA.AperFunction,Conductor*%
G36*
X231934831Y-72120920D02*
G01*
X231955474Y-72137555D01*
X231989707Y-72171789D01*
X231989711Y-72171792D01*
X232120814Y-72259393D01*
X232120827Y-72259400D01*
X232250028Y-72312916D01*
X232266503Y-72319740D01*
X232369276Y-72340183D01*
X232399691Y-72346233D01*
X232461602Y-72378618D01*
X232496176Y-72439333D01*
X232499500Y-72467850D01*
X232499500Y-80100903D01*
X232479815Y-80167942D01*
X232427011Y-80213697D01*
X232357853Y-80223641D01*
X232294297Y-80194616D01*
X232287819Y-80188584D01*
X228487590Y-76388355D01*
X228487588Y-76388352D01*
X228368717Y-76269481D01*
X228368716Y-76269480D01*
X228281904Y-76219360D01*
X228281904Y-76219359D01*
X228281900Y-76219358D01*
X228231785Y-76190423D01*
X228079057Y-76149499D01*
X227929058Y-76149499D01*
X227770943Y-76149499D01*
X227702469Y-76167847D01*
X227618214Y-76190423D01*
X227618209Y-76190426D01*
X227481290Y-76269475D01*
X227481282Y-76269481D01*
X226412181Y-77338583D01*
X226350858Y-77372068D01*
X226281166Y-77367084D01*
X226225233Y-77325212D01*
X226200816Y-77259748D01*
X226200500Y-77250902D01*
X226200500Y-73970945D01*
X226200500Y-73970943D01*
X226159577Y-73818216D01*
X226102132Y-73718717D01*
X226080524Y-73681290D01*
X226080521Y-73681287D01*
X226080520Y-73681284D01*
X226080517Y-73681281D01*
X226076125Y-73675557D01*
X226050929Y-73610388D01*
X226050499Y-73600068D01*
X226050499Y-72974998D01*
X226050498Y-72974981D01*
X226039999Y-72872203D01*
X226039998Y-72872200D01*
X226001439Y-72755837D01*
X225984814Y-72705666D01*
X225892712Y-72556344D01*
X225768656Y-72432288D01*
X225619334Y-72340186D01*
X225619333Y-72340185D01*
X225619329Y-72340183D01*
X225613827Y-72337618D01*
X225561387Y-72291447D01*
X225542233Y-72224254D01*
X225562447Y-72157372D01*
X225615611Y-72112037D01*
X225666229Y-72101235D01*
X231867792Y-72101235D01*
X231934831Y-72120920D01*
G37*
%TD.AperFunction*%
%TA.AperFunction,Conductor*%
G36*
X218251591Y-72583684D02*
G01*
X218298020Y-72612940D01*
X221299454Y-75614374D01*
X221299464Y-75614385D01*
X221303794Y-75618715D01*
X221303795Y-75618716D01*
X221415599Y-75730520D01*
X221480891Y-75768216D01*
X221552530Y-75809577D01*
X221705258Y-75850500D01*
X221863372Y-75850500D01*
X223870234Y-75850500D01*
X223937273Y-75870185D01*
X223939125Y-75871398D01*
X224070814Y-75959390D01*
X224070827Y-75959397D01*
X224216498Y-76019735D01*
X224216503Y-76019737D01*
X224326987Y-76041713D01*
X224349691Y-76046230D01*
X224411602Y-76078615D01*
X224446176Y-76139330D01*
X224449500Y-76167847D01*
X224449500Y-77149902D01*
X224429815Y-77216941D01*
X224413181Y-77237583D01*
X223838740Y-77812023D01*
X223777417Y-77845508D01*
X223707725Y-77840524D01*
X223687939Y-77831075D01*
X223630293Y-77796984D01*
X223547898Y-77748256D01*
X223547894Y-77748255D01*
X223547893Y-77748254D01*
X223390073Y-77702402D01*
X223390067Y-77702401D01*
X223353201Y-77699500D01*
X223353194Y-77699500D01*
X222196806Y-77699500D01*
X222196798Y-77699500D01*
X222159932Y-77702401D01*
X222159926Y-77702402D01*
X222002106Y-77748254D01*
X222002103Y-77748255D01*
X221860637Y-77831917D01*
X221860629Y-77831923D01*
X221744423Y-77948129D01*
X221744414Y-77948140D01*
X221744229Y-77948455D01*
X221744019Y-77948650D01*
X221739639Y-77954298D01*
X221738727Y-77953591D01*
X221693157Y-77996136D01*
X221624415Y-78008637D01*
X221559827Y-77981988D01*
X221535643Y-77954078D01*
X221535361Y-77954298D01*
X221531323Y-77949092D01*
X221530771Y-77948455D01*
X221530585Y-77948140D01*
X221530576Y-77948129D01*
X221414370Y-77831923D01*
X221414362Y-77831917D01*
X221272896Y-77748255D01*
X221272895Y-77748254D01*
X221189904Y-77724143D01*
X221131019Y-77686536D01*
X221101813Y-77623064D01*
X221100500Y-77605067D01*
X221100500Y-77579765D01*
X221120185Y-77512726D01*
X221121398Y-77510874D01*
X221209390Y-77379185D01*
X221209390Y-77379184D01*
X221209394Y-77379179D01*
X221212340Y-77372068D01*
X221231748Y-77325212D01*
X221269737Y-77233497D01*
X221300500Y-77078842D01*
X221300500Y-76921158D01*
X221300500Y-76921155D01*
X221300499Y-76921153D01*
X221269737Y-76766503D01*
X221260136Y-76743323D01*
X221209397Y-76620827D01*
X221209390Y-76620814D01*
X221121789Y-76489711D01*
X221121786Y-76489707D01*
X221010292Y-76378213D01*
X221010288Y-76378210D01*
X220879185Y-76290609D01*
X220879172Y-76290602D01*
X220733501Y-76230264D01*
X220733489Y-76230261D01*
X220578845Y-76199500D01*
X220578842Y-76199500D01*
X220421158Y-76199500D01*
X220421155Y-76199500D01*
X220266510Y-76230261D01*
X220266498Y-76230264D01*
X220120827Y-76290602D01*
X220120814Y-76290609D01*
X219989711Y-76378210D01*
X219989707Y-76378213D01*
X219878213Y-76489707D01*
X219878210Y-76489711D01*
X219790609Y-76620814D01*
X219790602Y-76620827D01*
X219730264Y-76766498D01*
X219730261Y-76766510D01*
X219699500Y-76921153D01*
X219699500Y-77078846D01*
X219730261Y-77233489D01*
X219730264Y-77233501D01*
X219790602Y-77379172D01*
X219790609Y-77379185D01*
X219878602Y-77510874D01*
X219899480Y-77577551D01*
X219899500Y-77579765D01*
X219899500Y-77605067D01*
X219879815Y-77672106D01*
X219827011Y-77717861D01*
X219810096Y-77724143D01*
X219727104Y-77748254D01*
X219727103Y-77748255D01*
X219585637Y-77831917D01*
X219585629Y-77831923D01*
X219469423Y-77948129D01*
X219469416Y-77948138D01*
X219385752Y-78089607D01*
X219385299Y-78090655D01*
X219384019Y-78092536D01*
X219381785Y-78096316D01*
X219381547Y-78096175D01*
X219359183Y-78129080D01*
X218687680Y-78800583D01*
X218626357Y-78834068D01*
X218556665Y-78829084D01*
X218512318Y-78800583D01*
X216581742Y-76870008D01*
X216548257Y-76808685D01*
X216551717Y-76743323D01*
X216589999Y-76627797D01*
X216600500Y-76525009D01*
X216600499Y-75474992D01*
X216589999Y-75372203D01*
X216534814Y-75205666D01*
X216442712Y-75056344D01*
X216318656Y-74932288D01*
X216169334Y-74840186D01*
X216108723Y-74820101D01*
X216051280Y-74780329D01*
X216024457Y-74715813D01*
X216036772Y-74647037D01*
X216060045Y-74614718D01*
X217317852Y-73356912D01*
X217379173Y-73323429D01*
X217381340Y-73322978D01*
X217439275Y-73311453D01*
X217536687Y-73292077D01*
X217682369Y-73231734D01*
X217813479Y-73144129D01*
X217924979Y-73032629D01*
X218012584Y-72901519D01*
X218072927Y-72755837D01*
X218088722Y-72676428D01*
X218121106Y-72614519D01*
X218181822Y-72579945D01*
X218251591Y-72583684D01*
G37*
%TD.AperFunction*%
%TA.AperFunction,Conductor*%
G36*
X232150145Y-50770185D02*
G01*
X232195900Y-50822989D01*
X232205844Y-50892147D01*
X232176819Y-50955703D01*
X232157418Y-50973766D01*
X232132452Y-50992455D01*
X232046206Y-51107664D01*
X232046202Y-51107671D01*
X231995908Y-51242517D01*
X231992470Y-51274500D01*
X231989501Y-51302123D01*
X231989500Y-51302135D01*
X231989500Y-52297870D01*
X231989501Y-52297876D01*
X231995908Y-52357483D01*
X232049303Y-52500641D01*
X232047575Y-52501285D01*
X232060095Y-52558853D01*
X232048310Y-52598988D01*
X232049303Y-52599359D01*
X231995908Y-52742517D01*
X231990738Y-52790609D01*
X231989501Y-52802123D01*
X231989500Y-52802135D01*
X231989500Y-53797870D01*
X231989501Y-53797876D01*
X231995908Y-53857483D01*
X232049303Y-54000641D01*
X232047575Y-54001285D01*
X232060095Y-54058853D01*
X232048310Y-54098988D01*
X232049303Y-54099359D01*
X231995908Y-54242517D01*
X231989501Y-54302116D01*
X231989501Y-54302123D01*
X231989500Y-54302135D01*
X231989500Y-55297870D01*
X231989501Y-55297876D01*
X231995908Y-55357483D01*
X232049303Y-55500641D01*
X232047575Y-55501285D01*
X232060095Y-55558853D01*
X232048310Y-55598988D01*
X232049303Y-55599359D01*
X231995908Y-55742517D01*
X231989501Y-55802116D01*
X231989501Y-55802123D01*
X231989500Y-55802135D01*
X231989500Y-56797870D01*
X231989501Y-56797876D01*
X231995908Y-56857483D01*
X232049303Y-57000641D01*
X232047575Y-57001285D01*
X232060095Y-57058853D01*
X232048310Y-57098988D01*
X232049303Y-57099359D01*
X231995908Y-57242517D01*
X231989501Y-57302116D01*
X231989501Y-57302123D01*
X231989500Y-57302135D01*
X231989500Y-58297870D01*
X231989501Y-58297876D01*
X231995908Y-58357483D01*
X232049303Y-58500641D01*
X232047575Y-58501285D01*
X232060095Y-58558853D01*
X232048310Y-58598988D01*
X232049303Y-58599359D01*
X231995908Y-58742517D01*
X231989672Y-58800523D01*
X231989501Y-58802123D01*
X231989500Y-58802135D01*
X231989500Y-59797870D01*
X231989501Y-59797876D01*
X231995908Y-59857483D01*
X232049303Y-60000641D01*
X232047575Y-60001285D01*
X232060095Y-60058853D01*
X232048310Y-60098988D01*
X232049303Y-60099359D01*
X231995908Y-60242517D01*
X231991573Y-60282842D01*
X231989501Y-60302123D01*
X231989500Y-60302135D01*
X231989500Y-61297870D01*
X231989501Y-61297876D01*
X231995908Y-61357483D01*
X232049303Y-61500641D01*
X232047575Y-61501285D01*
X232060095Y-61558853D01*
X232048310Y-61598988D01*
X232049303Y-61599359D01*
X231995908Y-61742517D01*
X231990738Y-61790611D01*
X231989501Y-61802123D01*
X231989500Y-61802135D01*
X231989500Y-62797870D01*
X231989501Y-62797876D01*
X231995908Y-62857483D01*
X232049303Y-63000641D01*
X232047575Y-63001285D01*
X232060095Y-63058853D01*
X232048310Y-63098988D01*
X232049303Y-63099359D01*
X231995908Y-63242517D01*
X231991186Y-63286445D01*
X231989501Y-63302123D01*
X231989500Y-63302135D01*
X231989500Y-64297870D01*
X231989501Y-64297876D01*
X231995908Y-64357483D01*
X232046202Y-64492328D01*
X232046206Y-64492335D01*
X232132452Y-64607544D01*
X232132455Y-64607547D01*
X232247664Y-64693793D01*
X232247671Y-64693797D01*
X232265643Y-64700500D01*
X232382517Y-64744091D01*
X232438048Y-64750061D01*
X232502596Y-64776798D01*
X232542444Y-64834191D01*
X232544938Y-64904016D01*
X232541294Y-64914965D01*
X232540423Y-64918214D01*
X232540423Y-64918215D01*
X232499499Y-65070943D01*
X232499499Y-65070945D01*
X232499499Y-65239046D01*
X232499500Y-65239059D01*
X232499500Y-69832152D01*
X232479815Y-69899191D01*
X232427011Y-69944946D01*
X232399692Y-69953769D01*
X232266508Y-69980261D01*
X232266498Y-69980264D01*
X232120827Y-70040602D01*
X232120814Y-70040609D01*
X231989125Y-70128602D01*
X231922447Y-70149480D01*
X231920234Y-70149500D01*
X226420940Y-70149500D01*
X226380019Y-70160464D01*
X226380019Y-70160465D01*
X226342751Y-70170451D01*
X226268214Y-70190423D01*
X226268209Y-70190426D01*
X226131290Y-70269475D01*
X226124839Y-70274426D01*
X226122701Y-70271640D01*
X226075525Y-70297401D01*
X226049167Y-70300235D01*
X219429031Y-70300235D01*
X219361992Y-70280550D01*
X219360140Y-70279337D01*
X219228450Y-70191344D01*
X219228437Y-70191337D01*
X219082766Y-70130999D01*
X219082754Y-70130996D01*
X218928110Y-70100235D01*
X218928107Y-70100235D01*
X218770423Y-70100235D01*
X218770420Y-70100235D01*
X218615775Y-70130996D01*
X218615763Y-70130999D01*
X218470092Y-70191337D01*
X218470081Y-70191343D01*
X218357171Y-70266787D01*
X218290494Y-70287664D01*
X218223113Y-70269179D01*
X218200600Y-70251365D01*
X215498634Y-67549399D01*
X215465149Y-67488076D01*
X215470133Y-67418384D01*
X215483213Y-67392827D01*
X215558655Y-67279920D01*
X215558655Y-67279919D01*
X215558659Y-67279914D01*
X215619002Y-67134232D01*
X215649765Y-66979577D01*
X215649765Y-66821893D01*
X215649765Y-66821890D01*
X215649764Y-66821888D01*
X215631841Y-66731785D01*
X215619002Y-66667238D01*
X215584294Y-66583444D01*
X215558662Y-66521562D01*
X215558655Y-66521549D01*
X215471054Y-66390446D01*
X215471051Y-66390442D01*
X215359557Y-66278948D01*
X215359553Y-66278945D01*
X215228450Y-66191344D01*
X215228437Y-66191337D01*
X215082766Y-66130999D01*
X215082756Y-66130996D01*
X214927414Y-66100096D01*
X214865503Y-66067711D01*
X214863925Y-66066160D01*
X214636819Y-65839054D01*
X214603334Y-65777731D01*
X214600500Y-65751373D01*
X214600500Y-63317499D01*
X214620185Y-63250460D01*
X214672989Y-63204705D01*
X214742147Y-63194761D01*
X214767833Y-63201317D01*
X214882517Y-63244091D01*
X214882516Y-63244091D01*
X214889444Y-63244835D01*
X214942127Y-63250500D01*
X216537872Y-63250499D01*
X216597483Y-63244091D01*
X216732331Y-63193796D01*
X216847546Y-63107546D01*
X216933796Y-62992331D01*
X216984091Y-62857483D01*
X216990500Y-62797873D01*
X216990499Y-61802128D01*
X216984091Y-61742517D01*
X216933796Y-61607669D01*
X216933794Y-61607666D01*
X216930696Y-61599360D01*
X216932426Y-61598714D01*
X216919902Y-61541163D01*
X216931691Y-61501011D01*
X216930696Y-61500640D01*
X216933794Y-61492333D01*
X216933796Y-61492331D01*
X216984091Y-61357483D01*
X216990500Y-61297873D01*
X216990499Y-60302128D01*
X216984091Y-60242517D01*
X216933796Y-60107669D01*
X216933794Y-60107666D01*
X216930696Y-60099360D01*
X216932426Y-60098714D01*
X216919902Y-60041163D01*
X216931691Y-60001011D01*
X216930696Y-60000640D01*
X216933794Y-59992333D01*
X216933796Y-59992331D01*
X216984091Y-59857483D01*
X216990500Y-59797873D01*
X216990499Y-58802128D01*
X216984091Y-58742517D01*
X216933796Y-58607669D01*
X216933794Y-58607666D01*
X216930696Y-58599360D01*
X216932426Y-58598714D01*
X216919902Y-58541163D01*
X216931691Y-58501011D01*
X216930696Y-58500640D01*
X216933794Y-58492333D01*
X216933796Y-58492331D01*
X216984091Y-58357483D01*
X216990500Y-58297873D01*
X216990499Y-57302128D01*
X216984091Y-57242517D01*
X216933796Y-57107669D01*
X216933794Y-57107666D01*
X216930696Y-57099360D01*
X216932426Y-57098714D01*
X216919902Y-57041163D01*
X216931691Y-57001011D01*
X216930696Y-57000640D01*
X216933794Y-56992333D01*
X216933796Y-56992331D01*
X216984091Y-56857483D01*
X216990500Y-56797873D01*
X216990499Y-55802128D01*
X216984091Y-55742517D01*
X216933796Y-55607669D01*
X216933794Y-55607666D01*
X216930696Y-55599360D01*
X216932426Y-55598714D01*
X216919902Y-55541163D01*
X216931691Y-55501011D01*
X216930696Y-55500640D01*
X216933794Y-55492333D01*
X216933796Y-55492331D01*
X216984091Y-55357483D01*
X216990500Y-55297873D01*
X216990499Y-54302128D01*
X216984091Y-54242517D01*
X216933796Y-54107669D01*
X216933794Y-54107666D01*
X216930696Y-54099360D01*
X216932426Y-54098714D01*
X216919902Y-54041163D01*
X216931691Y-54001011D01*
X216930696Y-54000640D01*
X216933794Y-53992333D01*
X216933796Y-53992331D01*
X216984091Y-53857483D01*
X216990500Y-53797873D01*
X216990499Y-52802128D01*
X216984091Y-52742517D01*
X216933796Y-52607669D01*
X216933794Y-52607666D01*
X216930696Y-52599360D01*
X216932426Y-52598714D01*
X216919902Y-52541163D01*
X216931691Y-52501011D01*
X216930696Y-52500640D01*
X216933794Y-52492333D01*
X216933796Y-52492331D01*
X216984091Y-52357483D01*
X216990500Y-52297873D01*
X216990499Y-51302128D01*
X216984091Y-51242517D01*
X216968046Y-51199499D01*
X216933797Y-51107671D01*
X216933793Y-51107664D01*
X216847547Y-50992455D01*
X216833431Y-50981888D01*
X216822581Y-50973765D01*
X216780712Y-50917832D01*
X216775728Y-50848140D01*
X216809214Y-50786818D01*
X216870538Y-50753333D01*
X216896894Y-50750500D01*
X232083106Y-50750500D01*
X232150145Y-50770185D01*
G37*
%TD.AperFunction*%
%TA.AperFunction,Conductor*%
G36*
X208783134Y-50770185D02*
G01*
X208828889Y-50822989D01*
X208838833Y-50892147D01*
X208809808Y-50955703D01*
X208778095Y-50981887D01*
X208756287Y-50994477D01*
X208756282Y-50994481D01*
X208644480Y-51106284D01*
X208644478Y-51106286D01*
X208575998Y-51174766D01*
X208510861Y-51239903D01*
X208449538Y-51273387D01*
X208410582Y-51275579D01*
X208400028Y-51274501D01*
X208400012Y-51274500D01*
X208400009Y-51274500D01*
X208400004Y-51274500D01*
X207799998Y-51274500D01*
X207799980Y-51274501D01*
X207697203Y-51285000D01*
X207697200Y-51285001D01*
X207530668Y-51340185D01*
X207530663Y-51340187D01*
X207381342Y-51432289D01*
X207257289Y-51556342D01*
X207165187Y-51705663D01*
X207165185Y-51705668D01*
X207164648Y-51707289D01*
X207110001Y-51872203D01*
X207110001Y-51872204D01*
X207110000Y-51872204D01*
X207099500Y-51974983D01*
X207099500Y-52174902D01*
X207079815Y-52241941D01*
X207063181Y-52262583D01*
X204562582Y-54763181D01*
X204501259Y-54796666D01*
X204474901Y-54799500D01*
X203862498Y-54799500D01*
X203862480Y-54799501D01*
X203759703Y-54810000D01*
X203759700Y-54810001D01*
X203593168Y-54865185D01*
X203593163Y-54865187D01*
X203443842Y-54957289D01*
X203319789Y-55081342D01*
X203227687Y-55230663D01*
X203227685Y-55230668D01*
X203211167Y-55280518D01*
X203172501Y-55397203D01*
X203172501Y-55397204D01*
X203172500Y-55397204D01*
X203162000Y-55499983D01*
X203162000Y-56500001D01*
X203162001Y-56500019D01*
X203172500Y-56602796D01*
X203172501Y-56602799D01*
X203227685Y-56769331D01*
X203227687Y-56769336D01*
X203240808Y-56790609D01*
X203319788Y-56918656D01*
X203443844Y-57042712D01*
X203515596Y-57086968D01*
X203562321Y-57138915D01*
X203574500Y-57192507D01*
X203574500Y-58088330D01*
X203574499Y-58088348D01*
X203574499Y-58254054D01*
X203574498Y-58254054D01*
X203597148Y-58338584D01*
X203615423Y-58406785D01*
X203629403Y-58430998D01*
X203656783Y-58478422D01*
X203694479Y-58543715D01*
X203813349Y-58662585D01*
X203813355Y-58662590D01*
X205350629Y-60199864D01*
X205384114Y-60261187D01*
X205379130Y-60330879D01*
X205366050Y-60356435D01*
X205290611Y-60469337D01*
X205290601Y-60469355D01*
X205230263Y-60615026D01*
X205230260Y-60615038D01*
X205199499Y-60769681D01*
X205199499Y-60927374D01*
X205230260Y-61082017D01*
X205230263Y-61082029D01*
X205290601Y-61227700D01*
X205290608Y-61227713D01*
X205378602Y-61359404D01*
X205399480Y-61426081D01*
X205399500Y-61428295D01*
X205399500Y-63275500D01*
X205379815Y-63342539D01*
X205327011Y-63388294D01*
X205275500Y-63399500D01*
X203752129Y-63399500D01*
X203752123Y-63399501D01*
X203692516Y-63405908D01*
X203557671Y-63456202D01*
X203557664Y-63456206D01*
X203442455Y-63542452D01*
X203442452Y-63542455D01*
X203356206Y-63657664D01*
X203356202Y-63657671D01*
X203305908Y-63792517D01*
X203300500Y-63842826D01*
X203299501Y-63852123D01*
X203299500Y-63852135D01*
X203299500Y-64947870D01*
X203299501Y-64947876D01*
X203305908Y-65007483D01*
X203333764Y-65082167D01*
X203338748Y-65151859D01*
X203305263Y-65213182D01*
X203243939Y-65246666D01*
X203217582Y-65249500D01*
X199782418Y-65249500D01*
X199715379Y-65229815D01*
X199669624Y-65177011D01*
X199659680Y-65107853D01*
X199666236Y-65082167D01*
X199694091Y-65007482D01*
X199700500Y-64947873D01*
X199700499Y-63852128D01*
X199694091Y-63792517D01*
X199643796Y-63657669D01*
X199643795Y-63657668D01*
X199643793Y-63657664D01*
X199557547Y-63542455D01*
X199557544Y-63542452D01*
X199442335Y-63456206D01*
X199442328Y-63456202D01*
X199307482Y-63405908D01*
X199307483Y-63405908D01*
X199247883Y-63399501D01*
X199247881Y-63399500D01*
X199247873Y-63399500D01*
X199247864Y-63399500D01*
X197452129Y-63399500D01*
X197452123Y-63399501D01*
X197392516Y-63405908D01*
X197257671Y-63456202D01*
X197257668Y-63456204D01*
X197198811Y-63500265D01*
X197133347Y-63524682D01*
X197065074Y-63509830D01*
X197015668Y-63460425D01*
X197000500Y-63400998D01*
X197000500Y-50874500D01*
X197020185Y-50807461D01*
X197072989Y-50761706D01*
X197124500Y-50750500D01*
X208716095Y-50750500D01*
X208783134Y-50770185D01*
G37*
%TD.AperFunction*%
%TA.AperFunction,Conductor*%
G36*
X210406280Y-54370185D02*
G01*
X210452035Y-54422989D01*
X210461979Y-54492147D01*
X210442343Y-54543391D01*
X210390609Y-54620815D01*
X210390602Y-54620827D01*
X210330264Y-54766498D01*
X210330261Y-54766510D01*
X210299500Y-54921153D01*
X210299500Y-55078846D01*
X210330261Y-55233489D01*
X210330264Y-55233501D01*
X210390602Y-55379172D01*
X210390609Y-55379185D01*
X210478602Y-55510874D01*
X210499480Y-55577551D01*
X210499500Y-55579765D01*
X210499500Y-56582351D01*
X210479815Y-56649390D01*
X210427011Y-56695145D01*
X210357853Y-56705089D01*
X210351310Y-56703969D01*
X210328842Y-56699500D01*
X210171158Y-56699500D01*
X210171155Y-56699500D01*
X210016510Y-56730261D01*
X210016498Y-56730264D01*
X209870827Y-56790602D01*
X209870814Y-56790609D01*
X209739711Y-56878210D01*
X209739707Y-56878213D01*
X209628213Y-56989707D01*
X209628210Y-56989711D01*
X209540609Y-57120814D01*
X209540602Y-57120827D01*
X209480264Y-57266498D01*
X209480261Y-57266510D01*
X209448311Y-57427132D01*
X209446474Y-57426766D01*
X209434058Y-57465183D01*
X209426918Y-57477551D01*
X209401378Y-57521789D01*
X209352923Y-57605715D01*
X209311999Y-57758443D01*
X209311999Y-57758445D01*
X209311999Y-57926546D01*
X209312000Y-57926559D01*
X209312000Y-58307491D01*
X209292315Y-58374530D01*
X209253098Y-58413029D01*
X209181344Y-58457287D01*
X209181343Y-58457288D01*
X209087681Y-58550951D01*
X209026358Y-58584436D01*
X208956666Y-58579452D01*
X208912319Y-58550951D01*
X208818657Y-58457289D01*
X208818656Y-58457288D01*
X208669334Y-58365186D01*
X208502797Y-58310001D01*
X208502795Y-58310000D01*
X208400010Y-58299500D01*
X207774998Y-58299500D01*
X207774980Y-58299501D01*
X207672203Y-58310000D01*
X207672200Y-58310001D01*
X207505668Y-58365185D01*
X207505663Y-58365187D01*
X207356342Y-58457289D01*
X207232289Y-58581342D01*
X207140187Y-58730663D01*
X207140185Y-58730668D01*
X207127326Y-58769475D01*
X207085001Y-58897203D01*
X207085001Y-58897204D01*
X207085000Y-58897204D01*
X207074179Y-59003132D01*
X207073399Y-59003052D01*
X207051418Y-59065842D01*
X206996344Y-59108837D01*
X206926767Y-59115232D01*
X206864779Y-59082996D01*
X206830059Y-59022364D01*
X206829058Y-59017793D01*
X206819002Y-58967238D01*
X206789993Y-58897203D01*
X206758662Y-58821562D01*
X206758655Y-58821549D01*
X206671054Y-58690446D01*
X206671051Y-58690442D01*
X206636819Y-58656210D01*
X206603334Y-58594887D01*
X206600500Y-58568529D01*
X206600500Y-57192507D01*
X206620185Y-57125468D01*
X206659403Y-57086968D01*
X206731156Y-57042712D01*
X206855212Y-56918656D01*
X206918002Y-56816855D01*
X206969947Y-56770133D01*
X207038909Y-56758910D01*
X207102992Y-56786753D01*
X207129078Y-56816857D01*
X207207288Y-56943656D01*
X207331344Y-57067712D01*
X207480666Y-57159814D01*
X207647203Y-57214999D01*
X207749991Y-57225500D01*
X208350008Y-57225499D01*
X208350016Y-57225498D01*
X208350019Y-57225498D01*
X208406302Y-57219748D01*
X208452797Y-57214999D01*
X208619334Y-57159814D01*
X208768656Y-57067712D01*
X208892712Y-56943656D01*
X208984814Y-56794334D01*
X209039999Y-56627797D01*
X209050500Y-56525009D01*
X209050499Y-55474992D01*
X209050294Y-55472989D01*
X209039999Y-55372203D01*
X209039998Y-55372200D01*
X209025702Y-55329057D01*
X208984814Y-55205666D01*
X208892712Y-55056344D01*
X208768656Y-54932288D01*
X208619334Y-54840186D01*
X208452797Y-54785001D01*
X208452795Y-54785000D01*
X208350010Y-54774500D01*
X207749998Y-54774500D01*
X207749980Y-54774501D01*
X207647203Y-54785000D01*
X207647198Y-54785001D01*
X207631689Y-54790141D01*
X207561861Y-54792541D01*
X207501820Y-54756808D01*
X207470629Y-54694287D01*
X207478191Y-54624828D01*
X207485297Y-54610440D01*
X207559577Y-54481784D01*
X207570128Y-54442404D01*
X207606494Y-54382746D01*
X207669341Y-54352217D01*
X207689903Y-54350500D01*
X210339241Y-54350500D01*
X210406280Y-54370185D01*
G37*
%TD.AperFunction*%
%TA.AperFunction,Conductor*%
G36*
X211161687Y-52095185D02*
G01*
X211207442Y-52147989D01*
X211217386Y-52217147D01*
X211202037Y-52261496D01*
X211197428Y-52269480D01*
X211140423Y-52368215D01*
X211099499Y-52520943D01*
X211099499Y-52520945D01*
X211099499Y-52582152D01*
X211079814Y-52649191D01*
X211027010Y-52694946D01*
X210999691Y-52703769D01*
X210866508Y-52730261D01*
X210866498Y-52730264D01*
X210720827Y-52790602D01*
X210720814Y-52790609D01*
X210589711Y-52878210D01*
X210589707Y-52878213D01*
X210478210Y-52989710D01*
X210408266Y-53094391D01*
X210354654Y-53139196D01*
X210305164Y-53149500D01*
X209224500Y-53149500D01*
X209157461Y-53129815D01*
X209111706Y-53077011D01*
X209100500Y-53025500D01*
X209100500Y-52730261D01*
X209100499Y-52400096D01*
X209120183Y-52333058D01*
X209136818Y-52312416D01*
X209337416Y-52111819D01*
X209398739Y-52078334D01*
X209425097Y-52075500D01*
X211094648Y-52075500D01*
X211161687Y-52095185D01*
G37*
%TD.AperFunction*%
%TD*%
M02*
