%TF.GenerationSoftware,KiCad,Pcbnew,10.0.6*%
%TF.CreationDate,2026-08-31T18:58:46+02:00*%
%TF.ProjectId,env-station,656e762d-7374-4617-9469-6f6e2e6b6963,rev?*%
%TF.SameCoordinates,Original*%
%TF.FileFunction,Copper,L2,Bot*%
%TF.FilePolarity,Positive*%
%FSLAX46Y46*%
G04 Gerber Fmt 4.6, Leading zero omitted, Abs format (unit mm)*
G04 Created by KiCad (PCBNEW 10.0.6) date 2026-08-31 18:58:46*
%MOMM*%
%LPD*%
G01*
G04 APERTURE LIST*
%TA.AperFunction,HeatsinkPad*%
%ADD10C,0.600000*%
%TD*%
%TA.AperFunction,ComponentPad*%
%ADD11R,1.700000X1.700000*%
%TD*%
%TA.AperFunction,ComponentPad*%
%ADD12C,1.700000*%
%TD*%
%TA.AperFunction,ComponentPad*%
%ADD13O,1.000000X2.100000*%
%TD*%
%TA.AperFunction,ComponentPad*%
%ADD14O,1.000000X1.600000*%
%TD*%
%TA.AperFunction,ViaPad*%
%ADD15C,0.600000*%
%TD*%
%TA.AperFunction,Conductor*%
%ADD16C,0.200000*%
%TD*%
G04 APERTURE END LIST*
D10*
%TO.P,U2,19,GND_19*%
%TO.N,GND*%
X226550000Y-58550000D03*
X226550000Y-57450000D03*
X226000000Y-59100000D03*
X226000000Y-58000000D03*
X226000000Y-56900000D03*
X225450000Y-58550000D03*
X225450000Y-57450000D03*
X224900000Y-59100000D03*
X224900000Y-58000000D03*
X224900000Y-56900000D03*
X224350000Y-58550000D03*
X224350000Y-57450000D03*
%TD*%
D11*
%TO.P,J3,1,Pin_1_1*%
%TO.N,+3V3*%
X198500000Y-85460000D03*
D12*
%TO.P,J3,2,Pin_2_2*%
%TO.N,GND*%
X198500000Y-88000000D03*
%TO.P,J3,3,Pin_3_3*%
%TO.N,/UART_TX*%
X198500000Y-90540000D03*
%TO.P,J3,4,Pin_4_4*%
%TO.N,/UART_RX*%
X198500000Y-93080000D03*
%TD*%
D11*
%TO.P,J2,1,Pin_1_1*%
%TO.N,+3V3*%
X244500000Y-86000000D03*
D12*
%TO.P,J2,2,Pin_2_2*%
%TO.N,GND*%
X244500000Y-88540000D03*
%TO.P,J2,3,Pin_3_3*%
%TO.N,/SDA*%
X244500000Y-91080000D03*
%TO.P,J2,4,Pin_4_4*%
%TO.N,/SCL*%
X244500000Y-93620000D03*
%TD*%
D13*
%TO.P,J1,SH,SHIELD_SH*%
%TO.N,GND*%
X217360000Y-88370000D03*
D14*
X217360000Y-92550000D03*
D13*
X226000000Y-88370000D03*
D14*
X226000000Y-92550000D03*
%TD*%
D15*
%TO.N,GND*%
X227500000Y-81000000D03*
X226500000Y-77250000D03*
X225825735Y-84325735D03*
X209250000Y-89250000D03*
X218250000Y-77750000D03*
X217250000Y-80500000D03*
X216500000Y-85250000D03*
X211000000Y-52500000D03*
X209500000Y-54500000D03*
X204750000Y-51500000D03*
X203250000Y-65250000D03*
X224250000Y-68000000D03*
X205250000Y-77750000D03*
X199500000Y-70750000D03*
X200500000Y-76750000D03*
%TO.N,+3V3*%
X239750000Y-88000000D03*
X232500000Y-81250000D03*
X238000000Y-86500000D03*
X241750000Y-82500000D03*
X241512500Y-84250000D03*
X237000000Y-86000000D03*
X234900000Y-86000000D03*
X228500000Y-86000000D03*
X218500000Y-86000000D03*
X207250000Y-86000000D03*
X240312500Y-84250000D03*
X202220735Y-85970735D03*
%TO.N,Net-(U1-EN)*%
X226250000Y-81650000D03*
X226500000Y-83600000D03*
%TO.N,/USB_D+*%
X227750000Y-82250000D03*
X222530000Y-85400000D03*
%TO.N,/UART_RX*%
X236250000Y-62500000D03*
X232500000Y-71550003D03*
%TO.N,/UART_TX*%
X236000000Y-60750000D03*
X237600000Y-60750000D03*
X237750000Y-70500000D03*
X232500000Y-70750000D03*
%TO.N,/USB_D-*%
X236000000Y-59250000D03*
X237600000Y-59250000D03*
X236750000Y-83000000D03*
X234900000Y-83000000D03*
%TO.N,Net-(U2-IO8)*%
X213250000Y-56900000D03*
X210250000Y-57500000D03*
%TO.N,Net-(U2-IO9)*%
X213467893Y-67782107D03*
X214849265Y-66900735D03*
%TO.N,+3V3*%
X214250000Y-52500000D03*
X234750000Y-52750000D03*
%TO.N,Net-(U2-EN)*%
X206049265Y-59200735D03*
X205999999Y-60848528D03*
X212300000Y-53250000D03*
X211100000Y-53500000D03*
%TO.N,/UART_RX*%
X217303190Y-72522340D03*
X219449262Y-71500735D03*
%TO.N,/UART_TX*%
X216750000Y-71500000D03*
X218849265Y-70900735D03*
%TO.N,/SCL*%
X241825735Y-87825735D03*
X240750000Y-66000000D03*
X212300000Y-56250000D03*
%TO.N,/SDA*%
X235500000Y-75250000D03*
X224450000Y-75250000D03*
X212300000Y-55000000D03*
X211100000Y-55000000D03*
%TO.N,Net-(U1-EN)*%
X221250000Y-81500000D03*
X220500000Y-77000000D03*
%TO.N,Net-(J1-CC1)*%
X217000000Y-82750000D03*
X221100000Y-82750000D03*
%TD*%
%TO.N,+3V3*%
D16*
X237500000Y-81250000D02*
X237500000Y-88000000D01*
X232500000Y-81250000D02*
X237500000Y-81250000D01*
X237500000Y-88000000D02*
X239750000Y-88000000D01*
X239250000Y-82500000D02*
X239250000Y-84750000D01*
X241750000Y-82500000D02*
X239250000Y-82500000D01*
X239250000Y-84750000D02*
X238000000Y-84750000D01*
X238000000Y-84750000D02*
X238000000Y-86500000D01*
X240312500Y-84250000D02*
X241512500Y-84250000D01*
X234900000Y-86000000D02*
X237000000Y-86000000D01*
X207220735Y-85970735D02*
X207250000Y-86000000D01*
X218500000Y-86000000D02*
X228500000Y-86000000D01*
X202220735Y-85970735D02*
X207220735Y-85970735D01*
X198500000Y-85460000D02*
X199040000Y-86000000D01*
%TO.N,Net-(U1-EN)*%
X226500000Y-81900000D02*
X226250000Y-81650000D01*
X226500000Y-83600000D02*
X226500000Y-81900000D01*
%TO.N,/USB_D+*%
X222730000Y-85600000D02*
X222530000Y-85400000D01*
X227650000Y-85600000D02*
X222730000Y-85600000D01*
X227750000Y-82250000D02*
X227750000Y-85500000D01*
X227750000Y-85500000D02*
X227650000Y-85600000D01*
%TO.N,/UART_RX*%
X242000000Y-62500000D02*
X236250000Y-62500000D01*
X242250000Y-62750000D02*
X242000000Y-62500000D01*
X232550003Y-71500000D02*
X242250000Y-71500000D01*
X232500000Y-71550003D02*
X232550003Y-71500000D01*
X242250000Y-71500000D02*
X242250000Y-62750000D01*
%TO.N,/UART_TX*%
X237600000Y-60750000D02*
X236000000Y-60750000D01*
X232500000Y-70750000D02*
X237500000Y-70750000D01*
X237500000Y-70750000D02*
X237750000Y-70500000D01*
%TO.N,/USB_D-*%
X237600000Y-59250000D02*
X236000000Y-59250000D01*
X234900000Y-83000000D02*
X236750000Y-83000000D01*
%TO.N,Net-(U2-IO8)*%
X213250000Y-56301471D02*
X212598529Y-55650000D01*
X210250000Y-57451471D02*
X210250000Y-57500000D01*
X213250000Y-56900000D02*
X213250000Y-56301471D01*
X212598529Y-55650000D02*
X212051471Y-55650000D01*
X212051471Y-55650000D02*
X210250000Y-57451471D01*
%TO.N,Net-(U2-IO9)*%
X214849265Y-66900735D02*
X214349265Y-66900735D01*
X214349265Y-66900735D02*
X213467893Y-67782107D01*
%TO.N,+3V3*%
X214500000Y-52750000D02*
X214250000Y-52500000D01*
X234750000Y-52750000D02*
X214500000Y-52750000D01*
%TO.N,Net-(U2-EN)*%
X205999999Y-59250001D02*
X206049265Y-59200735D01*
X205999999Y-60848528D02*
X205999999Y-59250001D01*
X211350000Y-53250000D02*
X211100000Y-53500000D01*
X212300000Y-53250000D02*
X211350000Y-53250000D01*
%TO.N,/UART_RX*%
X218427657Y-72522340D02*
X217303190Y-72522340D01*
X219449262Y-71500735D02*
X218427657Y-72522340D01*
%TO.N,/UART_TX*%
X218250000Y-71500000D02*
X216750000Y-71500000D01*
X218849265Y-70900735D02*
X218250000Y-71500000D01*
%TO.N,/SCL*%
X241825735Y-90945735D02*
X244500000Y-93620000D01*
X241825735Y-87825735D02*
X241825735Y-90945735D01*
X212300000Y-56250000D02*
X211500000Y-57050000D01*
X211500000Y-66000000D02*
X240750000Y-66000000D01*
X211500000Y-57050000D02*
X211500000Y-66000000D01*
%TO.N,/SDA*%
X224450000Y-75250000D02*
X235500000Y-75250000D01*
X212300000Y-55000000D02*
X211100000Y-55000000D01*
%TO.N,Net-(U1-EN)*%
X224250000Y-77000000D02*
X224250000Y-81500000D01*
X220500000Y-77000000D02*
X224250000Y-77000000D01*
X224250000Y-81500000D02*
X221250000Y-81500000D01*
%TO.N,Net-(J1-CC1)*%
X221100000Y-82750000D02*
X217000000Y-82750000D01*
%TD*%
%TA.AperFunction,Conductor*%
%TO.N,GND*%
G36*
X245942539Y-50770185D02*
G01*
X245988294Y-50822989D01*
X245999500Y-50874500D01*
X245999500Y-84809897D01*
X245979815Y-84876936D01*
X245927011Y-84922691D01*
X245857853Y-84932635D01*
X245794297Y-84903610D01*
X245776234Y-84884208D01*
X245707547Y-84792455D01*
X245707544Y-84792452D01*
X245592335Y-84706206D01*
X245592328Y-84706202D01*
X245457482Y-84655908D01*
X245457483Y-84655908D01*
X245397883Y-84649501D01*
X245397881Y-84649500D01*
X245397873Y-84649500D01*
X245397864Y-84649500D01*
X243602129Y-84649500D01*
X243602123Y-84649501D01*
X243542516Y-84655908D01*
X243407671Y-84706202D01*
X243407664Y-84706206D01*
X243292455Y-84792452D01*
X243292452Y-84792455D01*
X243206206Y-84907664D01*
X243206202Y-84907671D01*
X243155908Y-85042517D01*
X243149501Y-85102116D01*
X243149500Y-85102135D01*
X243149500Y-86897870D01*
X243149501Y-86897876D01*
X243155908Y-86957483D01*
X243206202Y-87092328D01*
X243206206Y-87092335D01*
X243292452Y-87207544D01*
X243292455Y-87207547D01*
X243407664Y-87293793D01*
X243407671Y-87293797D01*
X243542517Y-87344091D01*
X243542516Y-87344091D01*
X243549444Y-87344835D01*
X243602127Y-87350500D01*
X245397872Y-87350499D01*
X245457483Y-87344091D01*
X245592331Y-87293796D01*
X245707546Y-87207546D01*
X245776234Y-87115789D01*
X245832167Y-87073920D01*
X245901859Y-87068936D01*
X245963182Y-87102421D01*
X245996666Y-87163745D01*
X245999500Y-87190102D01*
X245999500Y-90541773D01*
X245979815Y-90608812D01*
X245927011Y-90654567D01*
X245857853Y-90664511D01*
X245794297Y-90635486D01*
X245757570Y-90580094D01*
X245751557Y-90561588D01*
X245655051Y-90372184D01*
X245655049Y-90372181D01*
X245655048Y-90372179D01*
X245530109Y-90200213D01*
X245379786Y-90049890D01*
X245207820Y-89924951D01*
X245018414Y-89828444D01*
X245018413Y-89828443D01*
X245018412Y-89828443D01*
X244816243Y-89762754D01*
X244816241Y-89762753D01*
X244816240Y-89762753D01*
X244654957Y-89737208D01*
X244606287Y-89729500D01*
X244393713Y-89729500D01*
X244345042Y-89737208D01*
X244183760Y-89762753D01*
X243981585Y-89828444D01*
X243792179Y-89924951D01*
X243620213Y-90049890D01*
X243469890Y-90200213D01*
X243344951Y-90372179D01*
X243248444Y-90561585D01*
X243248443Y-90561587D01*
X243248443Y-90561588D01*
X243218232Y-90654567D01*
X243182753Y-90763760D01*
X243149500Y-90973713D01*
X243149500Y-91120903D01*
X243129815Y-91187942D01*
X243077011Y-91233697D01*
X243007853Y-91243641D01*
X242944297Y-91214616D01*
X242937819Y-91208584D01*
X242462554Y-90733319D01*
X242429069Y-90671996D01*
X242426235Y-90645638D01*
X242426235Y-88405500D01*
X242445920Y-88338461D01*
X242447133Y-88336609D01*
X242535125Y-88204920D01*
X242535125Y-88204919D01*
X242535129Y-88204914D01*
X242595472Y-88059232D01*
X242626235Y-87904577D01*
X242626235Y-87746893D01*
X242626235Y-87746890D01*
X242626234Y-87746888D01*
X242595472Y-87592238D01*
X242595470Y-87592233D01*
X242535132Y-87446562D01*
X242535125Y-87446549D01*
X242447524Y-87315446D01*
X242447521Y-87315442D01*
X242336027Y-87203948D01*
X242336023Y-87203945D01*
X242204920Y-87116344D01*
X242204907Y-87116337D01*
X242059236Y-87055999D01*
X242059224Y-87055996D01*
X241904580Y-87025235D01*
X241904577Y-87025235D01*
X241746893Y-87025235D01*
X241746890Y-87025235D01*
X241592245Y-87055996D01*
X241592233Y-87055999D01*
X241446562Y-87116337D01*
X241446549Y-87116344D01*
X241315446Y-87203945D01*
X241315442Y-87203948D01*
X241203948Y-87315442D01*
X241203945Y-87315446D01*
X241116344Y-87446549D01*
X241116337Y-87446562D01*
X241055999Y-87592233D01*
X241055996Y-87592245D01*
X241025235Y-87746888D01*
X241025235Y-87904581D01*
X241055996Y-88059224D01*
X241055999Y-88059236D01*
X241116337Y-88204907D01*
X241116344Y-88204920D01*
X241204337Y-88336609D01*
X241225215Y-88403286D01*
X241225235Y-88405500D01*
X241225235Y-90859065D01*
X241225234Y-90859083D01*
X241225234Y-91024789D01*
X241225233Y-91024789D01*
X241234243Y-91058414D01*
X241266158Y-91177520D01*
X241271215Y-91186279D01*
X241271218Y-91186289D01*
X241271220Y-91186288D01*
X241345210Y-91314444D01*
X241345216Y-91314452D01*
X241464084Y-91433320D01*
X241464090Y-91433325D01*
X243166241Y-93135476D01*
X243199726Y-93196799D01*
X243196492Y-93261473D01*
X243182753Y-93303757D01*
X243150812Y-93505432D01*
X243149500Y-93513713D01*
X243149500Y-93726287D01*
X243182754Y-93936243D01*
X243234075Y-94094193D01*
X243248444Y-94138414D01*
X243344951Y-94327820D01*
X243469890Y-94499786D01*
X243507923Y-94537819D01*
X243541408Y-94599142D01*
X243536424Y-94668834D01*
X243494552Y-94724767D01*
X243429088Y-94749184D01*
X243420242Y-94749500D01*
X197124500Y-94749500D01*
X197057461Y-94729815D01*
X197011706Y-94677011D01*
X197000500Y-94625500D01*
X197000500Y-93618226D01*
X197020185Y-93551187D01*
X197072989Y-93505432D01*
X197142147Y-93495488D01*
X197205703Y-93524513D01*
X197242431Y-93579908D01*
X197248444Y-93598414D01*
X197344951Y-93787820D01*
X197469890Y-93959786D01*
X197620213Y-94110109D01*
X197792179Y-94235048D01*
X197792181Y-94235049D01*
X197792184Y-94235051D01*
X197981588Y-94331557D01*
X198183757Y-94397246D01*
X198393713Y-94430500D01*
X198393714Y-94430500D01*
X198606286Y-94430500D01*
X198606287Y-94430500D01*
X198816243Y-94397246D01*
X199018412Y-94331557D01*
X199207816Y-94235051D01*
X199229789Y-94219086D01*
X199379786Y-94110109D01*
X199379788Y-94110106D01*
X199379792Y-94110104D01*
X199530104Y-93959792D01*
X199530106Y-93959788D01*
X199530109Y-93959786D01*
X199655048Y-93787820D01*
X199655047Y-93787820D01*
X199655051Y-93787816D01*
X199751557Y-93598412D01*
X199817246Y-93396243D01*
X199850500Y-93186287D01*
X199850500Y-92973713D01*
X199817246Y-92763757D01*
X199751557Y-92561588D01*
X199655051Y-92372184D01*
X199655049Y-92372181D01*
X199655048Y-92372179D01*
X199530109Y-92200213D01*
X199379786Y-92049890D01*
X199207820Y-91924951D01*
X199207115Y-91924591D01*
X199199054Y-91920485D01*
X199148259Y-91872512D01*
X199131463Y-91804692D01*
X199153999Y-91738556D01*
X199199054Y-91699515D01*
X199207816Y-91695051D01*
X199229789Y-91679086D01*
X199379786Y-91570109D01*
X199379788Y-91570106D01*
X199379792Y-91570104D01*
X199530104Y-91419792D01*
X199530106Y-91419788D01*
X199530109Y-91419786D01*
X199655048Y-91247820D01*
X199655047Y-91247820D01*
X199655051Y-91247816D01*
X199751557Y-91058412D01*
X199817246Y-90856243D01*
X199850500Y-90646287D01*
X199850500Y-90433713D01*
X199817246Y-90223757D01*
X199751557Y-90021588D01*
X199655051Y-89832184D01*
X199655049Y-89832181D01*
X199655048Y-89832179D01*
X199530109Y-89660213D01*
X199379786Y-89509890D01*
X199207820Y-89384951D01*
X199018414Y-89288444D01*
X199018413Y-89288443D01*
X199018412Y-89288443D01*
X198816243Y-89222754D01*
X198816241Y-89222753D01*
X198816240Y-89222753D01*
X198654957Y-89197208D01*
X198606287Y-89189500D01*
X198393713Y-89189500D01*
X198345042Y-89197208D01*
X198183760Y-89222753D01*
X197981585Y-89288444D01*
X197792179Y-89384951D01*
X197620213Y-89509890D01*
X197469890Y-89660213D01*
X197344951Y-89832179D01*
X197248445Y-90021582D01*
X197248443Y-90021587D01*
X197248443Y-90021588D01*
X197242429Y-90040094D01*
X197202992Y-90097768D01*
X197138633Y-90124965D01*
X197069787Y-90113050D01*
X197018312Y-90065805D01*
X197000500Y-90001773D01*
X197000500Y-88824234D01*
X218214500Y-88824234D01*
X218214500Y-88975765D01*
X218253719Y-89122136D01*
X218291602Y-89187750D01*
X218329485Y-89253365D01*
X218436635Y-89360515D01*
X218567865Y-89436281D01*
X218714234Y-89475500D01*
X218714236Y-89475500D01*
X218865764Y-89475500D01*
X218865766Y-89475500D01*
X219012135Y-89436281D01*
X219143365Y-89360515D01*
X219250515Y-89253365D01*
X219326281Y-89122135D01*
X219365500Y-88975766D01*
X219365500Y-88824234D01*
X223994500Y-88824234D01*
X223994500Y-88975765D01*
X224033719Y-89122136D01*
X224071602Y-89187750D01*
X224109485Y-89253365D01*
X224216635Y-89360515D01*
X224347865Y-89436281D01*
X224494234Y-89475500D01*
X224494236Y-89475500D01*
X224645764Y-89475500D01*
X224645766Y-89475500D01*
X224792135Y-89436281D01*
X224923365Y-89360515D01*
X225030515Y-89253365D01*
X225106281Y-89122135D01*
X225145500Y-88975766D01*
X225145500Y-88824234D01*
X225106281Y-88677865D01*
X225030515Y-88546635D01*
X224923365Y-88439485D01*
X224818923Y-88379185D01*
X224792136Y-88363719D01*
X224718950Y-88344109D01*
X224645766Y-88324500D01*
X224494234Y-88324500D01*
X224347863Y-88363719D01*
X224216635Y-88439485D01*
X224216632Y-88439487D01*
X224109487Y-88546632D01*
X224109485Y-88546635D01*
X224033719Y-88677863D01*
X223994500Y-88824234D01*
X219365500Y-88824234D01*
X219326281Y-88677865D01*
X219250515Y-88546635D01*
X219143365Y-88439485D01*
X219038923Y-88379185D01*
X219012136Y-88363719D01*
X218938950Y-88344109D01*
X218865766Y-88324500D01*
X218714234Y-88324500D01*
X218567863Y-88363719D01*
X218436635Y-88439485D01*
X218436632Y-88439487D01*
X218329487Y-88546632D01*
X218329485Y-88546635D01*
X218253719Y-88677863D01*
X218214500Y-88824234D01*
X197000500Y-88824234D01*
X197000500Y-86650102D01*
X197020185Y-86583063D01*
X197072989Y-86537308D01*
X197142147Y-86527364D01*
X197205703Y-86556389D01*
X197223762Y-86575786D01*
X197292454Y-86667546D01*
X197309263Y-86680129D01*
X197407664Y-86753793D01*
X197407671Y-86753797D01*
X197542517Y-86804091D01*
X197542516Y-86804091D01*
X197549444Y-86804835D01*
X197602127Y-86810500D01*
X199397872Y-86810499D01*
X199457483Y-86804091D01*
X199592331Y-86753796D01*
X199707546Y-86667546D01*
X199793796Y-86552331D01*
X199844091Y-86417483D01*
X199850500Y-86357873D01*
X199850500Y-85891888D01*
X201420235Y-85891888D01*
X201420235Y-86049581D01*
X201450996Y-86204224D01*
X201450999Y-86204236D01*
X201511337Y-86349907D01*
X201511344Y-86349920D01*
X201598945Y-86481023D01*
X201598948Y-86481027D01*
X201710442Y-86592521D01*
X201710446Y-86592524D01*
X201841549Y-86680125D01*
X201841562Y-86680132D01*
X201970408Y-86733501D01*
X201987238Y-86740472D01*
X202134352Y-86769735D01*
X202141888Y-86771234D01*
X202141891Y-86771235D01*
X202141893Y-86771235D01*
X202299579Y-86771235D01*
X202299580Y-86771234D01*
X202454232Y-86740472D01*
X202599914Y-86680129D01*
X202687226Y-86621789D01*
X202731610Y-86592133D01*
X202798288Y-86571255D01*
X202800501Y-86571235D01*
X206637794Y-86571235D01*
X206704833Y-86590920D01*
X206725475Y-86607554D01*
X206739707Y-86621786D01*
X206739711Y-86621789D01*
X206870814Y-86709390D01*
X206870827Y-86709397D01*
X206978020Y-86753797D01*
X207016503Y-86769737D01*
X207171153Y-86800499D01*
X207171156Y-86800500D01*
X207171158Y-86800500D01*
X207328844Y-86800500D01*
X207328845Y-86800499D01*
X207483497Y-86769737D01*
X207629179Y-86709394D01*
X207760289Y-86621789D01*
X207871789Y-86510289D01*
X207959394Y-86379179D01*
X208019737Y-86233497D01*
X208050500Y-86078842D01*
X208050500Y-85921158D01*
X208050500Y-85921155D01*
X208050499Y-85921153D01*
X217699500Y-85921153D01*
X217699500Y-86078846D01*
X217730261Y-86233489D01*
X217730264Y-86233501D01*
X217790602Y-86379172D01*
X217790609Y-86379185D01*
X217878210Y-86510288D01*
X217878213Y-86510292D01*
X217989707Y-86621786D01*
X217989711Y-86621789D01*
X218120814Y-86709390D01*
X218120827Y-86709397D01*
X218228020Y-86753797D01*
X218266503Y-86769737D01*
X218421153Y-86800499D01*
X218421156Y-86800500D01*
X218421158Y-86800500D01*
X218578844Y-86800500D01*
X218578845Y-86800499D01*
X218733497Y-86769737D01*
X218879179Y-86709394D01*
X218922983Y-86680125D01*
X219010875Y-86621398D01*
X219077553Y-86600520D01*
X219079766Y-86600500D01*
X227920234Y-86600500D01*
X227987273Y-86620185D01*
X227989125Y-86621398D01*
X228120814Y-86709390D01*
X228120827Y-86709397D01*
X228228020Y-86753797D01*
X228266503Y-86769737D01*
X228421153Y-86800499D01*
X228421156Y-86800500D01*
X228421158Y-86800500D01*
X228578844Y-86800500D01*
X228578845Y-86800499D01*
X228733497Y-86769737D01*
X228879179Y-86709394D01*
X229010289Y-86621789D01*
X229121789Y-86510289D01*
X229209394Y-86379179D01*
X229269737Y-86233497D01*
X229300500Y-86078842D01*
X229300500Y-85921158D01*
X229300500Y-85921155D01*
X229300499Y-85921153D01*
X229269738Y-85766510D01*
X229269737Y-85766503D01*
X229257613Y-85737233D01*
X229209397Y-85620827D01*
X229209390Y-85620814D01*
X229121789Y-85489711D01*
X229121786Y-85489707D01*
X229010292Y-85378213D01*
X229010288Y-85378210D01*
X228879185Y-85290609D01*
X228879172Y-85290602D01*
X228733501Y-85230264D01*
X228733489Y-85230261D01*
X228578845Y-85199500D01*
X228578842Y-85199500D01*
X228474500Y-85199500D01*
X228407461Y-85179815D01*
X228361706Y-85127011D01*
X228350500Y-85075500D01*
X228350500Y-82829765D01*
X228370185Y-82762726D01*
X228371398Y-82760874D01*
X228431347Y-82671155D01*
X228459394Y-82629179D01*
X228462854Y-82620827D01*
X228480244Y-82578842D01*
X228519737Y-82483497D01*
X228550500Y-82328842D01*
X228550500Y-82171158D01*
X228550500Y-82171155D01*
X228550499Y-82171153D01*
X228544807Y-82142539D01*
X228519737Y-82016503D01*
X228517163Y-82010289D01*
X228459397Y-81870827D01*
X228459390Y-81870814D01*
X228371789Y-81739711D01*
X228371786Y-81739707D01*
X228260292Y-81628213D01*
X228260288Y-81628210D01*
X228129185Y-81540609D01*
X228129172Y-81540602D01*
X227983501Y-81480264D01*
X227983489Y-81480261D01*
X227828845Y-81449500D01*
X227828842Y-81449500D01*
X227671158Y-81449500D01*
X227671155Y-81449500D01*
X227516510Y-81480261D01*
X227516498Y-81480264D01*
X227370827Y-81540602D01*
X227370809Y-81540612D01*
X227237017Y-81630009D01*
X227170340Y-81650887D01*
X227102960Y-81632402D01*
X227056270Y-81580423D01*
X227046510Y-81551098D01*
X227032419Y-81480261D01*
X227019737Y-81416503D01*
X226983427Y-81328842D01*
X226959397Y-81270827D01*
X226959390Y-81270814D01*
X226934763Y-81233957D01*
X226892798Y-81171153D01*
X231699500Y-81171153D01*
X231699500Y-81328846D01*
X231730261Y-81483489D01*
X231730264Y-81483501D01*
X231790602Y-81629172D01*
X231790609Y-81629185D01*
X231878210Y-81760288D01*
X231878213Y-81760292D01*
X231989707Y-81871786D01*
X231989711Y-81871789D01*
X232120814Y-81959390D01*
X232120827Y-81959397D01*
X232265885Y-82019481D01*
X232266503Y-82019737D01*
X232421153Y-82050499D01*
X232421156Y-82050500D01*
X232421158Y-82050500D01*
X232578844Y-82050500D01*
X232578845Y-82050499D01*
X232733497Y-82019737D01*
X232879179Y-81959394D01*
X232883347Y-81956609D01*
X233010875Y-81871398D01*
X233077553Y-81850520D01*
X233079766Y-81850500D01*
X236775500Y-81850500D01*
X236842539Y-81870185D01*
X236888294Y-81922989D01*
X236899500Y-81974500D01*
X236899500Y-82075500D01*
X236879815Y-82142539D01*
X236827011Y-82188294D01*
X236775500Y-82199500D01*
X236671155Y-82199500D01*
X236516510Y-82230261D01*
X236516498Y-82230264D01*
X236370827Y-82290602D01*
X236370814Y-82290609D01*
X236239125Y-82378602D01*
X236172447Y-82399480D01*
X236170234Y-82399500D01*
X235479766Y-82399500D01*
X235412727Y-82379815D01*
X235410875Y-82378602D01*
X235279185Y-82290609D01*
X235279172Y-82290602D01*
X235133501Y-82230264D01*
X235133489Y-82230261D01*
X234978845Y-82199500D01*
X234978842Y-82199500D01*
X234821158Y-82199500D01*
X234821155Y-82199500D01*
X234666510Y-82230261D01*
X234666498Y-82230264D01*
X234520827Y-82290602D01*
X234520814Y-82290609D01*
X234389711Y-82378210D01*
X234389707Y-82378213D01*
X234278213Y-82489707D01*
X234278210Y-82489711D01*
X234190609Y-82620814D01*
X234190602Y-82620827D01*
X234130264Y-82766498D01*
X234130261Y-82766510D01*
X234099500Y-82921153D01*
X234099500Y-83078846D01*
X234130261Y-83233489D01*
X234130264Y-83233501D01*
X234190602Y-83379172D01*
X234190609Y-83379185D01*
X234278210Y-83510288D01*
X234278213Y-83510292D01*
X234389707Y-83621786D01*
X234389711Y-83621789D01*
X234520814Y-83709390D01*
X234520827Y-83709397D01*
X234594013Y-83739711D01*
X234666503Y-83769737D01*
X234821153Y-83800499D01*
X234821156Y-83800500D01*
X234821158Y-83800500D01*
X234978844Y-83800500D01*
X234978845Y-83800499D01*
X235133497Y-83769737D01*
X235279179Y-83709394D01*
X235279185Y-83709390D01*
X235410875Y-83621398D01*
X235477553Y-83600520D01*
X235479766Y-83600500D01*
X236170234Y-83600500D01*
X236237273Y-83620185D01*
X236239125Y-83621398D01*
X236370814Y-83709390D01*
X236370827Y-83709397D01*
X236444013Y-83739711D01*
X236516503Y-83769737D01*
X236671153Y-83800499D01*
X236671156Y-83800500D01*
X236775500Y-83800500D01*
X236842539Y-83820185D01*
X236888294Y-83872989D01*
X236899500Y-83924500D01*
X236899500Y-85102044D01*
X236879815Y-85169083D01*
X236827011Y-85214838D01*
X236799691Y-85223661D01*
X236766510Y-85230261D01*
X236766498Y-85230264D01*
X236620827Y-85290602D01*
X236620814Y-85290609D01*
X236489125Y-85378602D01*
X236422447Y-85399480D01*
X236420234Y-85399500D01*
X235479766Y-85399500D01*
X235412727Y-85379815D01*
X235410875Y-85378602D01*
X235279185Y-85290609D01*
X235279172Y-85290602D01*
X235133501Y-85230264D01*
X235133489Y-85230261D01*
X234978845Y-85199500D01*
X234978842Y-85199500D01*
X234821158Y-85199500D01*
X234821155Y-85199500D01*
X234666510Y-85230261D01*
X234666498Y-85230264D01*
X234520827Y-85290602D01*
X234520814Y-85290609D01*
X234389711Y-85378210D01*
X234389707Y-85378213D01*
X234278213Y-85489707D01*
X234278210Y-85489711D01*
X234190609Y-85620814D01*
X234190602Y-85620827D01*
X234130264Y-85766498D01*
X234130261Y-85766510D01*
X234099500Y-85921153D01*
X234099500Y-86078846D01*
X234130261Y-86233489D01*
X234130264Y-86233501D01*
X234190602Y-86379172D01*
X234190609Y-86379185D01*
X234278210Y-86510288D01*
X234278213Y-86510292D01*
X234389707Y-86621786D01*
X234389711Y-86621789D01*
X234520814Y-86709390D01*
X234520827Y-86709397D01*
X234628020Y-86753797D01*
X234666503Y-86769737D01*
X234821153Y-86800499D01*
X234821156Y-86800500D01*
X234821158Y-86800500D01*
X234978844Y-86800500D01*
X234978845Y-86800499D01*
X235133497Y-86769737D01*
X235279179Y-86709394D01*
X235322983Y-86680125D01*
X235410875Y-86621398D01*
X235477553Y-86600520D01*
X235479766Y-86600500D01*
X236420234Y-86600500D01*
X236487273Y-86620185D01*
X236489125Y-86621398D01*
X236620814Y-86709390D01*
X236620827Y-86709397D01*
X236695853Y-86740473D01*
X236766503Y-86769737D01*
X236799691Y-86776338D01*
X236861600Y-86808721D01*
X236896176Y-86869436D01*
X236899500Y-86897955D01*
X236899500Y-87920943D01*
X236899500Y-88079057D01*
X236933222Y-88204907D01*
X236940423Y-88231783D01*
X236940426Y-88231790D01*
X237019475Y-88368709D01*
X237019479Y-88368714D01*
X237019480Y-88368716D01*
X237131284Y-88480520D01*
X237131286Y-88480521D01*
X237131290Y-88480524D01*
X237268209Y-88559573D01*
X237268216Y-88559577D01*
X237420943Y-88600500D01*
X239170234Y-88600500D01*
X239237273Y-88620185D01*
X239239125Y-88621398D01*
X239370814Y-88709390D01*
X239370827Y-88709397D01*
X239516498Y-88769735D01*
X239516503Y-88769737D01*
X239671153Y-88800499D01*
X239671156Y-88800500D01*
X239671158Y-88800500D01*
X239828844Y-88800500D01*
X239828845Y-88800499D01*
X239983497Y-88769737D01*
X240129179Y-88709394D01*
X240260289Y-88621789D01*
X240371789Y-88510289D01*
X240459394Y-88379179D01*
X240463728Y-88368717D01*
X240519735Y-88233501D01*
X240519737Y-88233497D01*
X240550500Y-88078842D01*
X240550500Y-87921158D01*
X240550500Y-87921155D01*
X240550499Y-87921153D01*
X240519738Y-87766510D01*
X240519737Y-87766503D01*
X240511612Y-87746888D01*
X240459397Y-87620827D01*
X240459390Y-87620814D01*
X240371789Y-87489711D01*
X240371786Y-87489707D01*
X240260292Y-87378213D01*
X240260288Y-87378210D01*
X240129185Y-87290609D01*
X240129172Y-87290602D01*
X239983501Y-87230264D01*
X239983489Y-87230261D01*
X239828845Y-87199500D01*
X239828842Y-87199500D01*
X239671158Y-87199500D01*
X239671155Y-87199500D01*
X239516510Y-87230261D01*
X239516498Y-87230264D01*
X239370827Y-87290602D01*
X239370814Y-87290609D01*
X239239125Y-87378602D01*
X239172447Y-87399480D01*
X239170234Y-87399500D01*
X238503439Y-87399500D01*
X238436400Y-87379815D01*
X238390645Y-87327011D01*
X238380701Y-87257853D01*
X238409726Y-87194297D01*
X238434548Y-87172398D01*
X238463981Y-87152730D01*
X238510289Y-87121789D01*
X238621789Y-87010289D01*
X238709394Y-86879179D01*
X238769737Y-86733497D01*
X238800500Y-86578842D01*
X238800500Y-86421158D01*
X238800500Y-86421155D01*
X238800499Y-86421153D01*
X238787912Y-86357873D01*
X238769737Y-86266503D01*
X238756062Y-86233489D01*
X238709397Y-86120827D01*
X238709390Y-86120814D01*
X238621398Y-85989125D01*
X238600520Y-85922447D01*
X238600500Y-85920234D01*
X238600500Y-85474500D01*
X238620185Y-85407461D01*
X238672989Y-85361706D01*
X238724500Y-85350500D01*
X239329055Y-85350500D01*
X239329057Y-85350500D01*
X239481784Y-85309577D01*
X239618716Y-85230520D01*
X239730520Y-85118716D01*
X239789519Y-85016524D01*
X239840084Y-84968311D01*
X239908690Y-84955087D01*
X239944354Y-84963964D01*
X240079003Y-85019737D01*
X240233653Y-85050499D01*
X240233656Y-85050500D01*
X240233658Y-85050500D01*
X240391344Y-85050500D01*
X240391345Y-85050499D01*
X240545997Y-85019737D01*
X240691679Y-84959394D01*
X240769091Y-84907669D01*
X240823375Y-84871398D01*
X240890053Y-84850520D01*
X240892266Y-84850500D01*
X240932734Y-84850500D01*
X240999773Y-84870185D01*
X241001625Y-84871398D01*
X241133314Y-84959390D01*
X241133327Y-84959397D01*
X241203092Y-84988294D01*
X241279003Y-85019737D01*
X241433653Y-85050499D01*
X241433656Y-85050500D01*
X241433658Y-85050500D01*
X241591344Y-85050500D01*
X241591345Y-85050499D01*
X241745997Y-85019737D01*
X241891679Y-84959394D01*
X242022789Y-84871789D01*
X242134289Y-84760289D01*
X242221894Y-84629179D01*
X242282237Y-84483497D01*
X242313000Y-84328842D01*
X242313000Y-84171158D01*
X242313000Y-84171155D01*
X242312999Y-84171153D01*
X242300892Y-84110288D01*
X242282237Y-84016503D01*
X242282235Y-84016498D01*
X242221897Y-83870827D01*
X242221890Y-83870814D01*
X242134289Y-83739711D01*
X242134286Y-83739707D01*
X242022792Y-83628213D01*
X242022788Y-83628210D01*
X241891685Y-83540609D01*
X241891675Y-83540604D01*
X241857340Y-83526382D01*
X241802937Y-83482541D01*
X241780872Y-83416247D01*
X241798151Y-83348547D01*
X241849289Y-83300937D01*
X241880593Y-83290205D01*
X241983497Y-83269737D01*
X242101592Y-83220821D01*
X242129172Y-83209397D01*
X242129172Y-83209396D01*
X242129179Y-83209394D01*
X242260289Y-83121789D01*
X242371789Y-83010289D01*
X242459394Y-82879179D01*
X242519737Y-82733497D01*
X242550500Y-82578842D01*
X242550500Y-82421158D01*
X242550500Y-82421155D01*
X242550499Y-82421153D01*
X242524531Y-82290606D01*
X242519737Y-82266503D01*
X242519735Y-82266498D01*
X242459397Y-82120827D01*
X242459390Y-82120814D01*
X242371789Y-81989711D01*
X242371786Y-81989707D01*
X242260292Y-81878213D01*
X242260288Y-81878210D01*
X242129185Y-81790609D01*
X242129172Y-81790602D01*
X241983501Y-81730264D01*
X241983489Y-81730261D01*
X241828845Y-81699500D01*
X241828842Y-81699500D01*
X241671158Y-81699500D01*
X241671155Y-81699500D01*
X241516510Y-81730261D01*
X241516498Y-81730264D01*
X241370827Y-81790602D01*
X241370814Y-81790609D01*
X241239125Y-81878602D01*
X241172447Y-81899480D01*
X241170234Y-81899500D01*
X239170943Y-81899500D01*
X239018216Y-81940423D01*
X239018209Y-81940426D01*
X238881290Y-82019475D01*
X238881282Y-82019481D01*
X238769481Y-82131282D01*
X238769475Y-82131290D01*
X238690426Y-82268209D01*
X238690423Y-82268216D01*
X238649500Y-82420943D01*
X238649500Y-84025500D01*
X238629815Y-84092539D01*
X238577011Y-84138294D01*
X238525500Y-84149500D01*
X238224500Y-84149500D01*
X238157461Y-84129815D01*
X238111706Y-84077011D01*
X238100500Y-84025500D01*
X238100500Y-81170945D01*
X238100500Y-81170943D01*
X238059577Y-81018216D01*
X238043120Y-80989711D01*
X237980524Y-80881290D01*
X237980518Y-80881282D01*
X237868717Y-80769481D01*
X237868709Y-80769475D01*
X237731790Y-80690426D01*
X237731786Y-80690424D01*
X237731784Y-80690423D01*
X237579057Y-80649500D01*
X237579056Y-80649500D01*
X233079766Y-80649500D01*
X233012727Y-80629815D01*
X233010875Y-80628602D01*
X232879185Y-80540609D01*
X232879172Y-80540602D01*
X232733501Y-80480264D01*
X232733489Y-80480261D01*
X232578845Y-80449500D01*
X232578842Y-80449500D01*
X232421158Y-80449500D01*
X232421155Y-80449500D01*
X232266510Y-80480261D01*
X232266498Y-80480264D01*
X232120827Y-80540602D01*
X232120814Y-80540609D01*
X231989711Y-80628210D01*
X231989707Y-80628213D01*
X231878213Y-80739707D01*
X231878210Y-80739711D01*
X231790609Y-80870814D01*
X231790602Y-80870827D01*
X231730264Y-81016498D01*
X231730261Y-81016510D01*
X231699500Y-81171153D01*
X226892798Y-81171153D01*
X226871789Y-81139711D01*
X226871786Y-81139707D01*
X226760292Y-81028213D01*
X226760288Y-81028210D01*
X226629185Y-80940609D01*
X226629172Y-80940602D01*
X226483501Y-80880264D01*
X226483489Y-80880261D01*
X226328845Y-80849500D01*
X226328842Y-80849500D01*
X226171158Y-80849500D01*
X226171155Y-80849500D01*
X226016510Y-80880261D01*
X226016498Y-80880264D01*
X225870827Y-80940602D01*
X225870814Y-80940609D01*
X225739711Y-81028210D01*
X225739707Y-81028213D01*
X225628213Y-81139707D01*
X225628210Y-81139711D01*
X225540609Y-81270814D01*
X225540602Y-81270827D01*
X225480264Y-81416498D01*
X225480261Y-81416510D01*
X225449500Y-81571153D01*
X225449500Y-81728846D01*
X225480261Y-81883489D01*
X225480264Y-81883501D01*
X225540602Y-82029172D01*
X225540609Y-82029185D01*
X225628210Y-82160288D01*
X225628213Y-82160292D01*
X225739710Y-82271789D01*
X225844391Y-82341734D01*
X225889196Y-82395346D01*
X225899500Y-82444836D01*
X225899500Y-83020234D01*
X225879815Y-83087273D01*
X225878602Y-83089125D01*
X225790609Y-83220814D01*
X225790602Y-83220827D01*
X225730264Y-83366498D01*
X225730261Y-83366510D01*
X225699500Y-83521153D01*
X225699500Y-83678846D01*
X225730261Y-83833489D01*
X225730264Y-83833501D01*
X225790602Y-83979172D01*
X225790609Y-83979185D01*
X225878210Y-84110288D01*
X225878213Y-84110292D01*
X225989707Y-84221786D01*
X225989711Y-84221789D01*
X226120814Y-84309390D01*
X226120827Y-84309397D01*
X226237146Y-84357577D01*
X226266503Y-84369737D01*
X226421153Y-84400499D01*
X226421156Y-84400500D01*
X226421158Y-84400500D01*
X226578844Y-84400500D01*
X226578845Y-84400499D01*
X226733497Y-84369737D01*
X226879179Y-84309394D01*
X226956609Y-84257657D01*
X227023286Y-84236779D01*
X227090666Y-84255263D01*
X227137357Y-84307242D01*
X227149500Y-84360759D01*
X227149500Y-84875500D01*
X227129815Y-84942539D01*
X227077011Y-84988294D01*
X227025500Y-84999500D01*
X223291427Y-84999500D01*
X223224388Y-84979815D01*
X223188325Y-84944390D01*
X223151792Y-84889715D01*
X223151786Y-84889707D01*
X223040292Y-84778213D01*
X223040288Y-84778210D01*
X222909185Y-84690609D01*
X222909172Y-84690602D01*
X222763501Y-84630264D01*
X222763489Y-84630261D01*
X222608845Y-84599500D01*
X222608842Y-84599500D01*
X222451158Y-84599500D01*
X222451155Y-84599500D01*
X222296510Y-84630261D01*
X222296498Y-84630264D01*
X222150827Y-84690602D01*
X222150814Y-84690609D01*
X222019711Y-84778210D01*
X222019707Y-84778213D01*
X221908213Y-84889707D01*
X221908210Y-84889711D01*
X221820609Y-85020814D01*
X221820602Y-85020827D01*
X221760264Y-85166498D01*
X221760261Y-85166508D01*
X221733769Y-85299692D01*
X221701384Y-85361603D01*
X221640668Y-85396177D01*
X221612152Y-85399500D01*
X219079766Y-85399500D01*
X219012727Y-85379815D01*
X219010875Y-85378602D01*
X218879185Y-85290609D01*
X218879172Y-85290602D01*
X218733501Y-85230264D01*
X218733489Y-85230261D01*
X218578845Y-85199500D01*
X218578842Y-85199500D01*
X218421158Y-85199500D01*
X218421155Y-85199500D01*
X218266510Y-85230261D01*
X218266498Y-85230264D01*
X218120827Y-85290602D01*
X218120814Y-85290609D01*
X217989711Y-85378210D01*
X217989707Y-85378213D01*
X217878213Y-85489707D01*
X217878210Y-85489711D01*
X217790609Y-85620814D01*
X217790602Y-85620827D01*
X217730264Y-85766498D01*
X217730261Y-85766510D01*
X217699500Y-85921153D01*
X208050499Y-85921153D01*
X208019738Y-85766510D01*
X208019737Y-85766503D01*
X208007613Y-85737233D01*
X207959397Y-85620827D01*
X207959390Y-85620814D01*
X207871789Y-85489711D01*
X207871786Y-85489707D01*
X207760292Y-85378213D01*
X207760288Y-85378210D01*
X207629185Y-85290609D01*
X207629172Y-85290602D01*
X207483501Y-85230264D01*
X207483489Y-85230261D01*
X207328845Y-85199500D01*
X207328842Y-85199500D01*
X207171158Y-85199500D01*
X207171155Y-85199500D01*
X207016510Y-85230261D01*
X207016498Y-85230264D01*
X206870827Y-85290602D01*
X206870815Y-85290609D01*
X206782924Y-85349337D01*
X206716247Y-85370215D01*
X206714033Y-85370235D01*
X202800501Y-85370235D01*
X202733462Y-85350550D01*
X202731610Y-85349337D01*
X202599920Y-85261344D01*
X202599907Y-85261337D01*
X202454236Y-85200999D01*
X202454224Y-85200996D01*
X202299580Y-85170235D01*
X202299577Y-85170235D01*
X202141893Y-85170235D01*
X202141890Y-85170235D01*
X201987245Y-85200996D01*
X201987233Y-85200999D01*
X201841562Y-85261337D01*
X201841549Y-85261344D01*
X201710446Y-85348945D01*
X201710442Y-85348948D01*
X201598948Y-85460442D01*
X201598945Y-85460446D01*
X201511344Y-85591549D01*
X201511337Y-85591562D01*
X201450999Y-85737233D01*
X201450996Y-85737245D01*
X201420235Y-85891888D01*
X199850500Y-85891888D01*
X199850499Y-85407461D01*
X199850499Y-84562129D01*
X199850498Y-84562123D01*
X199844091Y-84502516D01*
X199793797Y-84367671D01*
X199793793Y-84367664D01*
X199707547Y-84252455D01*
X199707544Y-84252452D01*
X199592335Y-84166206D01*
X199592328Y-84166202D01*
X199457482Y-84115908D01*
X199457483Y-84115908D01*
X199397883Y-84109501D01*
X199397881Y-84109500D01*
X199397873Y-84109500D01*
X199397864Y-84109500D01*
X197602129Y-84109500D01*
X197602123Y-84109501D01*
X197542516Y-84115908D01*
X197407671Y-84166202D01*
X197407664Y-84166206D01*
X197292455Y-84252452D01*
X197292452Y-84252455D01*
X197223766Y-84344208D01*
X197167832Y-84386079D01*
X197098141Y-84391063D01*
X197036818Y-84357577D01*
X197003334Y-84296254D01*
X197000500Y-84269897D01*
X197000500Y-82671153D01*
X216199500Y-82671153D01*
X216199500Y-82828846D01*
X216230261Y-82983489D01*
X216230264Y-82983501D01*
X216290602Y-83129172D01*
X216290609Y-83129185D01*
X216378210Y-83260288D01*
X216378213Y-83260292D01*
X216489707Y-83371786D01*
X216489711Y-83371789D01*
X216620814Y-83459390D01*
X216620827Y-83459397D01*
X216746281Y-83511361D01*
X216766503Y-83519737D01*
X216921153Y-83550499D01*
X216921156Y-83550500D01*
X216921158Y-83550500D01*
X217078844Y-83550500D01*
X217078845Y-83550499D01*
X217233497Y-83519737D01*
X217379179Y-83459394D01*
X217379185Y-83459390D01*
X217510875Y-83371398D01*
X217577553Y-83350520D01*
X217579766Y-83350500D01*
X220520234Y-83350500D01*
X220587273Y-83370185D01*
X220589125Y-83371398D01*
X220720814Y-83459390D01*
X220720827Y-83459397D01*
X220846281Y-83511361D01*
X220866503Y-83519737D01*
X221021153Y-83550499D01*
X221021156Y-83550500D01*
X221021158Y-83550500D01*
X221178844Y-83550500D01*
X221178845Y-83550499D01*
X221333497Y-83519737D01*
X221479179Y-83459394D01*
X221610289Y-83371789D01*
X221721789Y-83260289D01*
X221809394Y-83129179D01*
X221816632Y-83111706D01*
X221869735Y-82983501D01*
X221869737Y-82983497D01*
X221900500Y-82828842D01*
X221900500Y-82671158D01*
X221900500Y-82671155D01*
X221900499Y-82671153D01*
X221869738Y-82516510D01*
X221869737Y-82516503D01*
X221869735Y-82516498D01*
X221809397Y-82370827D01*
X221809395Y-82370823D01*
X221809394Y-82370821D01*
X221781346Y-82328844D01*
X221757657Y-82293391D01*
X221736779Y-82226714D01*
X221755263Y-82159334D01*
X221807242Y-82112643D01*
X221860759Y-82100500D01*
X224329055Y-82100500D01*
X224329057Y-82100500D01*
X224481784Y-82059577D01*
X224618716Y-81980520D01*
X224730520Y-81868716D01*
X224809577Y-81731784D01*
X224850500Y-81579057D01*
X224850500Y-76920943D01*
X224809577Y-76768216D01*
X224808585Y-76766498D01*
X224730524Y-76631290D01*
X224730518Y-76631282D01*
X224618717Y-76519481D01*
X224618709Y-76519475D01*
X224481790Y-76440426D01*
X224481786Y-76440424D01*
X224481784Y-76440423D01*
X224329057Y-76399500D01*
X224329056Y-76399500D01*
X221079766Y-76399500D01*
X221012727Y-76379815D01*
X221010875Y-76378602D01*
X220879185Y-76290609D01*
X220879172Y-76290602D01*
X220733501Y-76230264D01*
X220733489Y-76230261D01*
X220578845Y-76199500D01*
X220578842Y-76199500D01*
X220421158Y-76199500D01*
X220421155Y-76199500D01*
X220266510Y-76230261D01*
X220266498Y-76230264D01*
X220120827Y-76290602D01*
X220120814Y-76290609D01*
X219989711Y-76378210D01*
X219989707Y-76378213D01*
X219878213Y-76489707D01*
X219878210Y-76489711D01*
X219790609Y-76620814D01*
X219790602Y-76620827D01*
X219730264Y-76766498D01*
X219730261Y-76766510D01*
X219699500Y-76921153D01*
X219699500Y-77078846D01*
X219730261Y-77233489D01*
X219730264Y-77233501D01*
X219790602Y-77379172D01*
X219790609Y-77379185D01*
X219878210Y-77510288D01*
X219878213Y-77510292D01*
X219989707Y-77621786D01*
X219989711Y-77621789D01*
X220120814Y-77709390D01*
X220120827Y-77709397D01*
X220266498Y-77769735D01*
X220266503Y-77769737D01*
X220421153Y-77800499D01*
X220421156Y-77800500D01*
X220421158Y-77800500D01*
X220578844Y-77800500D01*
X220578845Y-77800499D01*
X220733497Y-77769737D01*
X220879179Y-77709394D01*
X220933663Y-77672989D01*
X221010875Y-77621398D01*
X221077553Y-77600520D01*
X221079766Y-77600500D01*
X223525500Y-77600500D01*
X223592539Y-77620185D01*
X223638294Y-77672989D01*
X223649500Y-77724500D01*
X223649500Y-80775500D01*
X223629815Y-80842539D01*
X223577011Y-80888294D01*
X223525500Y-80899500D01*
X221829766Y-80899500D01*
X221762727Y-80879815D01*
X221760875Y-80878602D01*
X221629185Y-80790609D01*
X221629172Y-80790602D01*
X221483501Y-80730264D01*
X221483489Y-80730261D01*
X221328845Y-80699500D01*
X221328842Y-80699500D01*
X221171158Y-80699500D01*
X221171155Y-80699500D01*
X221016510Y-80730261D01*
X221016498Y-80730264D01*
X220870827Y-80790602D01*
X220870814Y-80790609D01*
X220739711Y-80878210D01*
X220739707Y-80878213D01*
X220628213Y-80989707D01*
X220628210Y-80989711D01*
X220540609Y-81120814D01*
X220540602Y-81120827D01*
X220480264Y-81266498D01*
X220480261Y-81266510D01*
X220449500Y-81421153D01*
X220449500Y-81578846D01*
X220480261Y-81733489D01*
X220480264Y-81733501D01*
X220540602Y-81879172D01*
X220540609Y-81879184D01*
X220592343Y-81956609D01*
X220613221Y-82023286D01*
X220594737Y-82090666D01*
X220542758Y-82137357D01*
X220489241Y-82149500D01*
X217579766Y-82149500D01*
X217512727Y-82129815D01*
X217510875Y-82128602D01*
X217379185Y-82040609D01*
X217379172Y-82040602D01*
X217233501Y-81980264D01*
X217233489Y-81980261D01*
X217078845Y-81949500D01*
X217078842Y-81949500D01*
X216921158Y-81949500D01*
X216921155Y-81949500D01*
X216766510Y-81980261D01*
X216766498Y-81980264D01*
X216620827Y-82040602D01*
X216620814Y-82040609D01*
X216489711Y-82128210D01*
X216489707Y-82128213D01*
X216378213Y-82239707D01*
X216378210Y-82239711D01*
X216290609Y-82370814D01*
X216290602Y-82370827D01*
X216230264Y-82516498D01*
X216230261Y-82516510D01*
X216199500Y-82671153D01*
X197000500Y-82671153D01*
X197000500Y-75171153D01*
X223649500Y-75171153D01*
X223649500Y-75328846D01*
X223680261Y-75483489D01*
X223680264Y-75483501D01*
X223740602Y-75629172D01*
X223740609Y-75629185D01*
X223828210Y-75760288D01*
X223828213Y-75760292D01*
X223939707Y-75871786D01*
X223939711Y-75871789D01*
X224070814Y-75959390D01*
X224070827Y-75959397D01*
X224216498Y-76019735D01*
X224216503Y-76019737D01*
X224371153Y-76050499D01*
X224371156Y-76050500D01*
X224371158Y-76050500D01*
X224528844Y-76050500D01*
X224528845Y-76050499D01*
X224683497Y-76019737D01*
X224829179Y-75959394D01*
X224829185Y-75959390D01*
X224960875Y-75871398D01*
X225027553Y-75850520D01*
X225029766Y-75850500D01*
X234920234Y-75850500D01*
X234987273Y-75870185D01*
X234989125Y-75871398D01*
X235120814Y-75959390D01*
X235120827Y-75959397D01*
X235266498Y-76019735D01*
X235266503Y-76019737D01*
X235421153Y-76050499D01*
X235421156Y-76050500D01*
X235421158Y-76050500D01*
X235578844Y-76050500D01*
X235578845Y-76050499D01*
X235733497Y-76019737D01*
X235879179Y-75959394D01*
X236010289Y-75871789D01*
X236121789Y-75760289D01*
X236209394Y-75629179D01*
X236269737Y-75483497D01*
X236300500Y-75328842D01*
X236300500Y-75171158D01*
X236300500Y-75171155D01*
X236300499Y-75171153D01*
X236269738Y-75016510D01*
X236269737Y-75016503D01*
X236269735Y-75016498D01*
X236209397Y-74870827D01*
X236209390Y-74870814D01*
X236121789Y-74739711D01*
X236121786Y-74739707D01*
X236010292Y-74628213D01*
X236010288Y-74628210D01*
X235879185Y-74540609D01*
X235879172Y-74540602D01*
X235733501Y-74480264D01*
X235733489Y-74480261D01*
X235578845Y-74449500D01*
X235578842Y-74449500D01*
X235421158Y-74449500D01*
X235421155Y-74449500D01*
X235266510Y-74480261D01*
X235266498Y-74480264D01*
X235120827Y-74540602D01*
X235120814Y-74540609D01*
X234989125Y-74628602D01*
X234922447Y-74649480D01*
X234920234Y-74649500D01*
X225029766Y-74649500D01*
X224962727Y-74629815D01*
X224960875Y-74628602D01*
X224829185Y-74540609D01*
X224829172Y-74540602D01*
X224683501Y-74480264D01*
X224683489Y-74480261D01*
X224528845Y-74449500D01*
X224528842Y-74449500D01*
X224371158Y-74449500D01*
X224371155Y-74449500D01*
X224216510Y-74480261D01*
X224216498Y-74480264D01*
X224070827Y-74540602D01*
X224070814Y-74540609D01*
X223939711Y-74628210D01*
X223939707Y-74628213D01*
X223828213Y-74739707D01*
X223828210Y-74739711D01*
X223740609Y-74870814D01*
X223740602Y-74870827D01*
X223680264Y-75016498D01*
X223680261Y-75016510D01*
X223649500Y-75171153D01*
X197000500Y-75171153D01*
X197000500Y-71421153D01*
X215949500Y-71421153D01*
X215949500Y-71578846D01*
X215980261Y-71733489D01*
X215980264Y-71733501D01*
X216040602Y-71879172D01*
X216040609Y-71879185D01*
X216128210Y-72010288D01*
X216128213Y-72010292D01*
X216239707Y-72121786D01*
X216239711Y-72121789D01*
X216370814Y-72209390D01*
X216370821Y-72209394D01*
X216441655Y-72238734D01*
X216496058Y-72282574D01*
X216518124Y-72348868D01*
X216515820Y-72377486D01*
X216502690Y-72443493D01*
X216502690Y-72601186D01*
X216533451Y-72755829D01*
X216533454Y-72755841D01*
X216593792Y-72901512D01*
X216593799Y-72901525D01*
X216681400Y-73032628D01*
X216681403Y-73032632D01*
X216792897Y-73144126D01*
X216792901Y-73144129D01*
X216924004Y-73231730D01*
X216924017Y-73231737D01*
X217069688Y-73292075D01*
X217069693Y-73292077D01*
X217224343Y-73322839D01*
X217224346Y-73322840D01*
X217224348Y-73322840D01*
X217382034Y-73322840D01*
X217382035Y-73322839D01*
X217536687Y-73292077D01*
X217682369Y-73231734D01*
X217682375Y-73231730D01*
X217814065Y-73143738D01*
X217880743Y-73122860D01*
X217882956Y-73122840D01*
X218340988Y-73122840D01*
X218341004Y-73122841D01*
X218348600Y-73122841D01*
X218506711Y-73122841D01*
X218506714Y-73122841D01*
X218659442Y-73081917D01*
X218709561Y-73052979D01*
X218796373Y-73002860D01*
X218908177Y-72891056D01*
X218908177Y-72891054D01*
X218918385Y-72880847D01*
X218918386Y-72880844D01*
X219463927Y-72335305D01*
X219525246Y-72301823D01*
X219527413Y-72301372D01*
X219528102Y-72301235D01*
X219528104Y-72301235D01*
X219682759Y-72270472D01*
X219828441Y-72210129D01*
X219959551Y-72122524D01*
X220071051Y-72011024D01*
X220158656Y-71879914D01*
X220158961Y-71879179D01*
X220198590Y-71783504D01*
X220218999Y-71734232D01*
X220249762Y-71579577D01*
X220249762Y-71421893D01*
X220249762Y-71421890D01*
X220249761Y-71421888D01*
X220219000Y-71267245D01*
X220218999Y-71267238D01*
X220218997Y-71267233D01*
X220158659Y-71121562D01*
X220158652Y-71121549D01*
X220071051Y-70990446D01*
X220071048Y-70990442D01*
X219959554Y-70878948D01*
X219959550Y-70878945D01*
X219828447Y-70791344D01*
X219828434Y-70791337D01*
X219685130Y-70731980D01*
X219630726Y-70688140D01*
X219618026Y-70664882D01*
X219558659Y-70521556D01*
X219558657Y-70521553D01*
X219558655Y-70521549D01*
X219471054Y-70390446D01*
X219471051Y-70390442D01*
X219359557Y-70278948D01*
X219359553Y-70278945D01*
X219228450Y-70191344D01*
X219228437Y-70191337D01*
X219082766Y-70130999D01*
X219082754Y-70130996D01*
X218928110Y-70100235D01*
X218928107Y-70100235D01*
X218770423Y-70100235D01*
X218770420Y-70100235D01*
X218615775Y-70130996D01*
X218615763Y-70130999D01*
X218470092Y-70191337D01*
X218470079Y-70191344D01*
X218338976Y-70278945D01*
X218338972Y-70278948D01*
X218227478Y-70390442D01*
X218227475Y-70390446D01*
X218139874Y-70521549D01*
X218139867Y-70521562D01*
X218079529Y-70667233D01*
X218079526Y-70667245D01*
X218053181Y-70799691D01*
X218020796Y-70861602D01*
X217960081Y-70896176D01*
X217931564Y-70899500D01*
X217329766Y-70899500D01*
X217262727Y-70879815D01*
X217260875Y-70878602D01*
X217129185Y-70790609D01*
X217129172Y-70790602D01*
X216983501Y-70730264D01*
X216983489Y-70730261D01*
X216828845Y-70699500D01*
X216828842Y-70699500D01*
X216671158Y-70699500D01*
X216671155Y-70699500D01*
X216516510Y-70730261D01*
X216516498Y-70730264D01*
X216370827Y-70790602D01*
X216370814Y-70790609D01*
X216239711Y-70878210D01*
X216239707Y-70878213D01*
X216128213Y-70989707D01*
X216128210Y-70989711D01*
X216040609Y-71120814D01*
X216040602Y-71120827D01*
X215980264Y-71266498D01*
X215980261Y-71266510D01*
X215949500Y-71421153D01*
X197000500Y-71421153D01*
X197000500Y-60769681D01*
X205199499Y-60769681D01*
X205199499Y-60927374D01*
X205230260Y-61082017D01*
X205230263Y-61082029D01*
X205290601Y-61227700D01*
X205290608Y-61227713D01*
X205378209Y-61358816D01*
X205378212Y-61358820D01*
X205489706Y-61470314D01*
X205489710Y-61470317D01*
X205620813Y-61557918D01*
X205620826Y-61557925D01*
X205758653Y-61615014D01*
X205766502Y-61618265D01*
X205850554Y-61634984D01*
X205921152Y-61649027D01*
X205921155Y-61649028D01*
X205921157Y-61649028D01*
X206078843Y-61649028D01*
X206078844Y-61649027D01*
X206233496Y-61618265D01*
X206379178Y-61557922D01*
X206510288Y-61470317D01*
X206621788Y-61358817D01*
X206709393Y-61227707D01*
X206769736Y-61082025D01*
X206800499Y-60927370D01*
X206800499Y-60769686D01*
X206800499Y-60769683D01*
X206800498Y-60769681D01*
X206769737Y-60615038D01*
X206769736Y-60615031D01*
X206728923Y-60516498D01*
X206709396Y-60469355D01*
X206709389Y-60469342D01*
X206621397Y-60337653D01*
X206600519Y-60270975D01*
X206600499Y-60268762D01*
X206600499Y-59832941D01*
X206620184Y-59765902D01*
X206636819Y-59745259D01*
X206671051Y-59711027D01*
X206671054Y-59711024D01*
X206758659Y-59579914D01*
X206819002Y-59434232D01*
X206849765Y-59279577D01*
X206849765Y-59121893D01*
X206849765Y-59121890D01*
X206849764Y-59121888D01*
X206819003Y-58967245D01*
X206819002Y-58967238D01*
X206779065Y-58870821D01*
X206758662Y-58821562D01*
X206758655Y-58821549D01*
X206671054Y-58690446D01*
X206671051Y-58690442D01*
X206559557Y-58578948D01*
X206559553Y-58578945D01*
X206428450Y-58491344D01*
X206428437Y-58491337D01*
X206282766Y-58430999D01*
X206282754Y-58430996D01*
X206128110Y-58400235D01*
X206128107Y-58400235D01*
X205970423Y-58400235D01*
X205970420Y-58400235D01*
X205815775Y-58430996D01*
X205815763Y-58430999D01*
X205670092Y-58491337D01*
X205670079Y-58491344D01*
X205538976Y-58578945D01*
X205538972Y-58578948D01*
X205427478Y-58690442D01*
X205427475Y-58690446D01*
X205339874Y-58821549D01*
X205339867Y-58821562D01*
X205279529Y-58967233D01*
X205279526Y-58967245D01*
X205248765Y-59121888D01*
X205248765Y-59279581D01*
X205279526Y-59434224D01*
X205279529Y-59434236D01*
X205339867Y-59579907D01*
X205339875Y-59579922D01*
X205378600Y-59637876D01*
X205399479Y-59704553D01*
X205399499Y-59706768D01*
X205399499Y-60268762D01*
X205379814Y-60335801D01*
X205378601Y-60337653D01*
X205290608Y-60469342D01*
X205290601Y-60469355D01*
X205230263Y-60615026D01*
X205230260Y-60615038D01*
X205199499Y-60769681D01*
X197000500Y-60769681D01*
X197000500Y-57421153D01*
X209449500Y-57421153D01*
X209449500Y-57578846D01*
X209480261Y-57733489D01*
X209480264Y-57733501D01*
X209540602Y-57879172D01*
X209540609Y-57879185D01*
X209628210Y-58010288D01*
X209628213Y-58010292D01*
X209739707Y-58121786D01*
X209739711Y-58121789D01*
X209870814Y-58209390D01*
X209870827Y-58209397D01*
X209994828Y-58260759D01*
X210016503Y-58269737D01*
X210171153Y-58300499D01*
X210171156Y-58300500D01*
X210171158Y-58300500D01*
X210328844Y-58300500D01*
X210328845Y-58300499D01*
X210483497Y-58269737D01*
X210629179Y-58209394D01*
X210706609Y-58157657D01*
X210773286Y-58136779D01*
X210840666Y-58155263D01*
X210887357Y-58207242D01*
X210899500Y-58260759D01*
X210899500Y-66079056D01*
X210940423Y-66231783D01*
X210940426Y-66231790D01*
X211019475Y-66368709D01*
X211019479Y-66368714D01*
X211019480Y-66368716D01*
X211131284Y-66480520D01*
X211131286Y-66480521D01*
X211131290Y-66480524D01*
X211268209Y-66559573D01*
X211268216Y-66559577D01*
X211420943Y-66600500D01*
X211579057Y-66600500D01*
X213500903Y-66600500D01*
X213567942Y-66620185D01*
X213613697Y-66672989D01*
X213623641Y-66742147D01*
X213594616Y-66805703D01*
X213588597Y-66812167D01*
X213453232Y-66947533D01*
X213391909Y-66981017D01*
X213389743Y-66981468D01*
X213234401Y-67012368D01*
X213234391Y-67012371D01*
X213088720Y-67072709D01*
X213088707Y-67072716D01*
X212957604Y-67160317D01*
X212957600Y-67160320D01*
X212846106Y-67271814D01*
X212846103Y-67271818D01*
X212758502Y-67402921D01*
X212758495Y-67402934D01*
X212698157Y-67548605D01*
X212698154Y-67548617D01*
X212667393Y-67703260D01*
X212667393Y-67860953D01*
X212698154Y-68015596D01*
X212698157Y-68015608D01*
X212758495Y-68161279D01*
X212758502Y-68161292D01*
X212846103Y-68292395D01*
X212846106Y-68292399D01*
X212957600Y-68403893D01*
X212957604Y-68403896D01*
X213088707Y-68491497D01*
X213088720Y-68491504D01*
X213234391Y-68551842D01*
X213234396Y-68551844D01*
X213389046Y-68582606D01*
X213389049Y-68582607D01*
X213389051Y-68582607D01*
X213546737Y-68582607D01*
X213546738Y-68582606D01*
X213701390Y-68551844D01*
X213847072Y-68491501D01*
X213978182Y-68403896D01*
X214089682Y-68292396D01*
X214177287Y-68161286D01*
X214237630Y-68015604D01*
X214257006Y-67918192D01*
X214268531Y-67860257D01*
X214300916Y-67798346D01*
X214302367Y-67796867D01*
X214424952Y-67674282D01*
X214486270Y-67640800D01*
X214555962Y-67645784D01*
X214560063Y-67647398D01*
X214584971Y-67657715D01*
X214615762Y-67670470D01*
X214615764Y-67670470D01*
X214615768Y-67670472D01*
X214770418Y-67701234D01*
X214770421Y-67701235D01*
X214770423Y-67701235D01*
X214928109Y-67701235D01*
X214928110Y-67701234D01*
X215082762Y-67670472D01*
X215228444Y-67610129D01*
X215359554Y-67522524D01*
X215471054Y-67411024D01*
X215558659Y-67279914D01*
X215562013Y-67271818D01*
X215619000Y-67134236D01*
X215619002Y-67134232D01*
X215649765Y-66979577D01*
X215649765Y-66821893D01*
X215649765Y-66821890D01*
X215649764Y-66821888D01*
X215635205Y-66748691D01*
X215641432Y-66679099D01*
X215684295Y-66623922D01*
X215750185Y-66600678D01*
X215756822Y-66600500D01*
X240170234Y-66600500D01*
X240237273Y-66620185D01*
X240239125Y-66621398D01*
X240370814Y-66709390D01*
X240370827Y-66709397D01*
X240449894Y-66742147D01*
X240516503Y-66769737D01*
X240671153Y-66800499D01*
X240671156Y-66800500D01*
X240671158Y-66800500D01*
X240828844Y-66800500D01*
X240828845Y-66800499D01*
X240983497Y-66769737D01*
X241129179Y-66709394D01*
X241260289Y-66621789D01*
X241371789Y-66510289D01*
X241422398Y-66434548D01*
X241476010Y-66389743D01*
X241545335Y-66381036D01*
X241608363Y-66411190D01*
X241645082Y-66470634D01*
X241649500Y-66503439D01*
X241649500Y-70775500D01*
X241629815Y-70842539D01*
X241577011Y-70888294D01*
X241525500Y-70899500D01*
X238636555Y-70899500D01*
X238569516Y-70879815D01*
X238523761Y-70827011D01*
X238513817Y-70757853D01*
X238518840Y-70739588D01*
X238517969Y-70739324D01*
X238519731Y-70733509D01*
X238519737Y-70733497D01*
X238550500Y-70578842D01*
X238550500Y-70421158D01*
X238550500Y-70421155D01*
X238550499Y-70421153D01*
X238519738Y-70266510D01*
X238519737Y-70266503D01*
X238519735Y-70266498D01*
X238459397Y-70120827D01*
X238459390Y-70120814D01*
X238371789Y-69989711D01*
X238371786Y-69989707D01*
X238260292Y-69878213D01*
X238260288Y-69878210D01*
X238129185Y-69790609D01*
X238129172Y-69790602D01*
X237983501Y-69730264D01*
X237983489Y-69730261D01*
X237828845Y-69699500D01*
X237828842Y-69699500D01*
X237671158Y-69699500D01*
X237671155Y-69699500D01*
X237516510Y-69730261D01*
X237516498Y-69730264D01*
X237370827Y-69790602D01*
X237370814Y-69790609D01*
X237239711Y-69878210D01*
X237239707Y-69878213D01*
X237128210Y-69989710D01*
X237058266Y-70094391D01*
X237004654Y-70139196D01*
X236955164Y-70149500D01*
X233079766Y-70149500D01*
X233012727Y-70129815D01*
X233010875Y-70128602D01*
X232879185Y-70040609D01*
X232879172Y-70040602D01*
X232733501Y-69980264D01*
X232733489Y-69980261D01*
X232578845Y-69949500D01*
X232578842Y-69949500D01*
X232421158Y-69949500D01*
X232421155Y-69949500D01*
X232266510Y-69980261D01*
X232266498Y-69980264D01*
X232120827Y-70040602D01*
X232120814Y-70040609D01*
X231989711Y-70128210D01*
X231989707Y-70128213D01*
X231878213Y-70239707D01*
X231878210Y-70239711D01*
X231790609Y-70370814D01*
X231790602Y-70370827D01*
X231730264Y-70516498D01*
X231730261Y-70516510D01*
X231699500Y-70671153D01*
X231699500Y-70828846D01*
X231730261Y-70983489D01*
X231730264Y-70983501D01*
X231779575Y-71102549D01*
X231787044Y-71172018D01*
X231779575Y-71197453D01*
X231730264Y-71316501D01*
X231730261Y-71316513D01*
X231699500Y-71471156D01*
X231699500Y-71628849D01*
X231730261Y-71783492D01*
X231730264Y-71783504D01*
X231790602Y-71929175D01*
X231790609Y-71929188D01*
X231878210Y-72060291D01*
X231878213Y-72060295D01*
X231989707Y-72171789D01*
X231989711Y-72171792D01*
X232120814Y-72259393D01*
X232120827Y-72259400D01*
X232222158Y-72301372D01*
X232266503Y-72319740D01*
X232412938Y-72348868D01*
X232421153Y-72350502D01*
X232421156Y-72350503D01*
X232421158Y-72350503D01*
X232578844Y-72350503D01*
X232578845Y-72350502D01*
X232733497Y-72319740D01*
X232879179Y-72259397D01*
X233010289Y-72171792D01*
X233045261Y-72136820D01*
X233106583Y-72103334D01*
X233132943Y-72100500D01*
X242329055Y-72100500D01*
X242329057Y-72100500D01*
X242481784Y-72059577D01*
X242618716Y-71980520D01*
X242730520Y-71868716D01*
X242809577Y-71731784D01*
X242850500Y-71579057D01*
X242850500Y-62670943D01*
X242809577Y-62518216D01*
X242753541Y-62421158D01*
X242730524Y-62381290D01*
X242730521Y-62381286D01*
X242730520Y-62381284D01*
X242618716Y-62269480D01*
X242618715Y-62269479D01*
X242614385Y-62265149D01*
X242614374Y-62265139D01*
X242487590Y-62138355D01*
X242487588Y-62138352D01*
X242368717Y-62019481D01*
X242368716Y-62019480D01*
X242281904Y-61969360D01*
X242281904Y-61969359D01*
X242281900Y-61969358D01*
X242231785Y-61940423D01*
X242079057Y-61899499D01*
X241920943Y-61899499D01*
X241913347Y-61899499D01*
X241913331Y-61899500D01*
X236829766Y-61899500D01*
X236762727Y-61879815D01*
X236760875Y-61878602D01*
X236629185Y-61790609D01*
X236629172Y-61790602D01*
X236483501Y-61730264D01*
X236483491Y-61730261D01*
X236372157Y-61708115D01*
X236310246Y-61675730D01*
X236275672Y-61615014D01*
X236279413Y-61545244D01*
X236320279Y-61488573D01*
X236348893Y-61471938D01*
X236379179Y-61459394D01*
X236379185Y-61459390D01*
X236510875Y-61371398D01*
X236577553Y-61350520D01*
X236579766Y-61350500D01*
X237020234Y-61350500D01*
X237087273Y-61370185D01*
X237089125Y-61371398D01*
X237220814Y-61459390D01*
X237220827Y-61459397D01*
X237366498Y-61519735D01*
X237366503Y-61519737D01*
X237521153Y-61550499D01*
X237521156Y-61550500D01*
X237521158Y-61550500D01*
X237678844Y-61550500D01*
X237678845Y-61550499D01*
X237833497Y-61519737D01*
X237979179Y-61459394D01*
X238110289Y-61371789D01*
X238221789Y-61260289D01*
X238309394Y-61129179D01*
X238369737Y-60983497D01*
X238400500Y-60828842D01*
X238400500Y-60671158D01*
X238400500Y-60671155D01*
X238400499Y-60671153D01*
X238389337Y-60615038D01*
X238369737Y-60516503D01*
X238350208Y-60469355D01*
X238309397Y-60370827D01*
X238309390Y-60370814D01*
X238221789Y-60239711D01*
X238221786Y-60239707D01*
X238110292Y-60128213D01*
X238110284Y-60128207D01*
X238072712Y-60103102D01*
X238027906Y-60049490D01*
X238019199Y-59980165D01*
X238049353Y-59917138D01*
X238072712Y-59896898D01*
X238099279Y-59879145D01*
X238110289Y-59871789D01*
X238221789Y-59760289D01*
X238309394Y-59629179D01*
X238369737Y-59483497D01*
X238400500Y-59328842D01*
X238400500Y-59171158D01*
X238400500Y-59171155D01*
X238400499Y-59171153D01*
X238369737Y-59016503D01*
X238349329Y-58967233D01*
X238309397Y-58870827D01*
X238309390Y-58870814D01*
X238221789Y-58739711D01*
X238221786Y-58739707D01*
X238110292Y-58628213D01*
X238110288Y-58628210D01*
X237979185Y-58540609D01*
X237979172Y-58540602D01*
X237833501Y-58480264D01*
X237833489Y-58480261D01*
X237678845Y-58449500D01*
X237678842Y-58449500D01*
X237521158Y-58449500D01*
X237521155Y-58449500D01*
X237366510Y-58480261D01*
X237366498Y-58480264D01*
X237220827Y-58540602D01*
X237220814Y-58540609D01*
X237089125Y-58628602D01*
X237022447Y-58649480D01*
X237020234Y-58649500D01*
X236579766Y-58649500D01*
X236512727Y-58629815D01*
X236510875Y-58628602D01*
X236379185Y-58540609D01*
X236379172Y-58540602D01*
X236233501Y-58480264D01*
X236233489Y-58480261D01*
X236078845Y-58449500D01*
X236078842Y-58449500D01*
X235921158Y-58449500D01*
X235921155Y-58449500D01*
X235766510Y-58480261D01*
X235766498Y-58480264D01*
X235620827Y-58540602D01*
X235620814Y-58540609D01*
X235489711Y-58628210D01*
X235489707Y-58628213D01*
X235378213Y-58739707D01*
X235378210Y-58739711D01*
X235290609Y-58870814D01*
X235290602Y-58870827D01*
X235230264Y-59016498D01*
X235230261Y-59016510D01*
X235199500Y-59171153D01*
X235199500Y-59328846D01*
X235230261Y-59483489D01*
X235230264Y-59483501D01*
X235290602Y-59629172D01*
X235290609Y-59629185D01*
X235378210Y-59760288D01*
X235378213Y-59760292D01*
X235489707Y-59871786D01*
X235489710Y-59871788D01*
X235489711Y-59871789D01*
X235515219Y-59888833D01*
X235527289Y-59896898D01*
X235572093Y-59950511D01*
X235580800Y-60019836D01*
X235550645Y-60082863D01*
X235527289Y-60103102D01*
X235489707Y-60128213D01*
X235378213Y-60239707D01*
X235378210Y-60239711D01*
X235290609Y-60370814D01*
X235290602Y-60370827D01*
X235230264Y-60516498D01*
X235230261Y-60516510D01*
X235199500Y-60671153D01*
X235199500Y-60828846D01*
X235230261Y-60983489D01*
X235230264Y-60983501D01*
X235290602Y-61129172D01*
X235290609Y-61129185D01*
X235378210Y-61260288D01*
X235378213Y-61260292D01*
X235489707Y-61371786D01*
X235489711Y-61371789D01*
X235620814Y-61459390D01*
X235620827Y-61459397D01*
X235766498Y-61519735D01*
X235766503Y-61519737D01*
X235825735Y-61531519D01*
X235877841Y-61541884D01*
X235939752Y-61574269D01*
X235974326Y-61634984D01*
X235970587Y-61704754D01*
X235929720Y-61761426D01*
X235901104Y-61778061D01*
X235870829Y-61790601D01*
X235870814Y-61790609D01*
X235739711Y-61878210D01*
X235739707Y-61878213D01*
X235628213Y-61989707D01*
X235628210Y-61989711D01*
X235540609Y-62120814D01*
X235540602Y-62120827D01*
X235480264Y-62266498D01*
X235480261Y-62266510D01*
X235449500Y-62421153D01*
X235449500Y-62578846D01*
X235480261Y-62733489D01*
X235480264Y-62733501D01*
X235540602Y-62879172D01*
X235540609Y-62879185D01*
X235628210Y-63010288D01*
X235628213Y-63010292D01*
X235739707Y-63121786D01*
X235739711Y-63121789D01*
X235870814Y-63209390D01*
X235870827Y-63209397D01*
X236016498Y-63269735D01*
X236016503Y-63269737D01*
X236171153Y-63300499D01*
X236171156Y-63300500D01*
X236171158Y-63300500D01*
X236328844Y-63300500D01*
X236328845Y-63300499D01*
X236483497Y-63269737D01*
X236629179Y-63209394D01*
X236683663Y-63172989D01*
X236760875Y-63121398D01*
X236827553Y-63100520D01*
X236829766Y-63100500D01*
X241525500Y-63100500D01*
X241592539Y-63120185D01*
X241638294Y-63172989D01*
X241649500Y-63224500D01*
X241649500Y-65496560D01*
X241629815Y-65563599D01*
X241577011Y-65609354D01*
X241507853Y-65619298D01*
X241444297Y-65590273D01*
X241422398Y-65565451D01*
X241371789Y-65489711D01*
X241371786Y-65489707D01*
X241260292Y-65378213D01*
X241260288Y-65378210D01*
X241129185Y-65290609D01*
X241129172Y-65290602D01*
X240983501Y-65230264D01*
X240983489Y-65230261D01*
X240828845Y-65199500D01*
X240828842Y-65199500D01*
X240671158Y-65199500D01*
X240671155Y-65199500D01*
X240516510Y-65230261D01*
X240516498Y-65230264D01*
X240370827Y-65290602D01*
X240370814Y-65290609D01*
X240239125Y-65378602D01*
X240172447Y-65399480D01*
X240170234Y-65399500D01*
X212224500Y-65399500D01*
X212157461Y-65379815D01*
X212111706Y-65327011D01*
X212100500Y-65275500D01*
X212100500Y-57350097D01*
X212120185Y-57283058D01*
X212136813Y-57262421D01*
X212286208Y-57113026D01*
X212347527Y-57079544D01*
X212417219Y-57084528D01*
X212473153Y-57126399D01*
X212488447Y-57153257D01*
X212540604Y-57279175D01*
X212540609Y-57279185D01*
X212628210Y-57410288D01*
X212628213Y-57410292D01*
X212739707Y-57521786D01*
X212739711Y-57521789D01*
X212870814Y-57609390D01*
X212870827Y-57609397D01*
X213016498Y-57669735D01*
X213016503Y-57669737D01*
X213171153Y-57700499D01*
X213171156Y-57700500D01*
X213171158Y-57700500D01*
X213328844Y-57700500D01*
X213328845Y-57700499D01*
X213483497Y-57669737D01*
X213629179Y-57609394D01*
X213760289Y-57521789D01*
X213871789Y-57410289D01*
X213959394Y-57279179D01*
X214019737Y-57133497D01*
X214050500Y-56978842D01*
X214050500Y-56821158D01*
X214050500Y-56821155D01*
X214050499Y-56821153D01*
X214027210Y-56704074D01*
X214019737Y-56666503D01*
X214019735Y-56666498D01*
X213959397Y-56520827D01*
X213959390Y-56520814D01*
X213871398Y-56389125D01*
X213850520Y-56322447D01*
X213850500Y-56320234D01*
X213850500Y-56222416D01*
X213850499Y-56222412D01*
X213836766Y-56171157D01*
X213836766Y-56171158D01*
X213809577Y-56069686D01*
X213778871Y-56016503D01*
X213730520Y-55932755D01*
X213618716Y-55820951D01*
X213618715Y-55820950D01*
X213614385Y-55816620D01*
X213614374Y-55816610D01*
X213110220Y-55312456D01*
X213076735Y-55251133D01*
X213076284Y-55200583D01*
X213100500Y-55078844D01*
X213100500Y-54921155D01*
X213100499Y-54921153D01*
X213069738Y-54766510D01*
X213069737Y-54766503D01*
X213069735Y-54766498D01*
X213009397Y-54620827D01*
X213009390Y-54620814D01*
X212921789Y-54489711D01*
X212921786Y-54489707D01*
X212810292Y-54378213D01*
X212810288Y-54378210D01*
X212679185Y-54290609D01*
X212679172Y-54290602D01*
X212555945Y-54239561D01*
X212501541Y-54195721D01*
X212479476Y-54129427D01*
X212496755Y-54061727D01*
X212547892Y-54014116D01*
X212555945Y-54010439D01*
X212679172Y-53959397D01*
X212679172Y-53959396D01*
X212679179Y-53959394D01*
X212810289Y-53871789D01*
X212921789Y-53760289D01*
X213009394Y-53629179D01*
X213069737Y-53483497D01*
X213100500Y-53328842D01*
X213100500Y-53171158D01*
X213100500Y-53171155D01*
X213100499Y-53171153D01*
X213069738Y-53016510D01*
X213069737Y-53016503D01*
X213067163Y-53010288D01*
X213009397Y-52870827D01*
X213009390Y-52870814D01*
X212921789Y-52739711D01*
X212921786Y-52739707D01*
X212810292Y-52628213D01*
X212810288Y-52628210D01*
X212679185Y-52540609D01*
X212679173Y-52540602D01*
X212652674Y-52529627D01*
X212533501Y-52480264D01*
X212533489Y-52480261D01*
X212378845Y-52449500D01*
X212378842Y-52449500D01*
X212221158Y-52449500D01*
X212221155Y-52449500D01*
X212066510Y-52480261D01*
X212066498Y-52480264D01*
X211920827Y-52540602D01*
X211920814Y-52540609D01*
X211789125Y-52628602D01*
X211722447Y-52649480D01*
X211720234Y-52649500D01*
X211270940Y-52649500D01*
X211230019Y-52660464D01*
X211230019Y-52660465D01*
X211118216Y-52690423D01*
X211118214Y-52690424D01*
X211110366Y-52692527D01*
X211110180Y-52691834D01*
X211071637Y-52699500D01*
X211021155Y-52699500D01*
X210866510Y-52730261D01*
X210866498Y-52730264D01*
X210720827Y-52790602D01*
X210720814Y-52790609D01*
X210589711Y-52878210D01*
X210589707Y-52878213D01*
X210478213Y-52989707D01*
X210478210Y-52989711D01*
X210390609Y-53120814D01*
X210390602Y-53120827D01*
X210330264Y-53266498D01*
X210330261Y-53266510D01*
X210299500Y-53421153D01*
X210299500Y-53578846D01*
X210330261Y-53733489D01*
X210330264Y-53733501D01*
X210390602Y-53879172D01*
X210390609Y-53879185D01*
X210478210Y-54010288D01*
X210478213Y-54010292D01*
X210589707Y-54121786D01*
X210589710Y-54121788D01*
X210589711Y-54121789D01*
X210601142Y-54129427D01*
X210627289Y-54146898D01*
X210672093Y-54200511D01*
X210680800Y-54269836D01*
X210650645Y-54332863D01*
X210627289Y-54353102D01*
X210589707Y-54378213D01*
X210478213Y-54489707D01*
X210478210Y-54489711D01*
X210390609Y-54620814D01*
X210390602Y-54620827D01*
X210330264Y-54766498D01*
X210330261Y-54766510D01*
X210299500Y-54921153D01*
X210299500Y-55078846D01*
X210330261Y-55233489D01*
X210330264Y-55233501D01*
X210390602Y-55379172D01*
X210390609Y-55379185D01*
X210478210Y-55510288D01*
X210478213Y-55510292D01*
X210589707Y-55621786D01*
X210589711Y-55621789D01*
X210720814Y-55709390D01*
X210720827Y-55709397D01*
X210847781Y-55761982D01*
X210902185Y-55805822D01*
X210924250Y-55872116D01*
X210906971Y-55939816D01*
X210888010Y-55964224D01*
X210174758Y-56677476D01*
X210113435Y-56710961D01*
X210111269Y-56711412D01*
X210016508Y-56730261D01*
X210016498Y-56730264D01*
X209870827Y-56790602D01*
X209870814Y-56790609D01*
X209739711Y-56878210D01*
X209739707Y-56878213D01*
X209628213Y-56989707D01*
X209628210Y-56989711D01*
X209540609Y-57120814D01*
X209540602Y-57120827D01*
X209480264Y-57266498D01*
X209480261Y-57266510D01*
X209449500Y-57421153D01*
X197000500Y-57421153D01*
X197000500Y-52421153D01*
X213449500Y-52421153D01*
X213449500Y-52578846D01*
X213480261Y-52733489D01*
X213480264Y-52733501D01*
X213540602Y-52879172D01*
X213540609Y-52879185D01*
X213628210Y-53010288D01*
X213628213Y-53010292D01*
X213739707Y-53121786D01*
X213739711Y-53121789D01*
X213870814Y-53209390D01*
X213870827Y-53209397D01*
X214008683Y-53266498D01*
X214016503Y-53269737D01*
X214171153Y-53300499D01*
X214171156Y-53300500D01*
X214171158Y-53300500D01*
X214221638Y-53300500D01*
X214260181Y-53308165D01*
X214260367Y-53307473D01*
X214268213Y-53309575D01*
X214268216Y-53309577D01*
X214380019Y-53339534D01*
X214420942Y-53350500D01*
X214420943Y-53350500D01*
X234170234Y-53350500D01*
X234237273Y-53370185D01*
X234239125Y-53371398D01*
X234370814Y-53459390D01*
X234370827Y-53459397D01*
X234516498Y-53519735D01*
X234516503Y-53519737D01*
X234671153Y-53550499D01*
X234671156Y-53550500D01*
X234671158Y-53550500D01*
X234828844Y-53550500D01*
X234828845Y-53550499D01*
X234983497Y-53519737D01*
X235129179Y-53459394D01*
X235260289Y-53371789D01*
X235371789Y-53260289D01*
X235459394Y-53129179D01*
X235462854Y-53120827D01*
X235473067Y-53096166D01*
X235519737Y-52983497D01*
X235550500Y-52828842D01*
X235550500Y-52671158D01*
X235550500Y-52671155D01*
X235550499Y-52671153D01*
X235524531Y-52540606D01*
X235519737Y-52516503D01*
X235519735Y-52516498D01*
X235459397Y-52370827D01*
X235459390Y-52370814D01*
X235371789Y-52239711D01*
X235371786Y-52239707D01*
X235260292Y-52128213D01*
X235260288Y-52128210D01*
X235129185Y-52040609D01*
X235129172Y-52040602D01*
X234983501Y-51980264D01*
X234983489Y-51980261D01*
X234828845Y-51949500D01*
X234828842Y-51949500D01*
X234671158Y-51949500D01*
X234671155Y-51949500D01*
X234516510Y-51980261D01*
X234516498Y-51980264D01*
X234370827Y-52040602D01*
X234370814Y-52040609D01*
X234239125Y-52128602D01*
X234172447Y-52149480D01*
X234170234Y-52149500D01*
X215044836Y-52149500D01*
X214977797Y-52129815D01*
X214941734Y-52094391D01*
X214871789Y-51989710D01*
X214760292Y-51878213D01*
X214760288Y-51878210D01*
X214629185Y-51790609D01*
X214629172Y-51790602D01*
X214483501Y-51730264D01*
X214483489Y-51730261D01*
X214328845Y-51699500D01*
X214328842Y-51699500D01*
X214171158Y-51699500D01*
X214171155Y-51699500D01*
X214016510Y-51730261D01*
X214016498Y-51730264D01*
X213870827Y-51790602D01*
X213870814Y-51790609D01*
X213739711Y-51878210D01*
X213739707Y-51878213D01*
X213628213Y-51989707D01*
X213628210Y-51989711D01*
X213540609Y-52120814D01*
X213540602Y-52120827D01*
X213480264Y-52266498D01*
X213480261Y-52266510D01*
X213449500Y-52421153D01*
X197000500Y-52421153D01*
X197000500Y-50874500D01*
X197020185Y-50807461D01*
X197072989Y-50761706D01*
X197124500Y-50750500D01*
X245875500Y-50750500D01*
X245942539Y-50770185D01*
G37*
%TD.AperFunction*%
%TD*%
M02*
