M48
; DRILL file KiCad 10.0.6 date 2026-08-31T18:59:21
; FORMAT={-:-/ absolute / metric / decimal}
; #@! TF.CreationDate,2026-08-31T18:59:21+02:00
; #@! TF.GenerationSoftware,Kicad,Pcbnew,10.0.6
; #@! TF.FileFunction,Plated,1,2,PTH
FMAT,2
METRIC
; #@! TA.AperFunction,Plated,PTH,ComponentDrill
T1C0.200
; #@! TA.AperFunction,Plated,PTH,ViaDrill
T2C0.300
; #@! TA.AperFunction,Plated,PTH,ComponentDrill
T3C0.600
; #@! TA.AperFunction,Plated,PTH,ComponentDrill
T4C1.000
%
G90
G05
T1
X224.35Y-57.45
X224.35Y-58.55
X224.9Y-56.9
X224.9Y-58.0
X224.9Y-59.1
X225.45Y-57.45
X225.45Y-58.55
X226.0Y-56.9
X226.0Y-58.0
X226.0Y-59.1
X226.55Y-57.45
X226.55Y-58.55
T2
X199.5Y-70.75
X200.5Y-76.75
X202.221Y-85.971
X203.25Y-65.25
X204.75Y-51.5
X205.25Y-77.75
X206.0Y-60.849
X206.049Y-59.201
X207.25Y-86.0
X209.25Y-89.25
X209.5Y-54.5
X210.25Y-57.5
X211.0Y-52.5
X211.1Y-53.5
X211.1Y-55.0
X212.3Y-53.25
X212.3Y-55.0
X212.3Y-56.25
X213.25Y-56.9
X213.468Y-67.782
X214.25Y-52.5
X214.849Y-66.901
X216.5Y-85.25
X216.75Y-71.5
X217.0Y-82.75
X217.25Y-80.5
X217.303Y-72.522
X218.25Y-77.75
X218.5Y-86.0
X218.849Y-70.901
X219.449Y-71.501
X220.5Y-77.0
X221.1Y-82.75
X221.25Y-81.5
X222.53Y-85.4
X224.25Y-68.0
X224.45Y-75.25
X225.826Y-84.326
X226.25Y-81.65
X226.5Y-77.25
X226.5Y-83.6
X227.5Y-81.0
X227.75Y-82.25
X228.5Y-86.0
X232.5Y-70.75
X232.5Y-71.55
X232.5Y-81.25
X234.75Y-52.75
X234.9Y-83.0
X234.9Y-86.0
X235.5Y-75.25
X236.0Y-59.25
X236.0Y-60.75
X236.25Y-62.5
X236.75Y-83.0
X237.0Y-86.0
X237.6Y-59.25
X237.6Y-60.75
X237.75Y-70.5
X238.0Y-86.5
X239.75Y-88.0
X240.312Y-84.25
X240.75Y-66.0
X241.512Y-84.25
X241.75Y-82.5
X241.826Y-87.826
T4
X198.5Y-85.46
X198.5Y-88.0
X198.5Y-90.54
X198.5Y-93.08
X244.5Y-86.0
X244.5Y-88.54
X244.5Y-91.08
X244.5Y-93.62
T3
G00X217.36Y-87.82
M15
G01X217.36Y-88.92
M16
G05
G00X217.36Y-92.25
M15
G01X217.36Y-92.85
M16
G05
G00X226.0Y-87.82
M15
G01X226.0Y-88.92
M16
G05
G00X226.0Y-92.25
M15
G01X226.0Y-92.85
M16
G05
M30
