%TF.GenerationSoftware,KiCad,Pcbnew,10.0.6*%
%TF.CreationDate,2026-08-31T18:58:46+02:00*%
%TF.ProjectId,env-station,656e762d-7374-4617-9469-6f6e2e6b6963,rev?*%
%TF.SameCoordinates,Original*%
%TF.FileFunction,Legend,Top*%
%TF.FilePolarity,Positive*%
%FSLAX46Y46*%
G04 Gerber Fmt 4.6, Leading zero omitted, Abs format (unit mm)*
G04 Created by KiCad (PCBNEW 10.0.6) date 2026-08-31 18:58:46*
%MOMM*%
%LPD*%
G01*
G04 APERTURE LIST*
%ADD10C,0.150000*%
%ADD11C,0.125000*%
%ADD12C,0.120000*%
G04 APERTURE END LIST*
D10*
X213357319Y-64691904D02*
X214166842Y-64691904D01*
X214166842Y-64691904D02*
X214262080Y-64644285D01*
X214262080Y-64644285D02*
X214309700Y-64596666D01*
X214309700Y-64596666D02*
X214357319Y-64501428D01*
X214357319Y-64501428D02*
X214357319Y-64310952D01*
X214357319Y-64310952D02*
X214309700Y-64215714D01*
X214309700Y-64215714D02*
X214262080Y-64168095D01*
X214262080Y-64168095D02*
X214166842Y-64120476D01*
X214166842Y-64120476D02*
X213357319Y-64120476D01*
X213452557Y-63691904D02*
X213404938Y-63644285D01*
X213404938Y-63644285D02*
X213357319Y-63549047D01*
X213357319Y-63549047D02*
X213357319Y-63310952D01*
X213357319Y-63310952D02*
X213404938Y-63215714D01*
X213404938Y-63215714D02*
X213452557Y-63168095D01*
X213452557Y-63168095D02*
X213547795Y-63120476D01*
X213547795Y-63120476D02*
X213643033Y-63120476D01*
X213643033Y-63120476D02*
X213785890Y-63168095D01*
X213785890Y-63168095D02*
X214357319Y-63739523D01*
X214357319Y-63739523D02*
X214357319Y-63120476D01*
X239083333Y-53204819D02*
X238750000Y-52728628D01*
X238511905Y-53204819D02*
X238511905Y-52204819D01*
X238511905Y-52204819D02*
X238892857Y-52204819D01*
X238892857Y-52204819D02*
X238988095Y-52252438D01*
X238988095Y-52252438D02*
X239035714Y-52300057D01*
X239035714Y-52300057D02*
X239083333Y-52395295D01*
X239083333Y-52395295D02*
X239083333Y-52538152D01*
X239083333Y-52538152D02*
X239035714Y-52633390D01*
X239035714Y-52633390D02*
X238988095Y-52681009D01*
X238988095Y-52681009D02*
X238892857Y-52728628D01*
X238892857Y-52728628D02*
X238511905Y-52728628D01*
X239940476Y-52204819D02*
X239750000Y-52204819D01*
X239750000Y-52204819D02*
X239654762Y-52252438D01*
X239654762Y-52252438D02*
X239607143Y-52300057D01*
X239607143Y-52300057D02*
X239511905Y-52442914D01*
X239511905Y-52442914D02*
X239464286Y-52633390D01*
X239464286Y-52633390D02*
X239464286Y-53014342D01*
X239464286Y-53014342D02*
X239511905Y-53109580D01*
X239511905Y-53109580D02*
X239559524Y-53157200D01*
X239559524Y-53157200D02*
X239654762Y-53204819D01*
X239654762Y-53204819D02*
X239845238Y-53204819D01*
X239845238Y-53204819D02*
X239940476Y-53157200D01*
X239940476Y-53157200D02*
X239988095Y-53109580D01*
X239988095Y-53109580D02*
X240035714Y-53014342D01*
X240035714Y-53014342D02*
X240035714Y-52776247D01*
X240035714Y-52776247D02*
X239988095Y-52681009D01*
X239988095Y-52681009D02*
X239940476Y-52633390D01*
X239940476Y-52633390D02*
X239845238Y-52585771D01*
X239845238Y-52585771D02*
X239654762Y-52585771D01*
X239654762Y-52585771D02*
X239559524Y-52633390D01*
X239559524Y-52633390D02*
X239511905Y-52681009D01*
X239511905Y-52681009D02*
X239464286Y-52776247D01*
X207166667Y-67157200D02*
X207309524Y-67204819D01*
X207309524Y-67204819D02*
X207547619Y-67204819D01*
X207547619Y-67204819D02*
X207642857Y-67157200D01*
X207642857Y-67157200D02*
X207690476Y-67109580D01*
X207690476Y-67109580D02*
X207738095Y-67014342D01*
X207738095Y-67014342D02*
X207738095Y-66919104D01*
X207738095Y-66919104D02*
X207690476Y-66823866D01*
X207690476Y-66823866D02*
X207642857Y-66776247D01*
X207642857Y-66776247D02*
X207547619Y-66728628D01*
X207547619Y-66728628D02*
X207357143Y-66681009D01*
X207357143Y-66681009D02*
X207261905Y-66633390D01*
X207261905Y-66633390D02*
X207214286Y-66585771D01*
X207214286Y-66585771D02*
X207166667Y-66490533D01*
X207166667Y-66490533D02*
X207166667Y-66395295D01*
X207166667Y-66395295D02*
X207214286Y-66300057D01*
X207214286Y-66300057D02*
X207261905Y-66252438D01*
X207261905Y-66252438D02*
X207357143Y-66204819D01*
X207357143Y-66204819D02*
X207595238Y-66204819D01*
X207595238Y-66204819D02*
X207738095Y-66252438D01*
X208071429Y-66204819D02*
X208309524Y-67204819D01*
X208309524Y-67204819D02*
X208500000Y-66490533D01*
X208500000Y-66490533D02*
X208690476Y-67204819D01*
X208690476Y-67204819D02*
X208928572Y-66204819D01*
X209833333Y-67204819D02*
X209261905Y-67204819D01*
X209547619Y-67204819D02*
X209547619Y-66204819D01*
X209547619Y-66204819D02*
X209452381Y-66347676D01*
X209452381Y-66347676D02*
X209357143Y-66442914D01*
X209357143Y-66442914D02*
X209261905Y-66490533D01*
X200316667Y-62807200D02*
X200459524Y-62854819D01*
X200459524Y-62854819D02*
X200697619Y-62854819D01*
X200697619Y-62854819D02*
X200792857Y-62807200D01*
X200792857Y-62807200D02*
X200840476Y-62759580D01*
X200840476Y-62759580D02*
X200888095Y-62664342D01*
X200888095Y-62664342D02*
X200888095Y-62569104D01*
X200888095Y-62569104D02*
X200840476Y-62473866D01*
X200840476Y-62473866D02*
X200792857Y-62426247D01*
X200792857Y-62426247D02*
X200697619Y-62378628D01*
X200697619Y-62378628D02*
X200507143Y-62331009D01*
X200507143Y-62331009D02*
X200411905Y-62283390D01*
X200411905Y-62283390D02*
X200364286Y-62235771D01*
X200364286Y-62235771D02*
X200316667Y-62140533D01*
X200316667Y-62140533D02*
X200316667Y-62045295D01*
X200316667Y-62045295D02*
X200364286Y-61950057D01*
X200364286Y-61950057D02*
X200411905Y-61902438D01*
X200411905Y-61902438D02*
X200507143Y-61854819D01*
X200507143Y-61854819D02*
X200745238Y-61854819D01*
X200745238Y-61854819D02*
X200888095Y-61902438D01*
X201221429Y-61854819D02*
X201459524Y-62854819D01*
X201459524Y-62854819D02*
X201650000Y-62140533D01*
X201650000Y-62140533D02*
X201840476Y-62854819D01*
X201840476Y-62854819D02*
X202078572Y-61854819D01*
X202411905Y-61950057D02*
X202459524Y-61902438D01*
X202459524Y-61902438D02*
X202554762Y-61854819D01*
X202554762Y-61854819D02*
X202792857Y-61854819D01*
X202792857Y-61854819D02*
X202888095Y-61902438D01*
X202888095Y-61902438D02*
X202935714Y-61950057D01*
X202935714Y-61950057D02*
X202983333Y-62045295D01*
X202983333Y-62045295D02*
X202983333Y-62140533D01*
X202983333Y-62140533D02*
X202935714Y-62283390D01*
X202935714Y-62283390D02*
X202364286Y-62854819D01*
X202364286Y-62854819D02*
X202983333Y-62854819D01*
X220875595Y-76504819D02*
X220875595Y-77314342D01*
X220875595Y-77314342D02*
X220923214Y-77409580D01*
X220923214Y-77409580D02*
X220970833Y-77457200D01*
X220970833Y-77457200D02*
X221066071Y-77504819D01*
X221066071Y-77504819D02*
X221256547Y-77504819D01*
X221256547Y-77504819D02*
X221351785Y-77457200D01*
X221351785Y-77457200D02*
X221399404Y-77409580D01*
X221399404Y-77409580D02*
X221447023Y-77314342D01*
X221447023Y-77314342D02*
X221447023Y-76504819D01*
X222447023Y-77504819D02*
X221875595Y-77504819D01*
X222161309Y-77504819D02*
X222161309Y-76504819D01*
X222161309Y-76504819D02*
X222066071Y-76647676D01*
X222066071Y-76647676D02*
X221970833Y-76742914D01*
X221970833Y-76742914D02*
X221875595Y-76790533D01*
X239578333Y-83329819D02*
X239245000Y-82853628D01*
X239006905Y-83329819D02*
X239006905Y-82329819D01*
X239006905Y-82329819D02*
X239387857Y-82329819D01*
X239387857Y-82329819D02*
X239483095Y-82377438D01*
X239483095Y-82377438D02*
X239530714Y-82425057D01*
X239530714Y-82425057D02*
X239578333Y-82520295D01*
X239578333Y-82520295D02*
X239578333Y-82663152D01*
X239578333Y-82663152D02*
X239530714Y-82758390D01*
X239530714Y-82758390D02*
X239483095Y-82806009D01*
X239483095Y-82806009D02*
X239387857Y-82853628D01*
X239387857Y-82853628D02*
X239006905Y-82853628D01*
X240149762Y-82758390D02*
X240054524Y-82710771D01*
X240054524Y-82710771D02*
X240006905Y-82663152D01*
X240006905Y-82663152D02*
X239959286Y-82567914D01*
X239959286Y-82567914D02*
X239959286Y-82520295D01*
X239959286Y-82520295D02*
X240006905Y-82425057D01*
X240006905Y-82425057D02*
X240054524Y-82377438D01*
X240054524Y-82377438D02*
X240149762Y-82329819D01*
X240149762Y-82329819D02*
X240340238Y-82329819D01*
X240340238Y-82329819D02*
X240435476Y-82377438D01*
X240435476Y-82377438D02*
X240483095Y-82425057D01*
X240483095Y-82425057D02*
X240530714Y-82520295D01*
X240530714Y-82520295D02*
X240530714Y-82567914D01*
X240530714Y-82567914D02*
X240483095Y-82663152D01*
X240483095Y-82663152D02*
X240435476Y-82710771D01*
X240435476Y-82710771D02*
X240340238Y-82758390D01*
X240340238Y-82758390D02*
X240149762Y-82758390D01*
X240149762Y-82758390D02*
X240054524Y-82806009D01*
X240054524Y-82806009D02*
X240006905Y-82853628D01*
X240006905Y-82853628D02*
X239959286Y-82948866D01*
X239959286Y-82948866D02*
X239959286Y-83139342D01*
X239959286Y-83139342D02*
X240006905Y-83234580D01*
X240006905Y-83234580D02*
X240054524Y-83282200D01*
X240054524Y-83282200D02*
X240149762Y-83329819D01*
X240149762Y-83329819D02*
X240340238Y-83329819D01*
X240340238Y-83329819D02*
X240435476Y-83282200D01*
X240435476Y-83282200D02*
X240483095Y-83234580D01*
X240483095Y-83234580D02*
X240530714Y-83139342D01*
X240530714Y-83139342D02*
X240530714Y-82948866D01*
X240530714Y-82948866D02*
X240483095Y-82853628D01*
X240483095Y-82853628D02*
X240435476Y-82806009D01*
X240435476Y-82806009D02*
X240340238Y-82758390D01*
X239333333Y-89954819D02*
X239000000Y-89478628D01*
X238761905Y-89954819D02*
X238761905Y-88954819D01*
X238761905Y-88954819D02*
X239142857Y-88954819D01*
X239142857Y-88954819D02*
X239238095Y-89002438D01*
X239238095Y-89002438D02*
X239285714Y-89050057D01*
X239285714Y-89050057D02*
X239333333Y-89145295D01*
X239333333Y-89145295D02*
X239333333Y-89288152D01*
X239333333Y-89288152D02*
X239285714Y-89383390D01*
X239285714Y-89383390D02*
X239238095Y-89431009D01*
X239238095Y-89431009D02*
X239142857Y-89478628D01*
X239142857Y-89478628D02*
X238761905Y-89478628D01*
X239666667Y-88954819D02*
X240333333Y-88954819D01*
X240333333Y-88954819D02*
X239904762Y-89954819D01*
D11*
X208083333Y-58456119D02*
X207750000Y-57979928D01*
X207511905Y-58456119D02*
X207511905Y-57456119D01*
X207511905Y-57456119D02*
X207892857Y-57456119D01*
X207892857Y-57456119D02*
X207988095Y-57503738D01*
X207988095Y-57503738D02*
X208035714Y-57551357D01*
X208035714Y-57551357D02*
X208083333Y-57646595D01*
X208083333Y-57646595D02*
X208083333Y-57789452D01*
X208083333Y-57789452D02*
X208035714Y-57884690D01*
X208035714Y-57884690D02*
X207988095Y-57932309D01*
X207988095Y-57932309D02*
X207892857Y-57979928D01*
X207892857Y-57979928D02*
X207511905Y-57979928D01*
X208988095Y-57456119D02*
X208511905Y-57456119D01*
X208511905Y-57456119D02*
X208464286Y-57932309D01*
X208464286Y-57932309D02*
X208511905Y-57884690D01*
X208511905Y-57884690D02*
X208607143Y-57837071D01*
X208607143Y-57837071D02*
X208845238Y-57837071D01*
X208845238Y-57837071D02*
X208940476Y-57884690D01*
X208940476Y-57884690D02*
X208988095Y-57932309D01*
X208988095Y-57932309D02*
X209035714Y-58027547D01*
X209035714Y-58027547D02*
X209035714Y-58265642D01*
X209035714Y-58265642D02*
X208988095Y-58360880D01*
X208988095Y-58360880D02*
X208940476Y-58408500D01*
X208940476Y-58408500D02*
X208845238Y-58456119D01*
X208845238Y-58456119D02*
X208607143Y-58456119D01*
X208607143Y-58456119D02*
X208511905Y-58408500D01*
X208511905Y-58408500D02*
X208464286Y-58360880D01*
D10*
X208333333Y-62454819D02*
X208000000Y-61978628D01*
X207761905Y-62454819D02*
X207761905Y-61454819D01*
X207761905Y-61454819D02*
X208142857Y-61454819D01*
X208142857Y-61454819D02*
X208238095Y-61502438D01*
X208238095Y-61502438D02*
X208285714Y-61550057D01*
X208285714Y-61550057D02*
X208333333Y-61645295D01*
X208333333Y-61645295D02*
X208333333Y-61788152D01*
X208333333Y-61788152D02*
X208285714Y-61883390D01*
X208285714Y-61883390D02*
X208238095Y-61931009D01*
X208238095Y-61931009D02*
X208142857Y-61978628D01*
X208142857Y-61978628D02*
X207761905Y-61978628D01*
X209190476Y-61788152D02*
X209190476Y-62454819D01*
X208952381Y-61407200D02*
X208714286Y-62121485D01*
X208714286Y-62121485D02*
X209333333Y-62121485D01*
X204333333Y-54454819D02*
X204000000Y-53978628D01*
X203761905Y-54454819D02*
X203761905Y-53454819D01*
X203761905Y-53454819D02*
X204142857Y-53454819D01*
X204142857Y-53454819D02*
X204238095Y-53502438D01*
X204238095Y-53502438D02*
X204285714Y-53550057D01*
X204285714Y-53550057D02*
X204333333Y-53645295D01*
X204333333Y-53645295D02*
X204333333Y-53788152D01*
X204333333Y-53788152D02*
X204285714Y-53883390D01*
X204285714Y-53883390D02*
X204238095Y-53931009D01*
X204238095Y-53931009D02*
X204142857Y-53978628D01*
X204142857Y-53978628D02*
X203761905Y-53978628D01*
X204666667Y-53454819D02*
X205285714Y-53454819D01*
X205285714Y-53454819D02*
X204952381Y-53835771D01*
X204952381Y-53835771D02*
X205095238Y-53835771D01*
X205095238Y-53835771D02*
X205190476Y-53883390D01*
X205190476Y-53883390D02*
X205238095Y-53931009D01*
X205238095Y-53931009D02*
X205285714Y-54026247D01*
X205285714Y-54026247D02*
X205285714Y-54264342D01*
X205285714Y-54264342D02*
X205238095Y-54359580D01*
X205238095Y-54359580D02*
X205190476Y-54407200D01*
X205190476Y-54407200D02*
X205095238Y-54454819D01*
X205095238Y-54454819D02*
X204809524Y-54454819D01*
X204809524Y-54454819D02*
X204714286Y-54407200D01*
X204714286Y-54407200D02*
X204666667Y-54359580D01*
X223833333Y-82804819D02*
X223500000Y-82328628D01*
X223261905Y-82804819D02*
X223261905Y-81804819D01*
X223261905Y-81804819D02*
X223642857Y-81804819D01*
X223642857Y-81804819D02*
X223738095Y-81852438D01*
X223738095Y-81852438D02*
X223785714Y-81900057D01*
X223785714Y-81900057D02*
X223833333Y-81995295D01*
X223833333Y-81995295D02*
X223833333Y-82138152D01*
X223833333Y-82138152D02*
X223785714Y-82233390D01*
X223785714Y-82233390D02*
X223738095Y-82281009D01*
X223738095Y-82281009D02*
X223642857Y-82328628D01*
X223642857Y-82328628D02*
X223261905Y-82328628D01*
X224214286Y-81900057D02*
X224261905Y-81852438D01*
X224261905Y-81852438D02*
X224357143Y-81804819D01*
X224357143Y-81804819D02*
X224595238Y-81804819D01*
X224595238Y-81804819D02*
X224690476Y-81852438D01*
X224690476Y-81852438D02*
X224738095Y-81900057D01*
X224738095Y-81900057D02*
X224785714Y-81995295D01*
X224785714Y-81995295D02*
X224785714Y-82090533D01*
X224785714Y-82090533D02*
X224738095Y-82233390D01*
X224738095Y-82233390D02*
X224166667Y-82804819D01*
X224166667Y-82804819D02*
X224785714Y-82804819D01*
X218333333Y-82954819D02*
X218000000Y-82478628D01*
X217761905Y-82954819D02*
X217761905Y-81954819D01*
X217761905Y-81954819D02*
X218142857Y-81954819D01*
X218142857Y-81954819D02*
X218238095Y-82002438D01*
X218238095Y-82002438D02*
X218285714Y-82050057D01*
X218285714Y-82050057D02*
X218333333Y-82145295D01*
X218333333Y-82145295D02*
X218333333Y-82288152D01*
X218333333Y-82288152D02*
X218285714Y-82383390D01*
X218285714Y-82383390D02*
X218238095Y-82431009D01*
X218238095Y-82431009D02*
X218142857Y-82478628D01*
X218142857Y-82478628D02*
X217761905Y-82478628D01*
X219285714Y-82954819D02*
X218714286Y-82954819D01*
X219000000Y-82954819D02*
X219000000Y-81954819D01*
X219000000Y-81954819D02*
X218904762Y-82097676D01*
X218904762Y-82097676D02*
X218809524Y-82192914D01*
X218809524Y-82192914D02*
X218714286Y-82240533D01*
X198166666Y-82534819D02*
X198166666Y-83249104D01*
X198166666Y-83249104D02*
X198119047Y-83391961D01*
X198119047Y-83391961D02*
X198023809Y-83487200D01*
X198023809Y-83487200D02*
X197880952Y-83534819D01*
X197880952Y-83534819D02*
X197785714Y-83534819D01*
X198547619Y-82534819D02*
X199166666Y-82534819D01*
X199166666Y-82534819D02*
X198833333Y-82915771D01*
X198833333Y-82915771D02*
X198976190Y-82915771D01*
X198976190Y-82915771D02*
X199071428Y-82963390D01*
X199071428Y-82963390D02*
X199119047Y-83011009D01*
X199119047Y-83011009D02*
X199166666Y-83106247D01*
X199166666Y-83106247D02*
X199166666Y-83344342D01*
X199166666Y-83344342D02*
X199119047Y-83439580D01*
X199119047Y-83439580D02*
X199071428Y-83487200D01*
X199071428Y-83487200D02*
X198976190Y-83534819D01*
X198976190Y-83534819D02*
X198690476Y-83534819D01*
X198690476Y-83534819D02*
X198595238Y-83487200D01*
X198595238Y-83487200D02*
X198547619Y-83439580D01*
X244166666Y-83074819D02*
X244166666Y-83789104D01*
X244166666Y-83789104D02*
X244119047Y-83931961D01*
X244119047Y-83931961D02*
X244023809Y-84027200D01*
X244023809Y-84027200D02*
X243880952Y-84074819D01*
X243880952Y-84074819D02*
X243785714Y-84074819D01*
X244595238Y-83170057D02*
X244642857Y-83122438D01*
X244642857Y-83122438D02*
X244738095Y-83074819D01*
X244738095Y-83074819D02*
X244976190Y-83074819D01*
X244976190Y-83074819D02*
X245071428Y-83122438D01*
X245071428Y-83122438D02*
X245119047Y-83170057D01*
X245119047Y-83170057D02*
X245166666Y-83265295D01*
X245166666Y-83265295D02*
X245166666Y-83360533D01*
X245166666Y-83360533D02*
X245119047Y-83503390D01*
X245119047Y-83503390D02*
X244547619Y-84074819D01*
X244547619Y-84074819D02*
X245166666Y-84074819D01*
X221346666Y-85309819D02*
X221346666Y-86024104D01*
X221346666Y-86024104D02*
X221299047Y-86166961D01*
X221299047Y-86166961D02*
X221203809Y-86262200D01*
X221203809Y-86262200D02*
X221060952Y-86309819D01*
X221060952Y-86309819D02*
X220965714Y-86309819D01*
X222346666Y-86309819D02*
X221775238Y-86309819D01*
X222060952Y-86309819D02*
X222060952Y-85309819D01*
X222060952Y-85309819D02*
X221965714Y-85452676D01*
X221965714Y-85452676D02*
X221870476Y-85547914D01*
X221870476Y-85547914D02*
X221775238Y-85595533D01*
X208833333Y-54679580D02*
X208785714Y-54727200D01*
X208785714Y-54727200D02*
X208642857Y-54774819D01*
X208642857Y-54774819D02*
X208547619Y-54774819D01*
X208547619Y-54774819D02*
X208404762Y-54727200D01*
X208404762Y-54727200D02*
X208309524Y-54631961D01*
X208309524Y-54631961D02*
X208261905Y-54536723D01*
X208261905Y-54536723D02*
X208214286Y-54346247D01*
X208214286Y-54346247D02*
X208214286Y-54203390D01*
X208214286Y-54203390D02*
X208261905Y-54012914D01*
X208261905Y-54012914D02*
X208309524Y-53917676D01*
X208309524Y-53917676D02*
X208404762Y-53822438D01*
X208404762Y-53822438D02*
X208547619Y-53774819D01*
X208547619Y-53774819D02*
X208642857Y-53774819D01*
X208642857Y-53774819D02*
X208785714Y-53822438D01*
X208785714Y-53822438D02*
X208833333Y-53870057D01*
X209690476Y-53774819D02*
X209500000Y-53774819D01*
X209500000Y-53774819D02*
X209404762Y-53822438D01*
X209404762Y-53822438D02*
X209357143Y-53870057D01*
X209357143Y-53870057D02*
X209261905Y-54012914D01*
X209261905Y-54012914D02*
X209214286Y-54203390D01*
X209214286Y-54203390D02*
X209214286Y-54584342D01*
X209214286Y-54584342D02*
X209261905Y-54679580D01*
X209261905Y-54679580D02*
X209309524Y-54727200D01*
X209309524Y-54727200D02*
X209404762Y-54774819D01*
X209404762Y-54774819D02*
X209595238Y-54774819D01*
X209595238Y-54774819D02*
X209690476Y-54727200D01*
X209690476Y-54727200D02*
X209738095Y-54679580D01*
X209738095Y-54679580D02*
X209785714Y-54584342D01*
X209785714Y-54584342D02*
X209785714Y-54346247D01*
X209785714Y-54346247D02*
X209738095Y-54251009D01*
X209738095Y-54251009D02*
X209690476Y-54203390D01*
X209690476Y-54203390D02*
X209595238Y-54155771D01*
X209595238Y-54155771D02*
X209404762Y-54155771D01*
X209404762Y-54155771D02*
X209309524Y-54203390D01*
X209309524Y-54203390D02*
X209261905Y-54251009D01*
X209261905Y-54251009D02*
X209214286Y-54346247D01*
X205833333Y-52359580D02*
X205785714Y-52407200D01*
X205785714Y-52407200D02*
X205642857Y-52454819D01*
X205642857Y-52454819D02*
X205547619Y-52454819D01*
X205547619Y-52454819D02*
X205404762Y-52407200D01*
X205404762Y-52407200D02*
X205309524Y-52311961D01*
X205309524Y-52311961D02*
X205261905Y-52216723D01*
X205261905Y-52216723D02*
X205214286Y-52026247D01*
X205214286Y-52026247D02*
X205214286Y-51883390D01*
X205214286Y-51883390D02*
X205261905Y-51692914D01*
X205261905Y-51692914D02*
X205309524Y-51597676D01*
X205309524Y-51597676D02*
X205404762Y-51502438D01*
X205404762Y-51502438D02*
X205547619Y-51454819D01*
X205547619Y-51454819D02*
X205642857Y-51454819D01*
X205642857Y-51454819D02*
X205785714Y-51502438D01*
X205785714Y-51502438D02*
X205833333Y-51550057D01*
X206738095Y-51454819D02*
X206261905Y-51454819D01*
X206261905Y-51454819D02*
X206214286Y-51931009D01*
X206214286Y-51931009D02*
X206261905Y-51883390D01*
X206261905Y-51883390D02*
X206357143Y-51835771D01*
X206357143Y-51835771D02*
X206595238Y-51835771D01*
X206595238Y-51835771D02*
X206690476Y-51883390D01*
X206690476Y-51883390D02*
X206738095Y-51931009D01*
X206738095Y-51931009D02*
X206785714Y-52026247D01*
X206785714Y-52026247D02*
X206785714Y-52264342D01*
X206785714Y-52264342D02*
X206738095Y-52359580D01*
X206738095Y-52359580D02*
X206690476Y-52407200D01*
X206690476Y-52407200D02*
X206595238Y-52454819D01*
X206595238Y-52454819D02*
X206357143Y-52454819D01*
X206357143Y-52454819D02*
X206261905Y-52407200D01*
X206261905Y-52407200D02*
X206214286Y-52359580D01*
X216383333Y-74679580D02*
X216335714Y-74727200D01*
X216335714Y-74727200D02*
X216192857Y-74774819D01*
X216192857Y-74774819D02*
X216097619Y-74774819D01*
X216097619Y-74774819D02*
X215954762Y-74727200D01*
X215954762Y-74727200D02*
X215859524Y-74631961D01*
X215859524Y-74631961D02*
X215811905Y-74536723D01*
X215811905Y-74536723D02*
X215764286Y-74346247D01*
X215764286Y-74346247D02*
X215764286Y-74203390D01*
X215764286Y-74203390D02*
X215811905Y-74012914D01*
X215811905Y-74012914D02*
X215859524Y-73917676D01*
X215859524Y-73917676D02*
X215954762Y-73822438D01*
X215954762Y-73822438D02*
X216097619Y-73774819D01*
X216097619Y-73774819D02*
X216192857Y-73774819D01*
X216192857Y-73774819D02*
X216335714Y-73822438D01*
X216335714Y-73822438D02*
X216383333Y-73870057D01*
X217240476Y-74108152D02*
X217240476Y-74774819D01*
X217002381Y-73727200D02*
X216764286Y-74441485D01*
X216764286Y-74441485D02*
X217383333Y-74441485D01*
X226383333Y-77429580D02*
X226335714Y-77477200D01*
X226335714Y-77477200D02*
X226192857Y-77524819D01*
X226192857Y-77524819D02*
X226097619Y-77524819D01*
X226097619Y-77524819D02*
X225954762Y-77477200D01*
X225954762Y-77477200D02*
X225859524Y-77381961D01*
X225859524Y-77381961D02*
X225811905Y-77286723D01*
X225811905Y-77286723D02*
X225764286Y-77096247D01*
X225764286Y-77096247D02*
X225764286Y-76953390D01*
X225764286Y-76953390D02*
X225811905Y-76762914D01*
X225811905Y-76762914D02*
X225859524Y-76667676D01*
X225859524Y-76667676D02*
X225954762Y-76572438D01*
X225954762Y-76572438D02*
X226097619Y-76524819D01*
X226097619Y-76524819D02*
X226192857Y-76524819D01*
X226192857Y-76524819D02*
X226335714Y-76572438D01*
X226335714Y-76572438D02*
X226383333Y-76620057D01*
X226716667Y-76524819D02*
X227335714Y-76524819D01*
X227335714Y-76524819D02*
X227002381Y-76905771D01*
X227002381Y-76905771D02*
X227145238Y-76905771D01*
X227145238Y-76905771D02*
X227240476Y-76953390D01*
X227240476Y-76953390D02*
X227288095Y-77001009D01*
X227288095Y-77001009D02*
X227335714Y-77096247D01*
X227335714Y-77096247D02*
X227335714Y-77334342D01*
X227335714Y-77334342D02*
X227288095Y-77429580D01*
X227288095Y-77429580D02*
X227240476Y-77477200D01*
X227240476Y-77477200D02*
X227145238Y-77524819D01*
X227145238Y-77524819D02*
X226859524Y-77524819D01*
X226859524Y-77524819D02*
X226764286Y-77477200D01*
X226764286Y-77477200D02*
X226716667Y-77429580D01*
X225833333Y-72179580D02*
X225785714Y-72227200D01*
X225785714Y-72227200D02*
X225642857Y-72274819D01*
X225642857Y-72274819D02*
X225547619Y-72274819D01*
X225547619Y-72274819D02*
X225404762Y-72227200D01*
X225404762Y-72227200D02*
X225309524Y-72131961D01*
X225309524Y-72131961D02*
X225261905Y-72036723D01*
X225261905Y-72036723D02*
X225214286Y-71846247D01*
X225214286Y-71846247D02*
X225214286Y-71703390D01*
X225214286Y-71703390D02*
X225261905Y-71512914D01*
X225261905Y-71512914D02*
X225309524Y-71417676D01*
X225309524Y-71417676D02*
X225404762Y-71322438D01*
X225404762Y-71322438D02*
X225547619Y-71274819D01*
X225547619Y-71274819D02*
X225642857Y-71274819D01*
X225642857Y-71274819D02*
X225785714Y-71322438D01*
X225785714Y-71322438D02*
X225833333Y-71370057D01*
X226214286Y-71370057D02*
X226261905Y-71322438D01*
X226261905Y-71322438D02*
X226357143Y-71274819D01*
X226357143Y-71274819D02*
X226595238Y-71274819D01*
X226595238Y-71274819D02*
X226690476Y-71322438D01*
X226690476Y-71322438D02*
X226738095Y-71370057D01*
X226738095Y-71370057D02*
X226785714Y-71465295D01*
X226785714Y-71465295D02*
X226785714Y-71560533D01*
X226785714Y-71560533D02*
X226738095Y-71703390D01*
X226738095Y-71703390D02*
X226166667Y-72274819D01*
X226166667Y-72274819D02*
X226785714Y-72274819D01*
D12*
%TO.C,U2*%
X215390000Y-51100000D02*
X214890000Y-51100000D01*
X215390000Y-50600000D01*
X215390000Y-51100000D01*
G36*
X215390000Y-51100000D02*
G01*
X214890000Y-51100000D01*
X215390000Y-50600000D01*
X215390000Y-51100000D01*
G37*
X233600000Y-64510000D02*
X233600000Y-64810000D01*
X233600000Y-44590000D02*
X233600000Y-51090000D01*
X215380000Y-64810000D02*
X233600000Y-64810000D01*
X215380000Y-64510000D02*
X215380000Y-64810000D01*
X215380000Y-44590000D02*
X233600000Y-44590000D01*
X215380000Y-44590000D02*
X215380000Y-50400000D01*
%TO.C,R6*%
X236272936Y-53485000D02*
X236727064Y-53485000D01*
X236272936Y-52015000D02*
X236727064Y-52015000D01*
%TO.C,SW1*%
X211250000Y-69500000D02*
X211250000Y-71500000D01*
X210200000Y-72800000D02*
X209750000Y-73250000D01*
X210200000Y-68200000D02*
X209750000Y-67750000D01*
X207250000Y-73250000D02*
X209750000Y-73250000D01*
X207250000Y-67750000D02*
X209750000Y-67750000D01*
X206800000Y-72800000D02*
X207250000Y-73250000D01*
X206800000Y-68200000D02*
X207250000Y-67750000D01*
X205750000Y-69500000D02*
X205750000Y-71500000D01*
%TO.C,SW2*%
X204250000Y-61500000D02*
X204250000Y-63500000D01*
X203200000Y-64800000D02*
X202750000Y-65250000D01*
X203200000Y-60200000D02*
X202750000Y-59750000D01*
X200250000Y-65250000D02*
X202750000Y-65250000D01*
X200250000Y-59750000D02*
X202750000Y-59750000D01*
X199800000Y-64800000D02*
X200250000Y-65250000D01*
X199800000Y-60200000D02*
X200250000Y-59750000D01*
X198750000Y-61500000D02*
X198750000Y-63500000D01*
%TO.C,U1*%
X220727500Y-77890000D02*
X222547500Y-77890000D01*
X220727500Y-77940000D02*
X220727500Y-77890000D01*
X220727500Y-81010000D02*
X220727500Y-80960000D01*
X222547500Y-77890000D02*
X222547500Y-77940000D01*
X222547500Y-79060000D02*
X222547500Y-79840000D01*
X222547500Y-80960000D02*
X222547500Y-81010000D01*
X222547500Y-81010000D02*
X220727500Y-81010000D01*
X220187500Y-77940000D02*
X219947500Y-77610000D01*
X220427500Y-77610000D01*
X220187500Y-77940000D01*
G36*
X220187500Y-77940000D02*
G01*
X219947500Y-77610000D01*
X220427500Y-77610000D01*
X220187500Y-77940000D01*
G37*
%TO.C,R8*%
X239772936Y-85265000D02*
X240227064Y-85265000D01*
X239772936Y-86735000D02*
X240227064Y-86735000D01*
%TO.C,R7*%
X239772936Y-91265000D02*
X240227064Y-91265000D01*
X239772936Y-92735000D02*
X240227064Y-92735000D01*
%TO.C,R5*%
X208772936Y-58765000D02*
X209227064Y-58765000D01*
X208772936Y-60235000D02*
X209227064Y-60235000D01*
%TO.C,R4*%
X208360436Y-62765000D02*
X208814564Y-62765000D01*
X208360436Y-64235000D02*
X208814564Y-64235000D01*
%TO.C,R3*%
X204860436Y-55265000D02*
X205314564Y-55265000D01*
X204860436Y-56735000D02*
X205314564Y-56735000D01*
%TO.C,R2*%
X223772936Y-83265000D02*
X224227064Y-83265000D01*
X223772936Y-84735000D02*
X224227064Y-84735000D01*
%TO.C,R1*%
X218272936Y-83265000D02*
X218727064Y-83265000D01*
X218272936Y-84735000D02*
X218727064Y-84735000D01*
%TO.C,J3*%
X197120000Y-84080000D02*
X198500000Y-84080000D01*
X197120000Y-85460000D02*
X197120000Y-84080000D01*
X197120000Y-86730000D02*
X197120000Y-94460000D01*
X197120000Y-86730000D02*
X199880000Y-86730000D01*
X197120000Y-94460000D02*
X199880000Y-94460000D01*
X199880000Y-86730000D02*
X199880000Y-94460000D01*
%TO.C,J2*%
X243120000Y-84620000D02*
X244500000Y-84620000D01*
X243120000Y-86000000D02*
X243120000Y-84620000D01*
X243120000Y-87270000D02*
X243120000Y-95000000D01*
X243120000Y-87270000D02*
X245880000Y-87270000D01*
X243120000Y-95000000D02*
X245880000Y-95000000D01*
X245880000Y-87270000D02*
X245880000Y-95000000D01*
%TO.C,J1*%
X216980000Y-89600000D02*
X216980000Y-91600000D01*
X216980000Y-93500000D02*
X216980000Y-95400000D01*
X216980000Y-95400000D02*
X226380000Y-95400000D01*
X226380000Y-89600000D02*
X226380000Y-91600000D01*
X226380000Y-93500000D02*
X226380000Y-95400000D01*
%TO.C,C6*%
X208738748Y-55265000D02*
X209261252Y-55265000D01*
X208738748Y-56735000D02*
X209261252Y-56735000D01*
%TO.C,C5*%
X208788748Y-51765000D02*
X209311252Y-51765000D01*
X208788748Y-53235000D02*
X209311252Y-53235000D01*
%TO.C,C4*%
X216288748Y-75265000D02*
X216811252Y-75265000D01*
X216288748Y-76735000D02*
X216811252Y-76735000D01*
%TO.C,C3*%
X226288748Y-78265000D02*
X226811252Y-78265000D01*
X226288748Y-79735000D02*
X226811252Y-79735000D01*
%TO.C,C2*%
X225738748Y-72765000D02*
X226261252Y-72765000D01*
X225738748Y-74235000D02*
X226261252Y-74235000D01*
%TD*%
M02*
