%TF.GenerationSoftware,KiCad,Pcbnew,10.0.6*%
%TF.CreationDate,2026-08-31T18:58:46+02:00*%
%TF.ProjectId,env-station,656e762d-7374-4617-9469-6f6e2e6b6963,rev?*%
%TF.SameCoordinates,Original*%
%TF.FileFunction,Soldermask,Top*%
%TF.FilePolarity,Negative*%
%FSLAX46Y46*%
G04 Gerber Fmt 4.6, Leading zero omitted, Abs format (unit mm)*
G04 Created by KiCad (PCBNEW 10.0.6) date 2026-08-31 18:58:46*
%MOMM*%
%LPD*%
G01*
G04 APERTURE LIST*
G04 Aperture macros list*
%AMRoundRect*
0 Rectangle with rounded corners*
0 $1 Rounding radius*
0 $2 $3 $4 $5 $6 $7 $8 $9 X,Y pos of 4 corners*
0 Add a 4 corners polygon primitive as box body*
4,1,4,$2,$3,$4,$5,$6,$7,$8,$9,$2,$3,0*
0 Add four circle primitives for the rounded corners*
1,1,$1+$1,$2,$3*
1,1,$1+$1,$4,$5*
1,1,$1+$1,$6,$7*
1,1,$1+$1,$8,$9*
0 Add four rect primitives between the rounded corners*
20,1,$1+$1,$2,$3,$4,$5,0*
20,1,$1+$1,$4,$5,$6,$7,0*
20,1,$1+$1,$6,$7,$8,$9,0*
20,1,$1+$1,$8,$9,$2,$3,0*%
G04 Aperture macros list end*
%ADD10C,0.600000*%
%ADD11R,2.900000X2.900000*%
%ADD12R,1.500000X0.900000*%
%ADD13RoundRect,0.250000X-0.262500X-0.450000X0.262500X-0.450000X0.262500X0.450000X-0.262500X0.450000X0*%
%ADD14R,1.700000X1.000000*%
%ADD15RoundRect,0.150000X-0.512500X-0.150000X0.512500X-0.150000X0.512500X0.150000X-0.512500X0.150000X0*%
%ADD16R,1.700000X1.700000*%
%ADD17C,1.700000*%
%ADD18C,0.650000*%
%ADD19RoundRect,0.150000X-0.150000X-0.575000X0.150000X-0.575000X0.150000X0.575000X-0.150000X0.575000X0*%
%ADD20RoundRect,0.075000X-0.075000X-0.650000X0.075000X-0.650000X0.075000X0.650000X-0.075000X0.650000X0*%
%ADD21O,1.000000X2.100000*%
%ADD22O,1.000000X1.600000*%
%ADD23RoundRect,0.250000X-0.250000X-0.475000X0.250000X-0.475000X0.250000X0.475000X-0.250000X0.475000X0*%
G04 APERTURE END LIST*
D10*
%TO.C,U2*%
X226550000Y-58550000D03*
X226550000Y-57450000D03*
X226000000Y-59100000D03*
X226000000Y-58000000D03*
X226000000Y-56900000D03*
X225450000Y-58550000D03*
D11*
X225450000Y-58000000D03*
D10*
X225450000Y-57450000D03*
X224900000Y-59100000D03*
X224900000Y-58000000D03*
X224900000Y-56900000D03*
X224350000Y-58550000D03*
X224350000Y-57450000D03*
D12*
X233240000Y-51800000D03*
X233240000Y-53300000D03*
X233240000Y-54800000D03*
X233240000Y-56300000D03*
X233240000Y-57800000D03*
X233240000Y-59300000D03*
X233240000Y-60800000D03*
X233240000Y-62300000D03*
X233240000Y-63800000D03*
X215740000Y-63800000D03*
X215740000Y-62300000D03*
X215740000Y-60800000D03*
X215740000Y-59300000D03*
X215740000Y-57800000D03*
X215740000Y-56300000D03*
X215740000Y-54800000D03*
X215740000Y-53300000D03*
X215740000Y-51800000D03*
%TD*%
D13*
%TO.C,R6*%
X237412500Y-52750000D03*
X235587500Y-52750000D03*
%TD*%
D14*
%TO.C,SW1*%
X211650000Y-72400000D03*
X205350000Y-72400000D03*
X211650000Y-68600000D03*
X205350000Y-68600000D03*
%TD*%
%TO.C,SW2*%
X204650000Y-64400000D03*
X198350000Y-64400000D03*
X204650000Y-60600000D03*
X198350000Y-60600000D03*
%TD*%
D15*
%TO.C,U1*%
X220500000Y-78500000D03*
X220500000Y-79450000D03*
X220500000Y-80400000D03*
X222775000Y-80400000D03*
X222775000Y-78500000D03*
%TD*%
D13*
%TO.C,R8*%
X239087500Y-86000000D03*
X240912500Y-86000000D03*
%TD*%
%TO.C,R7*%
X239087500Y-92000000D03*
X240912500Y-92000000D03*
%TD*%
%TO.C,R5*%
X208087500Y-59500000D03*
X209912500Y-59500000D03*
%TD*%
%TO.C,R4*%
X207675000Y-63500000D03*
X209500000Y-63500000D03*
%TD*%
%TO.C,R3*%
X204175000Y-56000000D03*
X206000000Y-56000000D03*
%TD*%
%TO.C,R2*%
X223087500Y-84000000D03*
X224912500Y-84000000D03*
%TD*%
%TO.C,R1*%
X217587500Y-84000000D03*
X219412500Y-84000000D03*
%TD*%
D16*
%TO.C,J3*%
X198500000Y-85460000D03*
D17*
X198500000Y-88000000D03*
X198500000Y-90540000D03*
X198500000Y-93080000D03*
%TD*%
D16*
%TO.C,J2*%
X244500000Y-86000000D03*
D17*
X244500000Y-88540000D03*
X244500000Y-91080000D03*
X244500000Y-93620000D03*
%TD*%
D18*
%TO.C,J1*%
X218790000Y-88900000D03*
X224570000Y-88900000D03*
D19*
X218430000Y-87455000D03*
X219230000Y-87455000D03*
D20*
X220430000Y-87455000D03*
X221430000Y-87455000D03*
X221930000Y-87455000D03*
X222930000Y-87455000D03*
D19*
X224130000Y-87455000D03*
X224930000Y-87455000D03*
X224930000Y-87455000D03*
X224130000Y-87455000D03*
D20*
X223430000Y-87455000D03*
X222430000Y-87455000D03*
X220930000Y-87455000D03*
X219930000Y-87455000D03*
D19*
X219230000Y-87455000D03*
X218430000Y-87455000D03*
D21*
X217360000Y-88370000D03*
D22*
X217360000Y-92550000D03*
D21*
X226000000Y-88370000D03*
D22*
X226000000Y-92550000D03*
%TD*%
D23*
%TO.C,C6*%
X208050000Y-56000000D03*
X209950000Y-56000000D03*
%TD*%
%TO.C,C5*%
X208100000Y-52500000D03*
X210000000Y-52500000D03*
%TD*%
%TO.C,C4*%
X215600000Y-76000000D03*
X217500000Y-76000000D03*
%TD*%
%TO.C,C3*%
X225600000Y-79000000D03*
X227500000Y-79000000D03*
%TD*%
%TO.C,C2*%
X225050000Y-73500000D03*
X226950000Y-73500000D03*
%TD*%
M02*
